<svg width="16" height="15" viewBox="0 0 16 15" fill="none" xmlns="http://www.w3.org/2000/svg">
<path fill-rule="evenodd" clip-rule="evenodd" d="M1.53104 0H14.3546C15.1968 0 15.8856 0.631454 15.8856 1.40345V13.1584C15.8856 13.9304 15.1968 14.5618 14.3546 14.5618H1.53104C0.68886 14.5618 0 13.9304 0 13.1584V1.40345C0 0.631454 0.68886 0 1.53104 0ZM5.13084 5.17523C6.39927 5.17523 7.42794 6.11818 7.42794 7.28091C7.42794 8.44365 6.39927 9.38659 5.13084 9.38659C3.8624 9.38659 2.83373 8.44365 2.83373 7.28091C2.83373 6.11818 3.8624 5.17523 5.13084 5.17523ZM10.7548 5.17523C12.0232 5.17523 13.0519 6.11818 13.0519 7.28091C13.0519 8.44365 12.0232 9.38659 10.7548 9.38659C9.48637 9.38659 8.4577 8.44365 8.4577 7.28091C8.4577 6.11818 9.48637 5.17523 10.7548 5.17523Z" fill="currentColor"/>
</svg>
