<svg viewBox="0 0 20 20" xmlns="http://www.w3.org/2000/svg">
  <path d="M13.2891 15.2942C13.2141 14.912 12.6699 14.8482 12.2599 14.8482C10.9932 14.8482 10.0907 14.7313 9.4099 14.5451C7.36777 13.9868 8.41118 14.2421 6.87656 13.9265C5.76065 13.697 5.44584 13.7548 4.31887 13.9265C2.60232 14.1879 0.51887 16.4109 0.51887 16.4109C0.346155 16.574 0.30353 16.8323 0.414687 17.0423L1.4244 18.9495C1.71477 19.4979 2.42894 19.6516 2.92441 19.2779C3.12525 19.1264 3.31483 18.9855 3.44195 18.8954C4.61118 18.0673 5.08909 18.0966 5.78041 18.0674C7.28036 18.0039 8.08222 18.5261 9.58041 18.6195C10.7195 18.6905 11.3897 18.8558 12.5035 18.6195C13.899 18.3233 14.5422 17.7312 15.7189 16.9631C16.6592 16.3493 17.77 15.3416 18.4857 14.6568C18.8937 14.2664 18.8848 13.5548 18.3496 13.3744C17.8121 13.1931 16.5958 13.6504 16.0112 13.9264C15.4266 14.2024 15.0429 14.466 13.2891 15.2942ZM13.2891 15.2942C13.2891 15.8824 13.2891 15.8824 12.7958 16.1349C12.0982 16.4919 11.159 16.687 10.3599 16.687C8.76175 16.687 7.19323 16.3633 7.19323 16.3633" stroke="currentColor" stroke-width="0.7" />
  <path d="M7.125 16.666C7.26468 16.666 7.3812 16.5678 7.4082 16.4316L7.41406 16.3711C7.41406 16.2254 7.39108 16.1144 7.21191 16.0889L7.125 16.083M7.125 16.666V16.083M7.125 16.666L7.06641 16.6602C6.95366 16.637 6.86487 16.5483 6.8418 16.4316L6.83594 16.3711C6.83594 16.2045 6.96532 16.083 7.125 16.083M7.125 16.666V16.083" fill="currentColor"  stroke="#F6F5F4" stroke-width="1.3" />
  <path d="M3.70605 1.37793C5.50194 0.0666079 7.02385 0.222372 8.10059 0.680664C8.65098 0.914947 9.09303 1.23318 9.39844 1.49414C9.55044 1.62403 9.66739 1.73836 9.74512 1.81934C9.78394 1.85979 9.81336 1.89199 9.83203 1.91309C9.84126 1.92351 9.84745 1.93171 9.85156 1.93652C9.85362 1.93893 9.85572 1.94054 9.85645 1.94141L10.1035 2.24219L10.376 1.96484L10.377 1.96289C10.378 1.9618 10.3803 1.96048 10.3828 1.95801C10.3883 1.9526 10.3973 1.94397 10.4092 1.93262C10.433 1.90974 10.4694 1.87507 10.5176 1.83203C10.6141 1.74584 10.7573 1.62463 10.9395 1.48828C11.3051 1.21459 11.8218 0.88539 12.4326 0.652344C13.0429 0.41952 13.7376 0.285911 14.4668 0.390625C15.1915 0.494784 15.9756 0.83784 16.7666 1.59473C17.0578 1.87346 17.3585 2.23274 17.5449 2.79004C17.7326 3.35095 17.8141 4.14181 17.6133 5.29492C17.4706 6.11425 16.9427 7.01861 16.1846 7.93262C15.4319 8.83998 14.4801 9.72424 13.5391 10.5029C12.5994 11.2805 11.6781 11.947 10.9912 12.4189C10.648 12.6547 10.3639 12.842 10.166 12.9697C10.1221 12.998 10.082 13.0225 10.0469 13.0449C10.0159 13.024 9.9813 13.0005 9.94336 12.9746C9.75643 12.8468 9.48688 12.6597 9.16113 12.4238C8.50926 11.9517 7.63109 11.2849 6.72461 10.5068C5.8171 9.72787 4.88692 8.84179 4.12793 7.93164C3.36729 7.01944 2.80096 6.10853 2.58105 5.27539C2.43163 4.40649 2.43876 3.71183 2.6123 3.10254C2.78464 2.49771 3.12946 1.94666 3.70605 1.37793Z" stroke="currentColor"  stroke-width="0.7" />
</svg>