<svg width="17" height="20" viewBox="0 0 17 20" fill="none" xmlns="http://www.w3.org/2000/svg">
<rect x="0.35" y="0.35" width="15.7706" height="19.3" rx="0.65" stroke="currentColor" stroke-opacity="0.9" stroke-width="0.7"/>
<mask id="path-2-inside-1_5013_604" fill="currentColor">
<path d="M4.31641 13.1381C4.31641 12.9663 4.45937 12.827 4.63572 12.827H11.6605C11.8369 12.827 11.9799 12.9663 11.9799 13.1381C11.9799 13.3099 11.8369 13.4492 11.6605 13.4492H4.63572C4.45937 13.4492 4.31641 13.3099 4.31641 13.1381Z"/>
<path d="M4.31641 14.6937C4.31641 14.5219 4.45937 14.3826 4.63572 14.3826H11.6605C11.8369 14.3826 11.9799 14.5219 11.9799 14.6937C11.9799 14.8655 11.8369 15.0048 11.6605 15.0048H4.63572C4.45937 15.0048 4.31641 14.8655 4.31641 14.6937Z"/>
<path d="M4.31641 16.2493C4.31641 16.0775 4.45937 15.9382 4.63572 15.9382H11.6605C11.8369 15.9382 11.9799 16.0775 11.9799 16.2493C11.9799 16.4212 11.8369 16.5605 11.6605 16.5605H4.63572C4.45937 16.5605 4.31641 16.4212 4.31641 16.2493Z"/>
<path d="M7.83308 3.45644C7.83308 3.28688 7.97416 3.14941 8.14819 3.14941C8.32222 3.14941 8.4633 3.28688 8.4633 3.45644V8.06186C8.4633 8.23143 8.32222 8.36889 8.14819 8.36889C7.97416 8.36889 7.83308 8.23143 7.83308 8.06187V3.45644Z"/>
<path d="M6.88763 4.99162C6.7136 4.99162 6.57253 4.85416 6.57253 4.68459C6.57253 4.51503 6.7136 4.37756 6.88763 4.37756L9.40851 4.37756C9.58254 4.37756 9.72361 4.51503 9.72361 4.68459C9.72361 4.85416 9.58254 4.99162 9.40851 4.99162L6.88763 4.99162Z"/>
</mask>
<path d="M4.31641 13.1381C4.31641 12.9663 4.45937 12.827 4.63572 12.827H11.6605C11.8369 12.827 11.9799 12.9663 11.9799 13.1381C11.9799 13.3099 11.8369 13.4492 11.6605 13.4492H4.63572C4.45937 13.4492 4.31641 13.3099 4.31641 13.1381Z" fill="currentColor" />
<path d="M4.31641 14.6937C4.31641 14.5219 4.45937 14.3826 4.63572 14.3826H11.6605C11.8369 14.3826 11.9799 14.5219 11.9799 14.6937C11.9799 14.8655 11.8369 15.0048 11.6605 15.0048H4.63572C4.45937 15.0048 4.31641 14.8655 4.31641 14.6937Z" fill="currentColor" />
<path d="M4.31641 16.2493C4.31641 16.0775 4.45937 15.9382 4.63572 15.9382H11.6605C11.8369 15.9382 11.9799 16.0775 11.9799 16.2493C11.9799 16.4212 11.8369 16.5605 11.6605 16.5605H4.63572C4.45937 16.5605 4.31641 16.4212 4.31641 16.2493Z" fill="currentColor" />
<path d="M7.83308 3.45644C7.83308 3.28688 7.97416 3.14941 8.14819 3.14941C8.32222 3.14941 8.4633 3.28688 8.4633 3.45644V8.06186C8.4633 8.23143 8.32222 8.36889 8.14819 8.36889C7.97416 8.36889 7.83308 8.23143 7.83308 8.06187V3.45644Z" fill="currentColor" />
<path d="M6.88763 4.99162C6.7136 4.99162 6.57253 4.85416 6.57253 4.68459C6.57253 4.51503 6.7136 4.37756 6.88763 4.37756L9.40851 4.37756C9.58254 4.37756 9.72361 4.51503 9.72361 4.68459C9.72361 4.85416 9.58254 4.99162 9.40851 4.99162L6.88763 4.99162Z" fill="currentColor" />
<path d="M9.40851 4.99162V4.29162V4.99162ZM9.40851 4.37756V3.67756V4.37756ZM6.88763 4.37756V5.07756V4.37756ZM6.88763 4.99162V5.69162V4.99162ZM5.01641 13.1381C5.01641 13.3699 4.82871 13.527 4.63572 13.527V12.127C4.09002 12.127 3.61641 12.5626 3.61641 13.1381H5.01641ZM4.63572 13.527H11.6605V12.127H4.63572V13.527ZM11.6605 13.527C11.4676 13.527 11.2799 13.3699 11.2799 13.1381H12.6799C12.6799 12.5626 12.2062 12.127 11.6605 12.127V13.527ZM11.2799 13.1381C11.2799 12.9063 11.4676 12.7492 11.6605 12.7492V14.1492C12.2062 14.1492 12.6799 13.7136 12.6799 13.1381H11.2799ZM11.6605 12.7492H4.63572V14.1492H11.6605V12.7492ZM4.63572 12.7492C4.82871 12.7492 5.01641 12.9063 5.01641 13.1381H3.61641C3.61641 13.7136 4.09002 14.1492 4.63572 14.1492V12.7492ZM5.01641 14.6937C5.01641 14.9255 4.82871 15.0826 4.63572 15.0826V13.6826C4.09002 13.6826 3.61641 14.1183 3.61641 14.6937H5.01641ZM4.63572 15.0826H11.6605V13.6826H4.63572V15.0826ZM11.6605 15.0826C11.4675 15.0826 11.2799 14.9255 11.2799 14.6937H12.6799C12.6799 14.1183 12.2062 13.6826 11.6605 13.6826V15.0826ZM11.2799 14.6937C11.2799 14.4619 11.4676 14.3048 11.6605 14.3048V15.7048C12.2062 15.7048 12.6799 15.2692 12.6799 14.6937H11.2799ZM11.6605 14.3048H4.63572V15.7048H11.6605V14.3048ZM4.63572 14.3048C4.82871 14.3048 5.01641 14.4619 5.01641 14.6937H3.61641C3.61641 15.2692 4.09002 15.7048 4.63572 15.7048V14.3048ZM5.01641 16.2493C5.01641 16.4811 4.82871 16.6382 4.63572 16.6382V15.2382C4.09002 15.2382 3.61641 15.6739 3.61641 16.2493H5.01641ZM4.63572 16.6382H11.6605V15.2382H4.63572V16.6382ZM11.6605 16.6382C11.4675 16.6382 11.2799 16.4811 11.2799 16.2493H12.6799C12.6799 15.6739 12.2062 15.2382 11.6605 15.2382V16.6382ZM11.2799 16.2493C11.2799 16.0175 11.4676 15.8605 11.6605 15.8605V17.2605C12.2062 17.2605 12.6799 16.8248 12.6799 16.2493H11.2799ZM11.6605 15.8605H4.63572V17.2605H11.6605V15.8605ZM4.63572 15.8605C4.82871 15.8605 5.01641 16.0175 5.01641 16.2493H3.61641C3.61641 16.8248 4.09002 17.2605 4.63572 17.2605V15.8605ZM7.7633 3.45644V8.06186H9.1633V3.45644H7.7633ZM8.53308 8.06187V3.45644H7.13308V8.06187H8.53308ZM8.14819 7.66889C8.34351 7.66889 8.53308 7.8278 8.53308 8.06187H7.13308C7.13308 8.63506 7.60482 9.06889 8.14819 9.06889V7.66889ZM7.7633 8.06186C7.7633 7.8278 7.95287 7.66889 8.14819 7.66889V9.06889C8.69157 9.06889 9.1633 8.63506 9.1633 8.06186H7.7633ZM8.14819 3.84941C7.95288 3.84941 7.7633 3.69051 7.7633 3.45644H9.1633C9.1633 2.88325 8.69157 2.44941 8.14819 2.44941V3.84941ZM8.14819 2.44941C7.60482 2.44941 7.13308 2.88325 7.13308 3.45644H8.53308C8.53308 3.6905 8.34351 3.84941 8.14819 3.84941V2.44941ZM6.88763 5.07756L9.40851 5.07756V3.67756L6.88763 3.67756V5.07756ZM9.40851 4.29162L6.88763 4.29162V5.69162L9.40851 5.69162V4.29162ZM9.02361 4.68459C9.02361 4.45053 9.21319 4.29162 9.40851 4.29162V5.69162C9.95188 5.69162 10.4236 5.25779 10.4236 4.68459H9.02361ZM9.40851 5.07756C9.21319 5.07756 9.02361 4.91866 9.02361 4.68459H10.4236C10.4236 4.1114 9.95188 3.67756 9.40851 3.67756V5.07756ZM7.27253 4.68459C7.27253 4.91866 7.08295 5.07756 6.88763 5.07756V3.67756C6.34426 3.67756 5.87253 4.1114 5.87253 4.68459H7.27253ZM5.87253 4.68459C5.87253 5.25779 6.34426 5.69162 6.88763 5.69162V4.29162C7.08295 4.29162 7.27253 4.45053 7.27253 4.68459H5.87253Z" fill="currentColor" mask="url(#path-2-inside-1_5013_604)"/>
<rect x="4.55589" y="10.094" width="7.18448" height="0.478966" rx="0.239483" fill="currentColor"  stroke="currentColor" stroke-width="0.478966"/>
</svg>
