<svg width="16" height="22" viewBox="0 0 16 22" fill="none" xmlns="http://www.w3.org/2000/svg">
<path d="M3.16309 14.2852H4.9707C5.0546 14.2852 5.12298 14.3526 5.12305 14.4365V16.2441C5.12305 16.3281 5.05464 16.3965 4.9707 16.3965H3.16309C3.07915 16.3965 3.01074 16.3281 3.01074 16.2441V14.4365C3.01081 14.3526 3.07919 14.2852 3.16309 14.2852ZM6.77832 14.2852H8.58691C8.67072 14.2853 8.73821 14.3527 8.73828 14.4365V16.2441C8.73828 16.328 8.67077 16.3964 8.58691 16.3965H6.77832C6.6946 16.3962 6.62695 16.3279 6.62695 16.2441V14.4365C6.62702 14.3528 6.69464 14.2854 6.77832 14.2852ZM10.3945 14.2852H12.2021C12.286 14.2852 12.3544 14.3526 12.3545 14.4365V16.2441C12.3545 16.3281 12.2861 16.3965 12.2021 16.3965H10.3945C10.3107 16.3964 10.2432 16.328 10.2432 16.2441V14.4365C10.2432 14.3527 10.3107 14.2852 10.3945 14.2852ZM3.16309 10.6689H4.9707C5.05448 10.6689 5.12279 10.7366 5.12305 10.8203V12.6289C5.12295 12.7128 5.05458 12.7803 4.9707 12.7803H3.16309C3.07921 12.7803 3.01084 12.7128 3.01074 12.6289V10.8203C3.011 10.7366 3.0793 10.6689 3.16309 10.6689ZM6.77832 10.6689H8.58691C8.67061 10.669 8.73803 10.7367 8.73828 10.8203V12.6289C8.73818 12.7127 8.6707 12.7802 8.58691 12.7803H6.77832C6.69466 12.78 6.62705 12.7126 6.62695 12.6289V10.8203C6.62721 10.7367 6.69476 10.6692 6.77832 10.6689ZM10.3945 10.6689H12.2021C12.2859 10.6689 12.3542 10.7366 12.3545 10.8203V12.6289C12.3544 12.7128 12.286 12.7803 12.2021 12.7803H10.3945C10.3107 12.7802 10.2433 12.7127 10.2432 12.6289V10.8203C10.2434 10.7366 10.3108 10.669 10.3945 10.6689ZM3.16309 7.05273H4.9707C5.05464 7.05273 5.12305 7.12114 5.12305 7.20508V9.0127C5.12305 9.09663 5.05464 9.16504 4.9707 9.16504H3.16309C3.07915 9.16504 3.01074 9.09663 3.01074 9.0127V7.20508C3.01074 7.12114 3.07915 7.05273 3.16309 7.05273ZM6.77832 7.05273H8.58691C8.67077 7.05284 8.73828 7.1212 8.73828 7.20508V9.0127C8.73828 9.09657 8.67077 9.16494 8.58691 9.16504H6.77832C6.6946 9.16479 6.62695 9.09648 6.62695 9.0127V7.20508C6.62695 7.1213 6.6946 7.05299 6.77832 7.05273ZM10.3945 7.05273H12.2021C12.2861 7.05273 12.3545 7.12114 12.3545 7.20508V9.0127C12.3545 9.09663 12.2861 9.16504 12.2021 9.16504H10.3945C10.3107 9.16497 10.2432 9.09659 10.2432 9.0127V7.20508C10.2432 7.12118 10.3107 7.0528 10.3945 7.05273Z" stroke="currentColor" stroke-width="0.6"/>
<rect x="0.35" y="1.85" width="15.3" height="19.3" rx="0.65" stroke="currentColor" stroke-width="0.7"/>
<path d="M4 0.27119C4 0.121416 4.12142 0 4.27119 0C4.42096 0 4.54238 0.121416 4.54238 0.27119V3.34468C4.54238 3.49445 4.42096 3.61587 4.27119 3.61587C4.12142 3.61587 4 3.49445 4 3.34468V0.27119Z" fill="currentColor" />
<path d="M7.84186 0.27119C7.84186 0.121416 7.96328 0 8.11305 0C8.26283 0 8.38424 0.121416 8.38424 0.27119V3.34468C8.38424 3.49445 8.26283 3.61587 8.11305 3.61587C7.96328 3.61587 7.84186 3.49445 7.84186 3.34468V0.27119Z" fill="currentColor" />
<path d="M11.6837 0.27119C11.6837 0.121416 11.8051 0 11.9549 0C12.1047 0 12.2261 0.121416 12.2261 0.27119V3.34468C12.2261 3.49445 12.1047 3.61587 11.9549 3.61587C11.8051 3.61587 11.6837 3.49445 11.6837 3.34468V0.27119Z" fill="currentColor" />
</svg>
