<svg width="20" height="14" viewBox="0 0 20 14" fill="none" xmlns="http://www.w3.org/2000/svg">
<path d="M11.7443 13.1741V9.29365C13.9843 9.69104 15.0076 11.4063 16.1188 13.1741C16.1188 13.1741 19.0666 13.1647 19.7549 13.1741C20.4432 13.1834 17.4894 8.72072 15.7873 7.0554C17.0931 4.96326 20.4561 0.0245719 19.1572 0.00756057C17.8584 -0.00945072 15.8526 0.00756057 15.8526 0.00756057C15.0076 2.20013 13.8738 4.9691 11.7443 6.73399V0.00756057H8.09313V1.65556V7.52877C6.23489 7.27748 4.8514 3.30487 3.61827 0.00756057C3.61827 0.00756057 1.33894 0.0205155 0.167956 0.00756057C-1.00303 -0.00539439 4.06525 14.3078 11.7443 13.1741Z" fill="currentColor"/>
</svg>
