<svg width="19" height="16" viewBox="0 0 19 16" fill="none" xmlns="http://www.w3.org/2000/svg">
<path d="M17.6984 0C18.2695 0 18.7004 0.511837 18.4699 1.46385L15.6745 14.9251C15.4791 15.8823 14.913 16.1126 14.1314 15.6673L7.46341 10.636C7.43755 10.617 7.41649 10.592 7.40195 10.5631C7.38742 10.5342 7.37984 10.5021 7.37984 10.4696C7.37984 10.4371 7.38742 10.4051 7.40195 10.3761C7.41649 10.3472 7.43755 10.3222 7.46341 10.3033L15.1635 3.19898C15.5141 2.88164 15.0883 2.72809 14.6274 3.01472L4.96353 9.24377C4.93422 9.26329 4.90094 9.27575 4.86622 9.28018C4.8315 9.28462 4.79625 9.28091 4.76313 9.26936L0.660114 7.9437C-0.251668 7.67243 -0.251668 7.03263 0.865516 6.5771L17.2826 0.107486C17.413 0.0441828 17.5543 0.0076628 17.6984 0Z" fill="currentColor"/>
</svg>
