<svg viewBox="0 0 16 14" fill="none" xmlns="http://www.w3.org/2000/svg">
<path d="M11.1625 0H0V13.8684H3.10673V9.35646H9.06031L11.7762 13.8684H15.2553L12.2603 9.33577C13.1907 9.16948 13.8606 8.77409 14.2693 8.15032C14.6786 7.52656 14.8829 6.52883 14.8829 5.19779V4.15794C14.8829 3.36788 14.8089 2.74412 14.6786 2.26595C14.5483 1.78778 14.3248 1.37169 14.0087 0.997727C13.6741 0.644458 13.3018 0.394657 12.8554 0.228369C12.4091 0.0827744 11.8509 0 11.1625 0ZM10.6606 6.30046H3.10673V3.05674H10.6606C11.0885 3.05674 11.3861 3.13952 11.5348 3.28511C11.6836 3.4307 11.7762 3.7012 11.7762 4.09585V5.25987C11.7762 5.67596 11.683 5.94645 11.5342 6.09131C11.3854 6.2369 11.0878 6.29898 10.66 6.29898L10.6606 6.30046Z" fill="currentColor"/>
</svg>
