<svg xmlns="http://www.w3.org/2000/svg" width="46" height="46" fill="none" viewBox="0 0 46 46"><g clip-path="url(#clip0_5128_8480)"><path fill="#fff" d="M23.0047 44.0542C22.9571 44.0539 22.909 44.0548 22.8615 44.0552V44.0476C22.6355 44.0257 22.4418 43.9492 22.2841 43.8026C22.1072 43.6383 21.9816 43.3896 21.9137 43.0351C21.86 42.9692 21.8136 42.899 21.7743 42.8248C21.7403 42.7604 21.7114 42.6925 21.6877 42.6214C21.5758 42.5788 21.4684 42.5244 21.3658 42.4572C21.2444 42.3776 21.1284 42.2788 21.0189 42.1589L20.9972 42.1351L20.9888 42.1053C20.9433 41.9442 20.9076 41.7801 20.8862 41.6123C20.8702 41.4865 20.8626 41.3601 20.8654 41.2329C20.7448 41.2189 20.6298 41.1924 20.5207 41.1525C20.4075 41.1111 20.3008 41.0555 20.2014 40.9848C20.067 41.1105 19.9185 41.2053 19.7602 41.2562C19.577 41.3151 19.3835 41.3154 19.1863 41.2385C18.9485 41.1458 18.7423 40.9692 18.5863 40.7334C18.4365 40.507 18.3328 40.2248 18.2923 39.9096C18.264 39.7361 18.2536 39.5617 18.2665 39.3866C18.2726 39.3034 18.2839 39.2199 18.3011 39.1361C18.2843 39.1418 18.2675 39.1472 18.2508 39.1522C18.1602 39.179 18.0698 39.1942 17.9798 39.1948L17.3605 39.8131L17.0339 40.3381H9.87137L13.1942 34.3733C11.8046 32.5635 10.5325 30.7548 9.41938 28.9479L9.28954 28.8556C8.80729 28.5128 8.36526 28.1985 8.15459 27.7093C7.77963 27.7089 7.48381 27.6105 7.2603 27.4312C7.02933 27.2459 6.8805 26.9782 6.80517 26.6462C6.49558 26.6568 6.21155 26.5956 5.96721 26.4694C5.7175 26.3404 5.51024 26.1445 5.36023 25.8889L5.00781 25.9548V22.189L5.36023 22.2549C5.51024 21.9993 5.7175 21.8034 5.96721 21.6744C6.21155 21.5482 6.49545 21.487 6.80517 21.4977C6.8805 21.1657 7.02933 20.8979 7.2603 20.7126C7.48381 20.5333 7.77963 20.4349 8.15459 20.4345C8.36526 19.9453 8.80716 19.631 9.28954 19.2883L9.41938 19.1959C10.5325 17.3891 11.8046 15.5804 13.1942 13.7706L9.87137 7.80573H16.8704C17.212 6.97551 17.7648 6.30329 18.5036 5.77085C19.2441 5.23724 20.1707 4.84486 21.258 4.57498C21.3781 4.16766 21.6036 3.83358 21.8878 3.59461C22.2064 3.3267 22.5985 3.17773 22.9997 3.17773C23.4007 3.17773 23.7928 3.3267 24.1116 3.59461C24.3959 3.83358 24.6213 4.16766 24.7414 4.57498C25.8288 4.84499 26.7553 5.23724 27.4957 5.77085C28.2345 6.30329 28.7874 6.97538 29.1289 7.80573H36.1281L32.8053 13.7706C34.1949 15.5804 35.467 17.389 36.5801 19.1959L36.71 19.2883C37.1922 19.631 37.6342 19.9453 37.8449 20.4345C38.2199 20.4349 38.5157 20.5333 38.7392 20.7126C38.9702 20.8979 39.119 21.1657 39.1943 21.4977C39.504 21.487 39.7879 21.5482 40.0323 21.6744C40.282 21.8034 40.4893 21.9993 40.6393 22.2549L40.9917 22.189V25.9548L40.6393 25.8889C40.4893 26.1445 40.282 26.3404 40.0323 26.4694C39.7879 26.5956 39.504 26.6568 39.1943 26.6462C39.119 26.9782 38.97 27.2459 38.7392 27.4312C38.5157 27.6105 38.2199 27.7089 37.8449 27.7093C37.6342 28.1985 37.1923 28.5128 36.71 28.8556L36.5801 28.9479C35.467 30.7547 34.1949 32.5635 32.8053 34.3733L36.1281 40.3381H28.9656L28.639 39.8131L28.0197 39.1948C27.9297 39.1941 27.8393 39.179 27.7487 39.1522C27.732 39.1472 27.7152 39.1418 27.6984 39.1361C27.7155 39.2199 27.7269 39.3034 27.733 39.3866C27.746 39.5617 27.7356 39.7361 27.7073 39.9096C27.6669 40.2248 27.563 40.507 27.4132 40.7334C27.2572 40.9692 27.051 41.1458 26.8132 41.2385C26.6161 41.3154 26.4225 41.3152 26.2393 41.2562C26.0811 41.2053 25.9325 41.1105 25.7981 40.9848C25.6985 41.0555 25.5919 41.1111 25.4788 41.1525C25.3697 41.1924 25.2547 41.2189 25.1341 41.2329C25.1369 41.3601 25.1292 41.4865 25.1133 41.6123C25.0921 41.7803 25.0563 41.9442 25.0107 42.1053L25.0023 42.1351L24.9805 42.1589C24.8708 42.2789 24.7548 42.3777 24.6335 42.4572C24.5311 42.5244 24.4235 42.5788 24.3116 42.6214C24.2881 42.6925 24.2591 42.7604 24.225 42.8248C24.1859 42.899 24.1395 42.9691 24.0858 43.0351C24.0179 43.3896 23.8923 43.6383 23.7154 43.8026C23.5577 43.9492 23.364 44.0257 23.138 44.0476V44.0552L23.0043 44.0542H23.0047ZM22.9952 43.7887H23.0047C23.2211 43.7872 23.3998 43.7331 23.5346 43.6078C23.6745 43.4778 23.7747 43.2667 23.8303 42.954L23.8367 42.9182L23.8611 42.8901C23.9114 42.8318 23.9545 42.7686 23.9903 42.7009C24.0264 42.6325 24.0552 42.5599 24.0766 42.4834L24.0956 42.4153L24.1624 42.3929C24.2752 42.355 24.3841 42.3027 24.4882 42.2345C24.5852 42.171 24.677 42.0943 24.7635 42.0033C24.8023 41.8616 24.8325 41.7201 24.8504 41.5789C24.8694 41.4292 24.8749 41.2767 24.8625 41.1209L24.8517 40.9833L24.99 40.9777C25.1322 40.9719 25.2654 40.9474 25.3887 40.9024C25.5096 40.8582 25.6216 40.7934 25.7234 40.7062L25.8208 40.6229L25.9076 40.7172C26.0339 40.8543 26.1741 40.9559 26.3208 41.0031C26.4469 41.0436 26.5804 41.0439 26.7166 40.9907C26.9024 40.9182 27.0658 40.7769 27.1917 40.5865C27.3205 40.3918 27.4099 40.1467 27.4447 39.8714L27.4452 39.8667C27.4701 39.714 27.4791 39.5601 27.4677 39.4052C27.4563 39.2519 27.4247 39.0975 27.3681 38.9423L27.2464 38.6079L27.5577 38.7809C27.648 38.8311 27.7369 38.8712 27.8238 38.897C27.9058 38.9213 27.9861 38.9327 28.0641 38.9274L28.124 38.9232L28.8495 39.6477L29.1131 40.0714H35.6756L32.4882 34.3497L32.5417 34.2802C33.9497 32.4504 35.2391 30.6191 36.3668 28.7864L36.3803 28.7645L36.556 28.6389C37.0315 28.3008 37.465 27.9927 37.6298 27.5302L37.6628 27.4377L37.7604 27.4418C38.1128 27.4563 38.3807 27.378 38.5727 27.2239C38.7765 27.0604 38.901 26.8067 38.9554 26.4844L38.9759 26.3628L39.0986 26.3741C39.4033 26.402 39.6796 26.3523 39.9106 26.233C40.1383 26.1153 40.3235 25.9284 40.4502 25.68L40.4954 25.5914L40.7252 25.6344V22.5091L40.4954 22.552L40.4502 22.4635C40.3237 22.2151 40.1383 22.0281 39.9106 21.9105C39.6796 21.7911 39.4033 21.7415 39.0986 21.7694L38.9759 21.7806L38.9554 21.6591C38.9011 21.3369 38.7765 21.083 38.5727 20.9195C38.3807 20.7654 38.1127 20.687 37.7604 20.7016L37.6628 20.7057L37.6298 20.6132C37.465 20.1507 37.0316 19.8426 36.556 19.5046L36.3803 19.3791L36.3668 19.3572C35.2391 17.5243 33.9495 15.693 32.5417 13.8633L32.4882 13.7939L35.6756 8.07221H28.9487L28.9154 7.98679C28.5965 7.16718 28.0628 6.50675 27.3406 5.98624C26.6121 5.46114 25.6905 5.07701 24.603 4.81447L24.5256 4.79573L24.5057 4.71817C24.4066 4.33169 24.2022 4.01739 23.9409 3.79755C23.6709 3.57038 23.3389 3.44421 22.9998 3.44421C22.6606 3.44421 22.3288 3.57038 22.0588 3.79755C21.7974 4.01739 21.5929 4.33169 21.494 4.71817L21.474 4.79573L21.3966 4.81447C20.3091 5.07701 19.3876 5.46114 18.659 5.98624C17.9367 6.50675 17.4031 7.16718 17.0842 7.98679L17.0511 8.07221H10.3241L13.5115 13.7939L13.4581 13.8633C12.0501 15.6932 10.7607 17.5245 9.63293 19.3572L9.61943 19.3791L9.44375 19.5046C8.9683 19.8426 8.53479 20.1507 8.36997 20.6132L8.33709 20.7057L8.23935 20.7016C7.88693 20.6871 7.61901 20.7654 7.42708 20.9195C7.22322 21.083 7.09876 21.3368 7.04439 21.6591L7.02382 21.7806L6.9012 21.7694C6.59646 21.7415 6.32016 21.7911 6.08919 21.9105C5.86149 22.0281 5.67624 22.2151 5.54955 22.4635L5.50435 22.552L5.27455 22.5091V25.6344L5.50435 25.5914L5.54955 25.68C5.6761 25.9284 5.86149 26.1153 6.08919 26.233C6.32016 26.3523 6.59646 26.402 6.9012 26.3741L7.02382 26.3628L7.04439 26.4844C7.09863 26.8065 7.22322 27.0604 7.42708 27.2239C7.61901 27.378 7.88706 27.4565 8.23935 27.4418L8.33709 27.4377L8.36997 27.5302C8.53479 27.9927 8.96817 28.3008 9.44375 28.6389L9.61943 28.7645L9.63293 28.7864C10.7607 30.6192 12.0502 32.4505 13.4581 34.2802L13.5115 34.3497L10.3241 40.0714H16.8867L17.1503 39.6477L17.8758 38.9232L17.9357 38.9274C18.0136 38.9327 18.0939 38.9213 18.176 38.897C18.2628 38.8712 18.3518 38.8311 18.442 38.7809L18.7533 38.6079L18.6315 38.9423C18.5749 39.0975 18.5432 39.2519 18.5319 39.4052C18.5205 39.5601 18.5296 39.714 18.5544 39.8667L18.555 39.8714C18.5897 40.1467 18.6792 40.3917 18.808 40.5865C18.9339 40.7769 19.0974 40.9182 19.283 40.9907C19.4191 41.0439 19.5528 41.0436 19.6788 41.0031C19.8255 40.9559 19.9657 40.8543 20.092 40.7172L20.179 40.6229L20.2763 40.7062C20.3781 40.7934 20.4901 40.8582 20.6111 40.9024C20.7344 40.9474 20.8676 40.9719 21.0097 40.9777L21.1482 40.9833L21.1373 41.1209C21.125 41.2767 21.1305 41.4292 21.1495 41.5789C21.1673 41.7201 21.1976 41.8616 21.2364 42.0033C21.3227 42.0943 21.4147 42.171 21.5116 42.2345C21.6158 42.3029 21.7247 42.355 21.8375 42.3929L21.9043 42.4153L21.9233 42.4834C21.9446 42.5599 21.9733 42.6325 22.0095 42.7009C22.0454 42.7686 22.0884 42.8318 22.1387 42.8901L22.163 42.9182L22.1693 42.954C22.2247 43.2667 22.325 43.4778 22.465 43.6078C22.5998 43.733 22.7785 43.7871 22.995 43.7887H22.9952Z"/><path fill="#fff" fill-rule="evenodd" d="M6.03825 23.1281C6.08594 22.7331 6.30316 22.4207 6.6582 22.4201C7.24029 22.419 7.61446 22.6047 7.85853 22.8759C7.78032 23.0744 7.73525 23.2947 7.71573 23.5322L6.03838 23.1281H6.03825ZM14.5276 18.4902C14.3566 18.2981 13.952 18.3079 13.925 18.5052C13.9723 18.7044 14.4068 18.6801 14.5276 18.4902ZM16.1063 17.7554C15.9806 17.9049 15.9726 18.0668 16.0675 18.2396C15.9688 18.3278 15.958 18.4372 16.0508 18.5717C16.0084 18.7897 16.0784 18.9328 16.2362 19.0172C16.0376 19.2812 15.7469 19.4189 15.3675 19.3291C14.9426 19.2286 14.6946 18.9369 14.6992 18.4794C14.7035 18.0461 14.9054 17.7158 15.3835 17.5978C15.6265 17.5378 15.8717 17.5855 16.1064 17.7553L16.1063 17.7554ZM16.1921 18.1483C16.1025 17.9416 16.1714 17.8381 16.383 17.8273C16.4737 17.8313 16.5432 17.8797 16.5905 17.9739L16.5628 18.1703C16.4601 18.1525 16.3381 18.1444 16.1921 18.1482V18.1483ZM16.1864 18.4764C16.1207 18.4651 16.1216 18.3256 16.2168 18.3104C16.403 18.2806 16.5854 18.3367 16.7508 18.4099L17.0109 18.6949L16.986 18.9273C16.7858 18.6649 16.5175 18.533 16.1864 18.4764ZM16.8477 19.2622L16.9335 19.1128C16.7761 18.8411 16.5276 18.6835 16.1947 18.6313C16.147 18.7516 16.2027 18.8499 16.333 18.8914C16.5206 18.9513 16.6991 19.049 16.8477 19.2622ZM16.0937 19.8604C16.2449 19.8521 16.3667 19.886 16.4444 19.9843L16.7582 19.3962C16.6745 19.264 16.5738 19.142 16.4257 19.0875C16.3731 19.0683 16.3321 19.1099 16.3427 19.1659C16.3877 19.4029 16.2762 19.6315 16.0937 19.8602V19.8604ZM15.5944 28.4439C15.6936 28.4177 15.7755 28.2956 15.8404 28.0798L16.0056 28.2652C15.9927 28.5127 16.03 28.7735 16.0899 29.0405C16.1583 29.1614 16.2087 29.275 16.2247 29.3742L16.454 29.5057L16.1236 29.5866C15.9983 29.5186 15.8917 29.5427 15.7946 29.6158L15.0718 29.6101C15.1845 29.5038 15.3478 29.448 15.564 29.4449C15.6805 29.3648 15.7588 29.2332 15.7764 29.0202C15.7304 28.8373 15.6744 28.6483 15.5944 28.4437V28.4439ZM16.2593 29.7109C16.4133 29.6673 16.5725 29.6788 16.7373 29.7541L16.6975 29.9783L16.5233 30.0281L16.2593 29.711V29.7109ZM15.9289 29.7308C15.9632 29.7037 16.0058 29.7013 16.0567 29.7241L16.4785 30.2188L16.3623 30.408L16.2445 30.398L15.929 29.7307L15.9289 29.7308ZM15.6218 29.8719C15.6481 29.7864 15.697 29.7528 15.7713 29.7773L16.095 30.4596C16.114 30.4997 15.8741 30.5212 15.8476 30.4529L15.6219 29.8719H15.6218ZM15.3097 30.1081C15.277 30.0004 15.441 29.8686 15.4711 29.9451L15.6942 30.5101C15.7075 30.5437 15.6405 30.5803 15.6057 30.5481C15.4752 30.4279 15.3647 30.2887 15.3097 30.1081ZM15.333 29.782L12.973 29.8416V29.9531L15.1748 30.005L15.3329 29.782H15.333ZM12.5337 29.6079C12.6912 29.6079 12.8189 29.7355 12.8189 29.893C12.8189 30.0505 12.6913 30.1781 12.5337 30.1781C12.3762 30.1781 12.2485 30.0505 12.2485 29.893C12.2485 29.7355 12.3761 29.6079 12.5337 29.6079ZM6.03825 25.0167C6.08594 25.4117 6.30316 25.7241 6.6582 25.7247C7.24029 25.7258 7.61446 25.5401 7.85853 25.2689C7.78032 25.0704 7.73525 24.8501 7.71573 24.6126L6.03838 25.0167H6.03825ZM8.93231 27.0736C9.05428 27.1015 9.20481 27.0609 9.37748 26.9666C9.31931 27.2003 9.27883 27.4342 9.25132 27.6679C9.06305 27.501 8.94711 27.3066 8.93217 27.0736H8.93231ZM11.0493 24.0724C11.5202 24.3318 11.8188 24.7151 11.89 25.262C12.4088 25.2575 12.8707 25.1627 13.2667 24.9573C13.687 24.7393 14.0097 24.4417 14.2138 24.0724C14.0097 23.7031 13.687 23.4054 13.2667 23.1875C12.8707 22.9821 12.4088 22.8874 11.89 22.8828C11.8188 23.4297 11.5202 23.813 11.0493 24.0724ZM8.833 25.6772L8.73094 25.6215L8.71705 26.6536C8.71443 26.8534 8.84531 26.9296 9.05153 26.9189C9.24241 26.9089 9.41443 26.798 9.53404 26.5477C9.70017 26.2002 9.8955 25.8696 10.1773 25.6045C10.3468 25.4449 10.573 25.4243 10.7866 25.5519C11.0172 25.6896 11.1752 25.8925 11.2444 26.1333C11.3361 26.4529 11.2337 26.7119 11.0062 26.7891C10.6647 26.905 10.5599 26.7559 10.3301 26.7258C9.9487 26.6759 9.62837 26.9181 9.70423 27.286C9.82096 27.8513 10.1549 28.3815 10.5198 28.9485C11.1067 29.8606 11.6807 30.7414 12.2802 31.5757C12.8294 32.34 13.3766 33.0924 13.9452 33.8049C14.1129 33.9115 14.2915 33.98 14.3972 33.9368C14.5589 33.8707 14.5156 33.7037 14.3855 33.4954C14.2562 33.2886 14.093 33.1093 13.922 32.9407L13.9945 32.9334C13.4672 32.3741 12.9629 31.8106 12.4958 31.2403L12.5896 31.1692L14.1339 32.8891C14.2348 32.9588 14.3779 32.827 14.2625 32.567C14.1865 32.3959 14.0864 32.2413 13.968 32.0978L12.7513 31.0301L12.8451 30.933L14.0262 31.9329C14.124 32.0158 14.2172 31.7794 13.9744 31.5511C13.6021 31.1477 13.1789 30.7824 12.7449 30.4252L12.8371 30.3107L13.7818 31.1059C14.0107 30.9121 13.8821 30.5888 13.4956 30.3329L13.1581 30.1094L12.9174 30.0949C12.8448 30.2328 12.7001 30.3269 12.5332 30.3269C12.2934 30.3269 12.0993 30.1328 12.0993 29.8931C12.0993 29.7438 12.1747 29.6122 12.2894 29.5342L12.0761 29.3929L12.1766 29.2611L12.4785 29.4628C12.4964 29.4605 12.5146 29.4594 12.533 29.4594C12.6964 29.4594 12.8387 29.5496 12.9127 29.683L13.4723 29.6719L13.4624 29.6646L12.2915 28.8296L12.3762 28.7134L13.4561 29.4605C13.5775 29.3682 13.5519 29.1817 13.4385 29.0941L12.2506 28.177L12.3408 28.0542L13.4926 28.9316C13.7173 28.9101 13.7062 28.5841 13.3377 28.2717L12.2947 27.3877L12.3976 27.2628L13.4923 28.1592C13.6274 28.1179 13.6949 27.8563 13.4546 27.6823L12.5003 26.991L12.5848 26.8698L13.5712 27.5602C13.7378 27.5483 13.758 27.2227 13.4812 27.0244L12.612 26.4017L12.6998 26.2893L13.5773 26.8872C13.7956 26.8829 13.9357 26.487 13.5786 26.2966L12.9267 25.9488L12.9853 25.8184L13.6637 26.1395C13.7643 26.0558 13.7018 25.9177 13.5142 25.7381L12.8497 25.4419L12.927 25.3132L13.5925 25.6062C13.8121 25.3925 14.2758 25.2878 14.5611 25.4132C14.7587 25.5 14.8742 25.8747 14.8535 26.1856C14.7478 26.51 14.5753 26.7339 14.5365 27.1586C14.5578 27.4201 14.6612 27.5903 14.8577 27.6571L14.855 27.0645L15.0044 27.07L14.9574 27.7014C14.9469 27.8417 15.0508 27.9471 15.183 27.94L15.1014 27.347H15.2509C15.2633 27.5671 15.2852 27.7802 15.3616 27.9674C15.435 28.1471 15.5698 28.2011 15.7465 28.1114L15.4114 27.1365L15.5581 27.095C15.629 27.4152 15.7092 27.7303 15.872 27.9978C15.9834 28.1807 16.1498 28.2081 16.3417 28.0259C16.1122 27.8271 15.9129 27.6055 15.7593 27.3497L15.8846 27.2652C16.0305 27.5061 16.1952 27.7457 16.4537 27.9217C16.5686 28 16.8119 27.7993 16.564 27.5657C16.2944 27.3115 15.9912 27.0796 15.662 26.8662L15.7592 26.733L16.5226 27.3055C16.6821 27.1661 16.7039 26.9874 16.537 26.8374C16.2349 26.5661 15.8148 26.471 15.5288 26.2468L15.6152 26.128C15.8144 26.3202 16.0498 26.4549 16.3367 26.5074L16.4131 26.4533C15.8834 26.2555 15.6837 25.9666 15.6868 25.6219C15.8199 25.6303 15.9249 25.6025 16.0021 25.5391C15.7135 25.4581 15.7457 25.0994 15.9965 25.1278C16.1758 25.1483 16.3066 25.334 16.5247 25.3935C16.8618 25.7598 17.2852 26.0306 17.8141 26.1979C18.0505 26.2726 18.3707 26.0405 18.4018 25.8377C18.43 25.6553 18.2421 25.6736 18.0948 25.6973C17.3663 25.8147 16.9122 25.5865 16.6172 25.0889L16.7548 24.9984C16.9074 25.2376 17.1098 25.4745 17.4152 25.5456C17.6151 25.5921 17.8319 25.5679 18.0116 25.493C17.9889 25.4379 17.9407 25.3904 17.8633 25.3726C17.6297 25.319 17.3672 25.3528 17.1242 25.2689L17.1397 25.1387C17.4088 25.1703 17.656 25.2025 17.942 25.2062C17.9876 25.195 18.0261 25.1721 18.0548 25.1327C17.9863 25.0938 17.9324 25.0435 17.8893 24.9849C17.5621 24.984 17.316 24.8535 17.1216 24.6407L17.2319 24.5524C17.3992 24.7438 17.6179 24.8435 17.9023 24.8256C17.9611 24.7305 18.0978 24.654 18.3225 24.745C18.5673 24.8443 18.7272 24.9202 18.852 24.8659L18.5692 24.4711L18.7004 24.3893L18.9807 24.7833L19.2082 24.7657L18.931 24.4652C19.4828 24.488 19.8967 24.377 20.1114 24.0727C19.8967 23.7683 19.4828 23.6572 18.931 23.6802L19.2082 23.3796L18.9807 23.3621L18.7004 23.756L18.5692 23.6743L18.852 23.2794C18.7272 23.225 18.5673 23.301 18.3225 23.4003C18.0978 23.4914 17.961 23.4149 17.9023 23.3197C17.6179 23.3018 17.3992 23.4014 17.2319 23.5929L17.1216 23.5046C17.3162 23.2918 17.5622 23.1613 17.8893 23.1604C17.9324 23.1017 17.9863 23.0514 18.0548 23.0126C18.0261 22.9732 17.9876 22.9503 17.942 22.9391C17.6561 22.9428 17.4088 22.975 17.1397 23.0066L17.1242 22.8764C17.3672 22.7925 17.6295 22.8263 17.8633 22.7728C17.9407 22.7549 17.989 22.7075 18.0116 22.6524C17.8321 22.5774 17.6151 22.5531 17.4152 22.5997C17.1098 22.6708 16.9074 22.9078 16.7548 23.1469L16.6172 23.0564C16.9122 22.5588 17.3663 22.3306 18.0948 22.448C18.2423 22.4717 18.43 22.49 18.4018 22.3077C18.3707 22.1049 18.0503 21.8727 17.8141 21.9474C17.2852 22.1146 16.8618 22.3854 16.5247 22.7518C16.3066 22.8113 16.1758 22.9972 15.9965 23.0175C15.7457 23.0461 15.7135 22.6873 16.0021 22.6062C15.9249 22.5427 15.8197 22.5151 15.6868 22.5234C15.6837 22.1788 15.8834 21.8899 16.4131 21.692L16.3367 21.6379C16.0498 21.6905 15.8144 21.8252 15.6152 22.0173L15.5288 21.8985C15.8148 21.6744 16.2348 21.5794 16.537 21.3079C16.7039 21.1579 16.6821 20.9792 16.5226 20.8398L15.7592 21.4123L15.662 21.2791C15.9912 21.0657 16.2944 20.8338 16.564 20.5796C16.8119 20.346 16.5686 20.1453 16.4537 20.2237C16.1952 20.3996 16.0307 20.6392 15.8846 20.8802L15.7593 20.7957C15.9129 20.5398 16.1122 20.3183 16.3417 20.1194C16.1499 19.9373 15.9835 19.9647 15.872 20.1475C15.709 20.4152 15.629 20.7302 15.5581 21.0503L15.4114 21.0088L15.7465 20.034C15.5698 19.9442 15.435 19.9982 15.3616 20.1779C15.2852 20.3652 15.2632 20.5782 15.2509 20.7983H15.1014L15.183 20.2053C15.0508 20.1982 14.9469 20.3036 14.9574 20.4439L15.0044 21.0754L14.855 21.0809L14.8577 20.4882C14.6612 20.555 14.5578 20.7252 14.5365 20.9867C14.5753 21.4114 14.7479 21.6354 14.8535 21.9597C14.8742 22.2706 14.7588 22.6453 14.5611 22.7321C14.2758 22.8577 13.8121 22.753 13.5925 22.5392L12.927 22.8321L12.8497 22.7035L13.5142 22.4072C13.7018 22.2276 13.7643 22.0895 13.6637 22.0058L12.9853 22.3269L12.9267 22.1966L13.5786 21.8487C13.9357 21.6582 13.7956 21.2623 13.5773 21.2581L12.6998 21.8561L12.612 21.7437L13.4812 21.121C13.758 20.9226 13.7378 20.5972 13.5712 20.5851L12.5848 21.2756L12.5003 21.1544L13.4546 20.463C13.6949 20.2889 13.6274 20.0274 13.4923 19.9861L12.3976 20.8825L12.2947 20.7577L13.3377 19.8736C13.7062 19.5611 13.7173 19.235 13.4926 19.2137L12.3408 20.0911L12.2506 19.9683L13.4385 19.0512C13.5519 18.9636 13.5775 18.7772 13.4561 18.6848L12.3762 19.432L12.2915 19.3158L13.4624 18.4807C13.6639 18.337 13.7546 18.0651 13.6225 17.9188L12.1764 18.8842L12.0759 18.7524L13.4952 17.8124C13.8817 17.5564 14.0102 17.2332 13.7815 17.0394L12.8367 17.8347L12.7445 17.7202C13.1785 17.3629 13.6017 16.9978 13.974 16.5942C14.2168 16.3659 14.1237 16.1295 14.0258 16.2125L12.8447 17.2124L12.7509 17.1153L13.9676 16.0475C14.0861 15.9041 14.1861 15.7495 14.2621 15.5784C14.3776 15.3184 14.2344 15.1865 14.1335 15.2562L12.5892 16.9761L12.4954 16.905C12.9625 16.3347 13.4668 15.7712 13.9941 15.2119L13.9216 15.2046C14.0926 15.0359 14.2558 14.8566 14.3852 14.6499C14.5152 14.4417 14.5585 14.2747 14.3968 14.2085C14.291 14.1651 14.1125 14.2337 13.9448 14.3404C13.3762 15.0529 12.8291 15.8053 12.2798 16.5696C11.6803 17.4039 11.1063 18.2847 10.5194 19.1968C10.1545 19.7639 9.82057 20.2941 9.70383 20.8593C9.62798 21.2272 9.9483 21.4695 10.3297 21.4195C10.5595 21.3895 10.6643 21.2404 11.0058 21.3563C11.2333 21.4334 11.3357 21.6923 11.244 22.012C11.1748 22.2528 11.0168 22.4557 10.7863 22.5934C10.5726 22.721 10.3464 22.7004 10.1769 22.5409C9.89511 22.2757 9.69977 21.9452 9.53365 21.5976C9.41404 21.3474 9.24215 21.2364 9.05113 21.2264C8.84505 21.2157 8.71404 21.2918 8.71666 21.4917L8.73055 22.5238L8.8326 22.4682C9.11009 23.1294 9.74707 23.6613 10.7188 24.0729C9.7472 24.4846 9.11022 25.0165 8.8326 25.6777L8.833 25.6772ZM13.4379 30.1026L13.6232 30.2263C13.6562 30.1897 13.6752 30.1452 13.6821 30.0969L13.4378 30.1026H13.4379ZM14.3975 24.0724C14.142 24.5249 13.7728 24.9073 13.2393 25.1396C12.6834 25.3817 12.1773 25.4328 11.7155 25.426C11.6781 24.7357 11.2858 24.3334 10.7192 24.0724C11.2859 23.8114 11.6782 23.4091 11.7155 22.7188C12.1773 22.7118 12.6833 22.7629 13.2393 23.0052C13.7727 23.2375 14.142 23.6199 14.3975 24.0724ZM7.84032 24.0724C7.84032 24.4392 7.89286 24.8346 7.9957 25.1978L8.31864 25.2057L8.35926 24.0724L8.31864 22.9391L7.9957 22.947C7.89286 23.3102 7.84032 23.7056 7.84032 24.0724ZM7.68114 25.717L8.56914 25.7832L8.58499 25.6008C8.48529 25.5345 8.39385 25.461 8.31537 25.3761L7.97186 25.3709C7.88552 25.469 7.79001 25.5621 7.67957 25.647L7.68114 25.7171V25.717ZM7.68114 26.1399L8.56128 26.0685L8.56652 25.9363L7.6759 25.8703L7.68114 26.1399ZM7.70931 26.2916L8.55905 26.2244L8.55368 26.6062C8.37904 26.7149 8.19615 26.79 8.03762 26.7796C7.78412 26.7633 7.70669 26.5646 7.70944 26.2915L7.70931 26.2916ZM5.68399 24.0724C5.67744 24.2012 5.75199 24.2877 5.85444 24.2828C5.94877 24.2784 6.05397 24.2176 6.13376 24.1387V24.4517L7.68953 24.2451V24.0725V23.9L6.13376 23.6934V24.0064C6.05397 23.9274 5.94877 23.8667 5.85444 23.8623C5.75199 23.8574 5.67744 23.9439 5.68399 24.0727V24.0724ZM5.94169 24.6288L5.94156 24.8437L7.69346 24.4729L7.69084 24.3989L5.94169 24.6288ZM8.93257 21.0712C9.05454 21.0433 9.20507 21.0839 9.37775 21.1782C9.31958 20.9445 9.27909 20.7106 9.25158 20.4769C9.06332 20.6438 8.94737 20.8382 8.93244 21.0712H8.93257ZM7.68127 22.4278L8.56927 22.3616L8.58512 22.544C8.48542 22.6103 8.39398 22.6838 8.3155 22.7687L7.97199 22.7739C7.88565 22.6758 7.79014 22.5827 7.6797 22.4978L7.68127 22.4277V22.4278ZM7.68127 22.0049L8.56141 22.0763L8.56665 22.2085L7.67603 22.2745L7.68127 22.0049ZM7.70944 21.8532L8.55918 21.9204L8.55381 21.5386C8.37917 21.4299 8.19628 21.3548 8.03776 21.3652C7.78425 21.3815 7.70682 21.5802 7.70957 21.8533L7.70944 21.8532ZM5.94183 23.5161L5.94169 23.3013L7.69359 23.672L7.69097 23.7461L5.94183 23.5161Z" clip-rule="evenodd"/><path fill="#fff" fill-rule="evenodd" d="M23.5503 31.3118C23.7809 31.3515 23.9633 31.5326 23.9637 31.8284C23.9643 32.3134 23.8559 32.6251 23.6976 32.8284C23.5818 32.7633 23.4531 32.7257 23.3144 32.7095L23.5503 31.3118ZM21.7829 5.60387C21.8705 5.60387 21.9416 5.67488 21.9416 5.76266C21.9416 5.8503 21.8706 5.92144 21.7829 5.92144C21.6952 5.92144 21.6241 5.85043 21.6241 5.76266C21.6241 5.67501 21.6951 5.60387 21.7829 5.60387ZM22.999 5.37761C22.8564 5.37761 22.7348 5.46775 22.688 5.59431C22.3901 5.47181 22.1802 5.17874 22.1802 4.83653C22.1802 4.38428 22.5468 4.01758 22.999 4.01758C23.4513 4.01758 23.8179 4.38428 23.8179 4.83653C23.8179 5.17874 23.608 5.47181 23.3101 5.59431C23.2634 5.46788 23.1417 5.37761 22.999 5.37761ZM24.2152 5.60387C24.1276 5.60387 24.0564 5.67488 24.0564 5.76266C24.0564 5.8503 24.1274 5.92144 24.2152 5.92144C24.3029 5.92144 24.374 5.85043 24.374 5.76266C24.374 5.67501 24.303 5.60387 24.2152 5.60387ZM19.8921 24.072L11.1539 8.56173H16.5783L16.8141 8.95096C17.0599 8.78746 17.3211 8.82506 17.6046 9.14801L17.6325 9.63707C17.9293 9.16255 18.3017 9.03481 18.6091 9.31151C18.9808 9.64611 18.6648 10.1433 18.2508 10.1539C18.3841 10.651 18.3207 10.9414 18.0954 11.0614L18.1732 11.1782C18.3566 11.1535 18.5879 10.7631 18.4423 10.2665C18.724 10.5367 19.0201 10.734 19.3132 10.7095C19.6236 10.6837 19.8398 10.45 19.985 10.0635L20.2304 10.1628L20.4758 9.81263C21.0734 10.3635 21.664 10.5872 22.2407 10.1708C22.5368 10.0853 22.7922 9.91102 22.9988 9.63078C23.2055 9.91102 23.4609 10.0851 23.7568 10.1708C24.3337 10.587 24.9243 10.3635 25.5218 9.81263L25.7672 10.1628L26.0126 10.0635C26.1579 10.45 26.374 10.6837 26.6844 10.7095C26.9775 10.7339 27.2737 10.5367 27.5552 10.2665C27.4097 10.763 27.6409 11.1535 27.8243 11.1782L27.9022 11.0614C27.6767 10.9414 27.6134 10.6511 27.7468 10.1539C27.3328 10.1433 27.0169 9.64598 27.3885 9.31151C27.696 9.03481 28.0683 9.16255 28.365 9.63707L28.3929 9.14801C28.6764 8.82506 28.9377 8.78733 29.1835 8.95096L29.4193 8.56173H34.8437L26.1055 24.072L35.0482 39.6883H29.4507L28.612 38.3477C28.5781 38.3313 28.5402 38.3031 28.4996 38.267C28.3789 38.1593 28.2742 38.0233 28.1757 37.8809L28.1714 37.9413C27.8449 37.502 27.5159 37.0818 27.183 36.6926L27.1415 36.7708L28.1456 38.0575C28.1862 38.1415 28.1093 38.2608 27.9576 38.1647C27.8576 38.1014 27.7673 38.0179 27.6836 37.9193L27.0603 36.9055L27.0037 36.9837L27.5875 37.9677C27.6358 38.0494 27.4979 38.1269 27.3645 37.9246C27.1289 37.6144 26.9158 37.2619 26.7072 36.9003L26.6404 36.977L27.1047 37.7643C26.9915 37.9549 26.8028 37.8477 26.6534 37.5258L26.1045 36.3432L26.0276 36.4269L26.5913 37.6318C26.5058 37.7419 26.347 37.6663 26.2632 37.4985L25.7757 36.5228L25.7078 36.5934L26.144 37.4932C26.0901 37.5942 25.9813 37.573 25.9302 37.4784L25.3949 36.4888L25.3232 36.564L25.8354 37.5236C25.8229 37.7108 25.6325 37.7017 25.4501 37.3946L24.9341 36.5256L24.8611 36.6113L25.3845 37.5235C25.3604 37.636 25.2076 37.6924 25.106 37.492L24.7023 36.6969L24.6316 36.7674L25.0347 37.5893C25.0278 37.7281 24.8377 37.745 24.722 37.5142L24.3584 36.7901L24.2928 36.8632L24.6418 37.5944C24.6393 37.7763 24.4082 37.8929 24.297 37.5955L24.0939 37.0524L24.0178 37.1011L24.2053 37.6663C24.1564 37.7501 24.0758 37.698 23.9709 37.5417L23.798 36.988L23.7228 37.0525L23.8939 37.6071C23.7691 37.79 23.7079 38.1763 23.7812 38.4141C23.8319 38.5788 24.0507 38.675 24.2321 38.6577C24.4214 38.5696 24.5522 38.4258 24.8002 38.3934C24.9528 38.4112 25.0521 38.4974 25.0913 38.6612L24.7453 38.6588L24.7486 38.7834L25.1171 38.7443C25.199 38.7356 25.2604 38.8219 25.2564 38.9323L24.9102 38.8643V38.9889C25.0388 38.9992 25.1631 39.0175 25.2724 39.0812C25.3773 39.1424 25.4087 39.2547 25.3565 39.4019L24.7874 39.1227L24.763 39.245C24.9499 39.3041 25.1339 39.3708 25.29 39.5065C25.3968 39.5994 25.4128 39.738 25.3066 39.8978C25.1905 39.7065 25.0612 39.5405 24.9118 39.4127L24.8624 39.517C25.0031 39.6387 25.1431 39.7758 25.2458 39.9911C25.2915 40.0869 25.1744 40.2895 25.0379 40.0831C24.8895 39.8584 24.7542 39.6059 24.6295 39.3316L24.5517 39.4125L24.8859 40.0486C24.8045 40.1815 24.7002 40.1997 24.6126 40.0605C24.4542 39.8089 24.3986 39.4588 24.2679 39.2205L24.1986 39.2925C24.3107 39.4584 24.3893 39.6545 24.42 39.8936L24.3884 39.9573C24.2729 39.5159 24.1043 39.3495 23.903 39.352C23.908 39.463 23.8919 39.5505 23.8547 39.6148C23.8074 39.3743 23.598 39.4012 23.6147 39.6101C23.6266 39.7595 23.7351 39.8685 23.7698 40.0502C23.9837 40.3311 24.1419 40.6839 24.2395 41.1245C24.2831 41.3214 24.1475 41.5883 24.0292 41.6142C23.9228 41.6377 23.9334 41.4812 23.9473 41.3583C24.0158 40.7514 23.8826 40.373 23.5921 40.1271L23.5392 40.2417C23.6789 40.3689 23.8172 40.5375 23.8587 40.792C23.886 40.9585 23.8717 41.1393 23.828 41.2888C23.7959 41.27 23.7681 41.2297 23.7577 41.1651C23.7264 40.9704 23.7462 40.7519 23.6972 40.5493L23.6212 40.5622C23.6397 40.7865 23.6586 40.9924 23.6607 41.2307C23.6542 41.2687 23.6407 41.3008 23.6178 41.3247C23.595 41.2675 23.5658 41.2227 23.5315 41.1868C23.5309 40.9142 23.4548 40.7092 23.3305 40.5471L23.279 40.639C23.3908 40.7783 23.4489 40.9606 23.4385 41.1975C23.3829 41.2465 23.3382 41.3604 23.3914 41.5477C23.4493 41.7516 23.4937 41.8849 23.462 41.9889L23.2316 41.7532L23.1839 41.8626L23.414 42.0961L23.4037 42.2856L23.2283 42.0547C23.2417 42.5145 23.1768 42.8593 22.9992 43.0382C22.8214 42.8593 22.7567 42.5145 22.7699 42.0547L22.5945 42.2856L22.5843 42.0961L22.8143 41.8626L22.7666 41.7532L22.536 41.9889C22.5043 41.8849 22.5488 41.7516 22.6067 41.5477C22.6599 41.3604 22.6152 41.2465 22.5596 41.1975C22.5491 40.9605 22.6073 40.7783 22.7191 40.639L22.6676 40.5471C22.5433 40.7092 22.4671 40.9141 22.4666 41.1868C22.4324 41.2227 22.4031 41.2677 22.3803 41.3247C22.3573 41.3008 22.3439 41.2687 22.3374 41.2307C22.3395 40.9924 22.3584 40.7865 22.3769 40.5622L22.3009 40.5493C22.2519 40.7519 22.2717 40.9704 22.2404 41.1651C22.23 41.2297 22.2022 41.2699 22.1701 41.2888C22.1264 41.1392 22.1122 40.9585 22.1393 40.792C22.1809 40.5375 22.3192 40.3689 22.4589 40.2417L22.406 40.1271C22.1154 40.373 21.9821 40.7514 22.0506 41.3583C22.0645 41.4812 22.0751 41.6377 21.9688 41.6142C21.8505 41.5881 21.7149 41.3214 21.7585 41.1245C21.8561 40.6839 22.0142 40.3309 22.228 40.0502C22.2628 39.8685 22.3712 39.7595 22.3832 39.6101C22.3998 39.4012 22.1904 39.3742 22.1431 39.6148C22.1061 39.5505 22.0899 39.4629 22.0948 39.352C21.8936 39.3495 21.7249 39.5159 21.6094 39.9573L21.5778 39.8936C21.6085 39.6545 21.6871 39.4584 21.7992 39.2925L21.7299 39.2205C21.5992 39.4588 21.5436 39.8089 21.3852 40.0605C21.2977 40.1997 21.1934 40.1815 21.1119 40.0486L21.4462 39.4125L21.3683 39.3316C21.2437 39.6059 21.1084 39.8585 20.9601 40.0831C20.8237 40.2897 20.7066 40.0869 20.7522 39.9911C20.8549 39.7757 20.9948 39.6385 21.1355 39.517L21.0861 39.4127C20.9368 39.5405 20.8073 39.7067 20.6914 39.8978C20.585 39.738 20.601 39.5994 20.7078 39.5065C20.8639 39.3708 21.0479 39.3039 21.2348 39.245L21.2106 39.1227L20.6415 39.4019C20.5891 39.2547 20.6207 39.1424 20.7256 39.0812C20.8349 39.0175 20.9592 38.9993 21.0877 38.9889V38.8643L20.7416 38.9323C20.7374 38.8221 20.7988 38.7356 20.8807 38.7443L21.2492 38.7834L21.2525 38.6588L20.9065 38.6612C20.9456 38.4974 21.0449 38.4114 21.1976 38.3934C21.4455 38.4258 21.5763 38.5696 21.7656 38.6577C21.9471 38.675 22.1659 38.5787 22.2166 38.4141C22.2899 38.1763 22.2287 37.79 22.104 37.6071L22.2751 37.0525L22.1999 36.988L22.0269 37.5417C21.922 37.698 21.8414 37.7501 21.7926 37.6663L21.98 37.1011L21.9039 37.0524L21.7008 37.5955C21.5896 37.8929 21.3585 37.7763 21.356 37.5944L21.705 36.8632L21.6394 36.7901L21.2758 37.5142C21.16 37.7449 20.9701 37.7281 20.9631 37.5893L21.3661 36.7674L21.2954 36.6969L20.8918 37.492C20.7902 37.6922 20.6376 37.636 20.6133 37.5235L21.1366 36.6113L21.0636 36.5256L20.5475 37.3946C20.3652 37.7017 20.1748 37.7108 20.1622 37.5236L20.6744 36.564L20.6027 36.4888L20.0674 37.4784C20.0163 37.573 19.9074 37.5942 19.8536 37.4932L20.2897 36.5934L20.2218 36.5228L19.7344 37.4985L19.7302 37.5066L19.7236 37.0404V37.0403C19.8014 36.9786 19.8541 36.8602 19.8541 36.7241C19.8541 36.7087 19.8534 36.6935 19.8521 36.6786L19.9699 36.4269L19.893 36.3432L19.8106 36.5209C19.765 36.4253 19.6882 36.3625 19.601 36.3625C19.4611 36.3625 19.3477 36.5243 19.3477 36.7241C19.3477 36.8631 19.4026 36.9837 19.4832 37.0441L19.4747 37.2447L19.3442 37.5258C19.1948 37.8479 19.0061 37.955 18.8929 37.7643L19.3572 36.977L19.2904 36.9003C19.0818 37.2619 18.8686 37.6145 18.6329 37.9246C18.4997 38.1269 18.3617 38.0494 18.4101 37.9677L18.9939 36.9837L18.9371 36.9055L18.3138 37.9193C18.2301 38.0179 18.1398 38.1014 18.0398 38.1647C17.888 38.2608 17.8111 38.1415 17.8518 38.0575L18.8559 36.7708L18.8144 36.6926C18.4815 37.0817 18.1525 37.502 17.826 37.9413L17.8217 37.8809C17.7232 38.0233 17.6186 38.1594 17.4979 38.267C17.4572 38.3031 17.4194 38.3313 17.3854 38.3477L16.5467 39.6883H10.9492L19.892 24.072H19.8921ZM27.6183 36.7585L22.999 29.3753L18.3798 36.7585C18.4591 36.6766 18.5387 36.5947 18.6187 36.5129C19.1056 36.0133 19.62 35.5351 20.1524 35.0461C20.4835 34.742 20.7931 34.4638 21.123 34.3665C21.3377 34.3032 21.479 34.5702 21.45 34.8879C21.4324 35.0795 21.3454 35.1667 21.413 35.4513C21.4581 35.6408 21.6093 35.7261 21.7958 35.6498C21.9364 35.5922 22.0548 35.4606 22.1353 35.2684C22.2098 35.0903 22.1978 34.9019 22.1046 34.7607C21.9498 34.5258 21.7568 34.3631 21.5538 34.2246C21.4078 34.1249 21.343 33.9817 21.3372 33.8225C21.3309 33.6508 21.3754 33.5416 21.492 33.5439L22.0945 33.5554L22.062 33.6404C22.448 33.8715 22.7585 34.4024 22.9989 35.2119C23.2392 34.4023 23.5498 33.8715 23.9358 33.6404L23.9033 33.5554L24.5058 33.5439C24.6224 33.5416 24.667 33.6508 24.6607 33.8225C24.6549 33.9817 24.5901 34.1249 24.444 34.2246C24.241 34.3631 24.0481 34.5258 23.8932 34.7607C23.8 34.9019 23.788 35.0903 23.8625 35.2684C23.943 35.4604 24.0614 35.5921 24.202 35.6498C24.3886 35.7261 24.5397 35.6408 24.5847 35.4513C24.6524 35.1667 24.5654 35.0795 24.5479 34.8879C24.5188 34.5702 24.6601 34.3032 24.8749 34.3665C25.2049 34.4637 25.5145 34.742 25.8455 35.0461C26.378 35.5351 26.8922 36.0133 27.3793 36.5129C27.4591 36.5947 27.5389 36.6766 27.6181 36.7585H27.6183ZM26.2578 38.3855C26.3701 38.243 26.3643 37.906 26.2491 37.8835C26.1327 37.9229 26.147 38.2849 26.2578 38.3855ZM26.6869 39.701C26.5995 39.5964 26.5051 39.5897 26.4042 39.6687C26.3527 39.5865 26.2889 39.5774 26.2103 39.6548C26.0829 39.6194 25.9995 39.6777 25.9502 39.8093C25.7961 39.6438 25.7157 39.4015 25.7681 39.0854C25.8268 38.7314 25.9971 38.5248 26.2641 38.5285C26.5171 38.532 26.71 38.7002 26.7787 39.0985C26.8137 39.3009 26.7859 39.5053 26.6868 39.7009L26.6869 39.701ZM26.4575 39.7724C26.5782 39.6978 26.6387 39.7553 26.645 39.9315C26.6426 40.0071 26.6143 40.065 26.5593 40.1044L26.4445 40.0814C26.4549 39.9958 26.4597 39.8941 26.4574 39.7724H26.4575ZM26.2661 39.7677C26.2726 39.7128 26.3541 39.7136 26.363 39.793C26.3803 39.9481 26.3476 40.1001 26.3049 40.2379L26.1385 40.4546L26.0028 40.4338C26.156 40.267 26.2331 40.0435 26.2661 39.7676V39.7677ZM25.8073 40.3186L25.8945 40.39C26.0532 40.2589 26.1452 40.0519 26.1756 39.7745C26.1053 39.7348 26.0481 39.7812 26.0237 39.8898C25.9887 40.0461 25.9317 40.1948 25.8073 40.3186ZM25.4581 39.6903C25.463 39.8162 25.4431 39.9179 25.3857 39.9825L25.7291 40.244C25.8062 40.1743 25.8774 40.0904 25.9092 39.9669C25.9205 39.9231 25.8961 39.8889 25.8635 39.8977C25.7251 39.9352 25.5916 39.8423 25.4581 39.6902V39.6903ZM20.4472 39.2742C20.4625 39.3569 20.5338 39.4251 20.6597 39.4792L20.5515 39.6169C20.407 39.6062 20.2547 39.6372 20.099 39.687C20.0282 39.744 19.9621 39.7861 19.9041 39.7994L19.8274 39.9904L19.7802 39.7152C19.8198 39.6109 19.8058 39.5218 19.7632 39.441L19.7665 38.8387C19.8287 38.9327 19.8612 39.0688 19.8629 39.2488C19.9098 39.3459 19.9864 39.4111 20.1109 39.4258C20.2177 39.3875 20.328 39.3409 20.4473 39.2741L20.4472 39.2742ZM19.7075 39.8282C19.7329 39.9566 19.7262 40.0892 19.6823 40.2267L19.5515 40.1934L19.5224 40.0481L19.7075 39.8281V39.8282ZM19.6958 39.553C19.7117 39.5817 19.713 39.6172 19.6998 39.6595L19.4109 40.0109L19.3004 39.9141L19.3062 39.8159L19.6958 39.5531V39.553ZM19.6136 39.2971C19.6635 39.319 19.6831 39.3599 19.6688 39.4216L19.2706 39.6913C19.2471 39.7072 19.2345 39.5073 19.2744 39.4851L19.6137 39.297L19.6136 39.2971ZM19.4756 39.0371C19.5385 39.0097 19.6154 39.1465 19.5707 39.1716L19.241 39.3575C19.2214 39.3685 19.2 39.3127 19.2188 39.2836C19.2889 39.1749 19.3703 39.0828 19.4756 39.0371ZM19.666 39.0565L19.6311 37.0901H19.566L19.5357 38.9247L19.666 39.0565ZM19.7675 36.7241C19.7675 36.8553 19.693 36.9617 19.601 36.9617C19.509 36.9617 19.4345 36.8553 19.4345 36.7241C19.4345 36.5928 19.509 36.4864 19.601 36.4864C19.693 36.4864 19.7675 36.5928 19.7675 36.7241ZM22.4477 31.3118C22.2172 31.3515 22.0348 31.5326 22.0344 31.8284C22.0337 32.3134 22.1422 32.6251 22.3005 32.8284C22.4163 32.7633 22.545 32.7257 22.6837 32.7095L22.4477 31.3118ZM21.2469 33.7232C21.2305 33.8248 21.2544 33.9503 21.3094 34.0943C21.1729 34.0458 21.0364 34.012 20.9 33.989C20.9973 33.8321 21.1109 33.7357 21.2469 33.7232ZM22.999 35.4872C22.8476 35.8795 22.6238 36.1283 22.3045 36.1877C22.3072 36.6199 22.3626 37.0048 22.4825 37.3347C22.6097 37.6849 22.7834 37.9539 22.999 38.1239C23.2147 37.9539 23.3884 37.6849 23.5156 37.3347C23.6355 37.0047 23.6908 36.6199 23.6935 36.1877C23.3743 36.1283 23.1505 35.8794 22.999 35.4872ZM19.4786 37.4774L19.4063 37.6317C19.4278 37.6592 19.4537 37.6751 19.4819 37.6808L19.4786 37.4772V37.4774ZM22.999 38.2768C22.7349 38.0639 22.5117 37.7563 22.3759 37.3119C22.2346 36.8486 22.2047 36.427 22.2088 36.0423C22.6118 36.0111 22.8467 35.6842 22.999 35.212C23.1514 35.6842 23.3863 36.0111 23.7893 36.0423C23.7934 36.427 23.7635 36.8486 23.6221 37.3119C23.4865 37.7563 23.2632 38.064 22.999 38.2768ZM22.999 32.8132C22.7848 32.8132 22.554 32.857 22.342 32.9428L22.3374 33.2119L22.999 33.2457L23.6607 33.2119L23.6559 32.9428C23.444 32.8571 23.2131 32.8132 22.9989 32.8132H22.999ZM22.0389 32.6805L22.0002 33.4205L22.1067 33.4337C22.1454 33.3506 22.1883 33.2745 22.2379 33.2091L22.241 32.9229C22.1836 32.8509 22.1293 32.7713 22.0799 32.6793L22.0389 32.6805ZM21.792 32.6805L21.8337 33.4139L21.9109 33.4182L21.9495 32.6762L21.792 32.6805ZM21.7035 32.704L21.7428 33.4119L21.5198 33.4075C21.4562 33.2619 21.4125 33.1097 21.4185 32.9775C21.4281 32.7663 21.544 32.7019 21.7035 32.7041V32.704ZM22.999 31.0164C22.9238 31.0109 22.8734 31.073 22.8763 31.1584C22.8789 31.237 22.9143 31.3247 22.9604 31.3912H22.7778L22.8984 32.6874H22.9992H23.0999L23.2206 31.3912H23.038C23.0841 31.3247 23.1194 31.237 23.1221 31.1584C23.1249 31.073 23.0744 31.0109 22.9993 31.0164H22.999ZM22.6743 31.2311H22.5489L22.7653 32.6908L22.8086 32.6886L22.6743 31.2311ZM24.7512 33.7232C24.7674 33.8248 24.7437 33.9503 24.6887 34.0943C24.8252 34.0458 24.9616 34.012 25.0981 33.989C25.0008 33.8321 24.8872 33.7357 24.7512 33.7232ZM23.9592 32.6805L23.9979 33.4205L23.8914 33.4337C23.8527 33.3506 23.8097 33.2745 23.7602 33.2091L23.7571 32.9229C23.8145 32.8509 23.8688 32.7713 23.9182 32.6793L23.9591 32.6805H23.9592ZM24.2061 32.6805L24.1644 33.4139L24.0872 33.4182L24.0486 32.6762L24.2059 32.6805H24.2061ZM24.2946 32.704L24.2554 33.4119L24.4784 33.4075C24.542 33.2619 24.5857 33.1097 24.5797 32.9775C24.5701 32.7663 24.4542 32.7019 24.2947 32.7041L24.2946 32.704ZM23.3238 31.231H23.4493L23.2329 32.6907L23.1897 32.6885L23.3238 31.231ZM17.2468 9.66459L17.3657 9.86071C17.4803 9.90709 17.5613 10.0195 17.5613 10.1508C17.5613 10.161 17.5607 10.1711 17.5598 10.181L17.6788 10.3773C17.7145 10.3097 17.7347 10.2325 17.7347 10.1508C17.7347 9.88233 17.5171 9.66459 17.2487 9.66459H17.2468ZM18.6536 11.9859L18.7363 12.1222C19.9138 11.4082 21.3136 11.0124 22.9992 11.0262C24.6848 11.0124 26.0845 11.4082 27.262 12.1222L27.3447 11.9859C26.2023 11.2739 24.7782 10.8744 22.9992 10.8683C21.2202 10.8744 19.7961 11.2739 18.6536 11.9859ZM19.2898 13.0357L19.387 13.196C20.0586 12.6756 21.2474 12.3964 22.9992 12.3795C24.7509 12.3966 25.9397 12.6758 26.6113 13.196L26.7085 13.0357C25.7033 12.4534 24.4577 12.2007 22.9993 12.24C21.5407 12.2006 20.2952 12.4534 19.2901 13.0357H19.2898ZM19.8293 13.9259L22.9992 19.1563L26.169 13.9259C25.4939 14.2404 24.4233 14.3944 22.9992 14.4053C21.5752 14.3945 20.5044 14.2404 19.8293 13.9259ZM28.3194 10.3773L28.4384 10.181C28.4375 10.1711 28.437 10.161 28.437 10.1508C28.437 10.0195 28.5179 9.90709 28.6326 9.86071L28.7514 9.66459H28.7495C28.4811 9.66459 28.2635 9.8822 28.2635 10.1508C28.2635 10.2327 28.2837 10.3097 28.3194 10.3773ZM23.0007 7.3821L22.9975 7.3783C22.8807 7.3783 22.7876 7.46188 22.7652 7.56512C22.7413 7.67491 22.7791 7.78771 22.8103 7.89723L22.7664 7.91702C22.7276 7.82308 22.6785 7.75168 22.6177 7.71054C22.5143 7.64058 22.3946 7.61988 22.2909 7.68696C22.1144 7.80133 22.08 7.98606 22.1104 8.18088L22.6558 8.5557L22.6629 8.55229C22.7404 8.45168 22.8621 8.38696 22.9989 8.38696C23.1358 8.38696 23.2574 8.45168 23.335 8.55229L23.342 8.5557L23.8874 8.18088C23.9178 7.98606 23.8834 7.80133 23.7069 7.68696C23.6033 7.61988 23.4835 7.64058 23.3802 7.71054C23.3194 7.75168 23.2704 7.82308 23.2315 7.91702L23.1876 7.89723C23.2187 7.78771 23.2566 7.67491 23.2326 7.56512C23.2102 7.46188 23.1171 7.3783 23.0004 7.3783V7.3821H23.0007ZM22.999 7.15138C22.8858 7.15138 22.7943 7.05968 22.7943 6.94661C22.7943 6.83342 22.886 6.74171 22.999 6.74171C23.1122 6.74171 23.2038 6.83342 23.2038 6.94661C23.2038 7.05968 23.1121 7.15138 22.999 7.15138ZM22.999 6.51231C22.9047 6.51231 22.8282 6.4358 22.8282 6.34147C22.8282 6.24714 22.9046 6.17063 22.999 6.17063C23.0934 6.17063 23.1699 6.24714 23.1699 6.34147C23.1699 6.4358 23.0935 6.51231 22.999 6.51231ZM22.999 5.88974C22.9144 5.88974 22.8458 5.82109 22.8458 5.73645C22.8458 5.65182 22.9144 5.58317 22.999 5.58317C23.0837 5.58317 23.1523 5.65182 23.1523 5.73645C23.1523 5.82109 23.0837 5.88974 22.999 5.88974ZM21.2458 5.91529C21.3293 5.91529 21.3969 5.98289 21.3969 6.06634C21.3969 6.1498 21.3293 6.2174 21.2458 6.2174C21.1624 6.2174 21.0948 6.1498 21.0948 6.06634C21.0948 5.98289 21.1624 5.91529 21.2458 5.91529ZM20.7528 6.36819C20.8363 6.36819 20.9039 6.4358 20.9039 6.51925C20.9039 6.60271 20.8363 6.67031 20.7528 6.67031C20.6694 6.67031 20.6018 6.60271 20.6018 6.51925C20.6018 6.4358 20.6694 6.36819 20.7528 6.36819ZM20.3897 6.8591C20.4731 6.8591 20.5407 6.9267 20.5407 7.01015C20.5407 7.09361 20.4731 7.16121 20.3897 7.16121C20.3062 7.16121 20.2386 7.09361 20.2386 7.01015C20.2386 6.9267 20.3062 6.8591 20.3897 6.8591ZM20.1143 7.44865C20.1977 7.44865 20.2653 7.51625 20.2653 7.59971C20.2653 7.68316 20.1977 7.75076 20.1143 7.75076C20.0308 7.75076 19.9632 7.68316 19.9632 7.59971C19.9632 7.51625 20.0308 7.44865 20.1143 7.44865ZM19.9651 8.07096C20.0485 8.07096 20.1161 8.13856 20.1161 8.22201C20.1161 8.30547 20.0485 8.37307 19.9651 8.37307C19.8816 8.37307 19.814 8.30547 19.814 8.22201C19.814 8.13856 19.8816 8.07096 19.9651 8.07096ZM18.0574 8.3618C18.1409 8.3618 18.2085 8.4294 18.2085 8.51286C18.2085 8.59631 18.1409 8.66392 18.0574 8.66392C17.9739 8.66392 17.9063 8.59631 17.9063 8.51286C17.9063 8.4294 17.9739 8.3618 18.0574 8.3618ZM18.248 7.78221C18.3315 7.78221 18.3991 7.84981 18.3991 7.93326C18.3991 8.01672 18.3315 8.08432 18.248 8.08432C18.1646 8.08432 18.097 8.01672 18.097 7.93326C18.097 7.84981 18.1646 7.78221 18.248 7.78221ZM18.5904 7.24938C18.6738 7.24938 18.7414 7.31698 18.7414 7.40044C18.7414 7.48389 18.6738 7.55149 18.5904 7.55149C18.5069 7.55149 18.4393 7.48389 18.4393 7.40044C18.4393 7.31698 18.5069 7.24938 18.5904 7.24938ZM19.0258 6.73044C19.1093 6.73044 19.1769 6.79804 19.1769 6.8815C19.1769 6.96495 19.1093 7.03256 19.0258 7.03256C18.9424 7.03256 18.8748 6.96495 18.8748 6.8815C18.8748 6.79804 18.9424 6.73044 19.0258 6.73044ZM19.5005 6.33924C19.584 6.33924 19.6516 6.40684 19.6516 6.4903C19.6516 6.57375 19.584 6.64135 19.5005 6.64135C19.417 6.64135 19.3494 6.57375 19.3494 6.4903C19.3494 6.40684 19.417 6.33924 19.5005 6.33924ZM20.0065 5.99232C20.0899 5.99232 20.1575 6.05992 20.1575 6.14338C20.1575 6.22683 20.0899 6.29443 20.0065 6.29443C19.923 6.29443 19.8554 6.22683 19.8554 6.14338C19.8554 6.05992 19.923 5.99232 20.0065 5.99232ZM20.6011 5.72624C20.6846 5.72624 20.7522 5.79384 20.7522 5.87729C20.7522 5.96075 20.6846 6.02835 20.6011 6.02835C20.5177 6.02835 20.4501 5.96075 20.4501 5.87729C20.4501 5.79384 20.5177 5.72624 20.6011 5.72624ZM19.9695 7.92855C20.1297 7.92855 20.2598 8.05851 20.2598 8.21887C20.2598 8.37923 20.1299 8.50919 19.9695 8.50919C19.8093 8.50919 19.6792 8.37923 19.6792 8.21887C19.6792 8.05864 19.8092 7.92855 19.9695 7.92855ZM20.1163 7.31122C20.2765 7.31122 20.4066 7.44118 20.4066 7.60154C20.4066 7.7619 20.2766 7.89186 20.1163 7.89186C19.956 7.89186 19.8259 7.7619 19.8259 7.60154C19.8259 7.44131 19.9559 7.31122 20.1163 7.31122ZM22.999 9.08224C22.8493 9.08224 22.7278 8.96079 22.7278 8.81104C22.7278 8.66117 22.8493 8.53985 22.999 8.53985C23.1488 8.53985 23.2702 8.6613 23.2702 8.81104C23.2702 8.96079 23.1488 9.08224 22.999 9.08224ZM19.5681 12.1566L19.6916 12.3754L20.4321 11.9986L20.302 11.7886L19.568 12.1566H19.5681ZM19.3574 12.1023L20.3635 11.5842L20.6478 12.0692L19.6369 12.5951L19.3574 12.1023ZM21.3079 11.5871C21.3881 11.5871 21.4532 11.652 21.4532 11.7323C21.4532 11.8125 21.3881 11.8776 21.3079 11.8776C21.2278 11.8776 21.1626 11.8127 21.1626 11.7323C21.1626 11.6522 21.2278 11.5871 21.3079 11.5871ZM21.3079 11.4478C21.465 11.4478 21.5925 11.5751 21.5925 11.7322C21.5925 11.8893 21.4652 12.0166 21.3079 12.0166C21.1509 12.0166 21.0234 11.8893 21.0234 11.7322C21.0234 11.5751 21.1507 11.4478 21.3079 11.4478ZM22.2321 11.3886H22.999H23.766V11.7765H22.999H22.2321V11.3886ZM17.7819 9.19779C18.0226 8.98699 18.2934 8.94677 18.602 9.11997C18.6952 8.38761 18.9094 7.70268 19.3527 7.11902C19.5502 6.8591 19.7797 6.62812 20.0421 6.42728C20.0331 6.4282 20.024 6.42859 20.0147 6.42859C19.9248 6.42859 19.8445 6.38771 19.7913 6.32365L19.7523 6.34592C19.775 6.38732 19.7879 6.43475 19.7879 6.48532C19.7879 6.64568 19.658 6.77564 19.4976 6.77564C19.4055 6.77564 19.3235 6.7328 19.2703 6.66585L19.2487 6.68223C19.2956 6.73385 19.3242 6.80224 19.3242 6.87731C19.3242 7.03767 19.1942 7.16763 19.0338 7.16763C18.9415 7.16763 18.8592 7.1244 18.806 7.05719C18.7755 7.08575 18.745 7.1147 18.7147 7.14431C18.8085 7.19239 18.8727 7.29013 18.8727 7.4028C18.8727 7.56315 18.7427 7.69312 18.5824 7.69312C18.4852 7.69312 18.3992 7.6453 18.3465 7.57206C18.3287 7.59787 18.3114 7.62394 18.2945 7.65015C18.4313 7.6736 18.5355 7.79282 18.5355 7.93628C18.5355 8.09664 18.4055 8.2266 18.2451 8.2266C18.1665 8.2266 18.0953 8.19529 18.043 8.14458C18.0328 8.17039 18.0228 8.19633 18.0131 8.22241C18.0211 8.22175 18.0291 8.22136 18.0372 8.22136C18.1975 8.22136 18.3275 8.35132 18.3275 8.51168C18.3275 8.67204 18.1976 8.802 18.0372 8.802C17.9716 8.802 17.9111 8.78026 17.8625 8.74344C17.8296 8.89214 17.8032 9.04398 17.7818 9.19845L17.7819 9.19779ZM20.2781 6.26063C20.342 6.21897 20.4076 6.17888 20.4751 6.1405C20.4333 6.12006 20.3971 6.08979 20.3696 6.05272C20.346 6.06163 20.3226 6.07067 20.2993 6.07997C20.3031 6.0987 20.3052 6.11822 20.3052 6.13827C20.3052 6.18203 20.2955 6.22343 20.2782 6.26063H20.2781ZM19.8414 8.49779L19.5001 9.00573C19.484 8.3225 19.6227 7.65421 20.1184 6.93469C20.1106 6.96089 20.1064 6.98867 20.1064 7.01736C20.1064 7.17772 20.2364 7.30768 20.3968 7.30768C20.557 7.30768 20.6871 7.17772 20.6871 7.01736C20.6871 6.85713 20.5571 6.72704 20.3968 6.72704C20.3348 6.72704 20.2774 6.74643 20.2302 6.77957C20.2857 6.70594 20.3449 6.63179 20.408 6.55698C20.4223 6.54008 20.4368 6.52331 20.4514 6.50694C20.4511 6.51244 20.4509 6.51807 20.4509 6.52357C20.4509 6.68393 20.5808 6.8139 20.7412 6.8139C20.9014 6.8139 21.0315 6.68393 21.0315 6.52357C21.0315 6.36335 20.9015 6.23325 20.7412 6.23325H20.7378C20.8073 6.17705 20.8799 6.12504 20.9559 6.07695C20.9617 6.2322 21.0894 6.35614 21.246 6.35614C21.4062 6.35614 21.5363 6.22618 21.5363 6.06582C21.5363 5.97725 21.4966 5.89786 21.434 5.84454C21.4555 5.83681 21.4772 5.82934 21.4991 5.82214C21.5267 5.95354 21.6435 6.05232 21.7831 6.05232C21.9433 6.05232 22.0734 5.92236 22.0734 5.762C22.0734 5.73934 22.0708 5.7172 22.0658 5.6961C22.2351 5.67449 22.4139 5.66414 22.6031 5.66545L22.6059 5.71287C21.8716 5.96848 21.3858 6.40016 21.0767 6.96613C20.7042 7.64818 20.5495 8.30206 20.5031 8.9621L19.8415 8.4974L19.8414 8.49779ZM19.3772 9.53292L19.8697 8.71147L20.6366 9.26054L20.1896 9.96853L19.3772 9.53292ZM22.8874 9.22045C22.8615 9.65725 22.6529 9.94469 22.1924 10.026C22.022 9.87709 22.0116 9.67323 22.129 9.42536C21.739 9.51379 21.5148 9.4268 21.4894 9.15312C21.4684 8.92791 21.6017 8.78825 21.8725 8.7403C21.7535 8.5257 21.7688 8.36285 22.0094 8.28647L22.5864 8.68331L22.5917 8.69261C22.5809 8.73021 22.575 8.77004 22.575 8.81117C22.575 9.00677 22.7074 9.17146 22.8876 9.22045H22.8874ZM22.6143 7.50957C22.5389 7.4776 22.4653 7.46909 22.394 7.49018C22.4198 6.9605 22.4882 6.42466 22.6128 5.88083L22.6864 5.81899C22.7229 5.92223 22.8089 6.00189 22.916 6.02953C22.773 6.06634 22.6676 6.19618 22.6676 6.35051C22.6676 6.47615 22.7375 6.58554 22.8406 6.64175C22.7309 6.699 22.6558 6.8139 22.6558 6.94635C22.6558 7.07448 22.7261 7.18623 22.8303 7.24519C22.7234 7.29563 22.6428 7.39245 22.6143 7.50957ZM22.999 11.2363H22.0658V11.9289H22.999H23.9322V11.2363H22.999ZM24.7522 5.91502C24.6688 5.91502 24.6012 5.98263 24.6012 6.06608C24.6012 6.14954 24.6688 6.21714 24.7522 6.21714C24.8357 6.21714 24.9033 6.14954 24.9033 6.06608C24.9033 5.98263 24.8357 5.91502 24.7522 5.91502ZM25.2452 6.36793C25.1618 6.36793 25.0942 6.43553 25.0942 6.51899C25.0942 6.60244 25.1618 6.67005 25.2452 6.67005C25.3287 6.67005 25.3963 6.60244 25.3963 6.51899C25.3963 6.43553 25.3287 6.36793 25.2452 6.36793ZM25.6084 6.85883C25.525 6.85883 25.4573 6.92644 25.4573 7.00989C25.4573 7.09335 25.525 7.16095 25.6084 7.16095C25.6919 7.16095 25.7595 7.09335 25.7595 7.00989C25.7595 6.92644 25.6919 6.85883 25.6084 6.85883ZM25.8838 7.44839C25.8003 7.44839 25.7327 7.51599 25.7327 7.59944C25.7327 7.6829 25.8003 7.7505 25.8838 7.7505C25.9672 7.7505 26.0348 7.6829 26.0348 7.59944C26.0348 7.51599 25.9672 7.44839 25.8838 7.44839ZM26.033 8.07069C25.9496 8.07069 25.882 8.1383 25.882 8.22175C25.882 8.30521 25.9496 8.37281 26.033 8.37281C26.1165 8.37281 26.1841 8.30521 26.1841 8.22175C26.1841 8.1383 26.1165 8.07069 26.033 8.07069ZM27.9407 8.36154C27.8572 8.36154 27.7896 8.42914 27.7896 8.5126C27.7896 8.59605 27.8572 8.66365 27.9407 8.66365C28.0241 8.66365 28.0917 8.59605 28.0917 8.5126C28.0917 8.42914 28.0241 8.36154 27.9407 8.36154ZM27.7501 7.78194C27.6666 7.78194 27.599 7.84955 27.599 7.933C27.599 8.01646 27.6666 8.08406 27.7501 8.08406C27.8335 8.08406 27.9011 8.01646 27.9011 7.933C27.9011 7.84955 27.8335 7.78194 27.7501 7.78194ZM27.4077 7.24912C27.3243 7.24912 27.2567 7.31672 27.2567 7.40018C27.2567 7.48363 27.3243 7.55123 27.4077 7.55123C27.4912 7.55123 27.5588 7.48363 27.5588 7.40018C27.5588 7.31672 27.4912 7.24912 27.4077 7.24912ZM26.9722 6.73018C26.8888 6.73018 26.8212 6.79778 26.8212 6.88124C26.8212 6.96469 26.8888 7.03229 26.9722 7.03229C27.0557 7.03229 27.1233 6.96469 27.1233 6.88124C27.1233 6.79778 27.0557 6.73018 26.9722 6.73018ZM26.4976 6.33898C26.4141 6.33898 26.3465 6.40658 26.3465 6.49004C26.3465 6.57349 26.4141 6.64109 26.4976 6.64109C26.581 6.64109 26.6486 6.57349 26.6486 6.49004C26.6486 6.40658 26.581 6.33898 26.4976 6.33898ZM25.9916 5.99206C25.9082 5.99206 25.8406 6.05966 25.8406 6.14312C25.8406 6.22657 25.9082 6.29417 25.9916 6.29417C26.0751 6.29417 26.1427 6.22657 26.1427 6.14312C26.1427 6.05966 26.0751 5.99206 25.9916 5.99206ZM25.397 5.72597C25.3135 5.72597 25.2459 5.79358 25.2459 5.87703C25.2459 5.96049 25.3135 6.02809 25.397 6.02809C25.4804 6.02809 25.548 5.96049 25.548 5.87703C25.548 5.79358 25.4804 5.72597 25.397 5.72597ZM26.0286 7.92828C25.8683 7.92828 25.7382 8.05825 25.7382 8.21861C25.7382 8.37897 25.8682 8.50893 26.0286 8.50893C26.1888 8.50893 26.3189 8.37897 26.3189 8.21861C26.3189 8.05838 26.1889 7.92828 26.0286 7.92828ZM25.8818 7.31096C25.7216 7.31096 25.5915 7.44092 25.5915 7.60128C25.5915 7.76164 25.7215 7.8916 25.8818 7.8916C26.0421 7.8916 26.1721 7.76164 26.1721 7.60128C26.1721 7.44105 26.0422 7.31096 25.8818 7.31096ZM26.4299 12.1563L26.3063 12.3751L25.5658 11.9983L25.6959 11.7883L26.43 12.1563H26.4299ZM26.6405 12.1021L25.6345 11.5839L25.3502 12.0689L26.3611 12.5948L26.6405 12.1021ZM24.69 11.5868C24.6098 11.5868 24.5447 11.6518 24.5447 11.7321C24.5447 11.8123 24.6098 11.8774 24.69 11.8774C24.7702 11.8774 24.8353 11.8124 24.8353 11.7321C24.8353 11.6519 24.7702 11.5868 24.69 11.5868ZM24.69 11.4475C24.5329 11.4475 24.4055 11.5749 24.4055 11.732C24.4055 11.889 24.5328 12.0164 24.69 12.0164C24.8471 12.0164 24.9746 11.889 24.9746 11.732C24.9746 11.5749 24.8472 11.4475 24.69 11.4475ZM28.2161 9.19753C27.9754 8.98673 27.7046 8.94651 27.3959 9.11971C27.3028 8.38735 27.0886 7.70242 26.6452 7.11876C26.4478 6.85883 26.2183 6.62786 25.9558 6.42702C25.9649 6.42794 25.9739 6.42833 25.9832 6.42833C26.0731 6.42833 26.1534 6.38745 26.2066 6.32339L26.2456 6.34566C26.223 6.38706 26.21 6.43449 26.21 6.48506C26.21 6.64542 26.34 6.77538 26.5003 6.77538C26.5924 6.77538 26.6745 6.73254 26.7276 6.66559L26.7493 6.68197C26.7024 6.73359 26.6738 6.80197 26.6738 6.87704C26.6738 7.0374 26.8038 7.16737 26.9641 7.16737C27.0565 7.16737 27.1388 7.12413 27.1919 7.05692C27.2225 7.08549 27.253 7.11444 27.2833 7.14405C27.1895 7.19213 27.1253 7.28986 27.1253 7.40253C27.1253 7.56289 27.2552 7.69286 27.4156 7.69286C27.5128 7.69286 27.5987 7.64504 27.6514 7.5718C27.6692 7.59761 27.6865 7.62368 27.7034 7.64988C27.5666 7.67333 27.4625 7.79256 27.4625 7.93601C27.4625 8.09637 27.5924 8.22634 27.7528 8.22634C27.8314 8.22634 27.9027 8.19503 27.955 8.14432C27.9652 8.17013 27.9751 8.19607 27.9848 8.22214C27.9768 8.22149 27.9688 8.2211 27.9607 8.2211C27.8005 8.2211 27.6704 8.35106 27.6704 8.51142C27.6704 8.67178 27.8004 8.80174 27.9607 8.80174C28.0264 8.80174 28.0869 8.77999 28.1355 8.74318C28.1684 8.89188 28.1947 9.04372 28.2162 9.19818L28.2161 9.19753ZM25.7199 6.26037C25.656 6.21871 25.5903 6.17862 25.5229 6.14023C25.5646 6.1198 25.6008 6.08953 25.6283 6.05246C25.6519 6.06136 25.6754 6.0704 25.6987 6.07971C25.6949 6.09844 25.6928 6.11796 25.6928 6.13801C25.6928 6.18176 25.7025 6.22316 25.7198 6.26037H25.7199ZM26.1566 8.49753L26.4978 9.00546C26.514 8.32224 26.3752 7.65395 25.8796 6.93443C25.8873 6.96063 25.8915 6.9884 25.8915 7.0171C25.8915 7.17745 25.7616 7.30742 25.6012 7.30742C25.441 7.30742 25.3109 7.17745 25.3109 7.0171C25.3109 6.85687 25.4408 6.72677 25.6012 6.72677C25.6632 6.72677 25.7206 6.74616 25.7677 6.77931C25.7123 6.70568 25.6531 6.63153 25.5899 6.55672C25.5757 6.53982 25.5611 6.52305 25.5466 6.50667C25.5468 6.51218 25.5471 6.51781 25.5471 6.52331C25.5471 6.68367 25.4171 6.81364 25.2568 6.81364C25.0965 6.81364 24.9664 6.68367 24.9664 6.52331C24.9664 6.36308 25.0964 6.23299 25.2568 6.23299H25.2602C25.1906 6.17679 25.118 6.12477 25.042 6.07669C25.0363 6.23194 24.9085 6.35588 24.752 6.35588C24.5918 6.35588 24.4617 6.22592 24.4617 6.06556C24.4617 5.97699 24.5014 5.8976 24.564 5.84428C24.5425 5.83655 24.5207 5.82908 24.4989 5.82187C24.4712 5.95328 24.3545 6.05206 24.2148 6.05206C24.0546 6.05206 23.9245 5.9221 23.9245 5.76174C23.9245 5.73908 23.9271 5.71693 23.9321 5.69584C23.7628 5.67422 23.584 5.66387 23.3948 5.66518L23.3921 5.71261C24.1264 5.96821 24.6122 6.3999 24.9212 6.96587C25.2937 7.64792 25.4484 8.3018 25.4948 8.96184L26.1564 8.49714L26.1566 8.49753ZM26.6207 9.53266L26.1283 8.71121L25.3613 9.26028L25.8083 9.96827L26.6207 9.53266ZM23.1105 9.22019C23.1365 9.65699 23.345 9.94443 23.8056 10.0258C23.976 9.87683 23.9863 9.67297 23.869 9.4251C24.259 9.51353 24.4831 9.42654 24.5086 9.15285C24.5295 8.92764 24.3963 8.78798 24.1255 8.74003C24.2444 8.52544 24.2291 8.36259 23.9886 8.28621L23.4116 8.68304L23.4062 8.69235C23.4171 8.72995 23.423 8.76977 23.423 8.81091C23.423 9.00651 23.2905 9.1712 23.1104 9.22019H23.1105ZM23.3837 7.50931C23.459 7.47734 23.5327 7.46883 23.6039 7.48992C23.5781 6.96024 23.5097 6.4244 23.3851 5.88057L23.3115 5.81873C23.2751 5.92197 23.189 6.00162 23.082 6.02927C23.2249 6.06608 23.3304 6.19591 23.3304 6.35025C23.3304 6.47589 23.2604 6.58528 23.1573 6.64149C23.2671 6.69874 23.3422 6.81363 23.3422 6.94609C23.3422 7.07422 23.2718 7.18597 23.1677 7.24493C23.2746 7.29537 23.3551 7.39218 23.3837 7.50931Z" clip-rule="evenodd"/><path fill="#fff" fill-rule="evenodd" d="M23 19.527L16.471 8.75391H11.4831L20.1137 24.073L11.2812 39.4966H16.4414L23 29.0137L29.5585 39.4966H34.7186L25.8863 24.073L34.5169 8.75391H29.5289L23 19.527Z" clip-rule="evenodd"/><path fill="#171717" fill-rule="evenodd" d="M23.0001 20.4759L16.2305 9.21449L12.2566 9.20898L20.6436 24.0732L12.0273 39.1258H16.1512L23.0001 27.9214L29.8489 39.1258H33.9728L25.3565 24.0732L33.7435 9.20898L29.7696 9.21449L23.0001 20.4759Z" clip-rule="evenodd"/><path fill="#fff" fill-rule="evenodd" d="M22.9988 21.8332L19.0789 15.334H16.5611L21.4681 24.0861L16.4648 32.8323H19.1485L22.9988 26.6243L26.849 32.8323H29.5326L24.5295 24.0861L29.4363 15.334H26.9185L22.9988 21.8332Z" clip-rule="evenodd"/><path fill="#171717" fill-rule="evenodd" d="M22.9984 22.8034L20.7452 19.0879H19.3151L22.1 24.0895L19.2734 29.066H20.7761L22.9984 25.5548L25.2205 29.066H26.7232L23.8966 24.0895L26.6815 19.0879H25.2514L22.9984 22.8034Z" clip-rule="evenodd"/><path fill="#fff" fill-rule="evenodd" d="M39.9599 25.0168C39.9122 25.4118 39.695 25.7241 39.3399 25.7248C38.7579 25.7258 38.3837 25.5402 38.1396 25.269C38.2178 25.0705 38.2629 24.8502 38.2824 24.6126L39.9598 25.0168H39.9599ZM29.9045 28.2846C29.7533 28.2929 29.6314 28.259 29.5537 28.1607L29.24 28.7488C29.3237 28.881 29.4243 29.003 29.5725 29.0575C29.625 29.0767 29.666 29.0351 29.6554 28.9791C29.6105 28.7421 29.722 28.5135 29.9045 28.2848V28.2846ZM29.1505 28.8828L29.0647 29.0322C29.222 29.3039 29.4706 29.4615 29.8035 29.5137C29.8511 29.3934 29.7955 29.2951 29.6651 29.2536C29.4775 29.1937 29.2991 29.096 29.1505 28.8828ZM29.8117 29.6686C29.8775 29.6799 29.8766 29.8194 29.7813 29.8346C29.5951 29.8644 29.4128 29.8083 29.2473 29.7351L28.9872 29.4501L29.0121 29.2177C29.2123 29.4801 29.4806 29.612 29.8117 29.6686ZM29.8061 29.9967C29.8957 30.2034 29.8268 30.3069 29.6152 30.3177C29.5244 30.3137 29.455 30.2653 29.4077 30.1711L29.4353 29.9747C29.538 29.9925 29.66 30.0006 29.8061 29.9968V29.9967ZM29.8919 30.3896C30.0175 30.2401 30.0255 30.0782 29.9307 29.9054C30.0293 29.8172 30.0402 29.7078 29.9473 29.5733C29.9898 29.3553 29.9198 29.2122 29.7619 29.1278C29.9605 28.8638 30.2513 28.7261 30.6307 28.8159C31.0555 28.9164 31.3035 29.2081 31.299 29.6656C31.2946 30.0989 31.0927 30.4292 30.6147 30.5472C30.3717 30.6072 30.1264 30.5595 29.8918 30.3897L29.8919 30.3896ZM31.4706 29.6548C31.6415 29.847 32.0461 29.8371 32.0731 29.6398C32.0258 29.4406 31.5914 29.4649 31.4706 29.6548ZM30.4037 19.7014C30.3046 19.7276 30.2227 19.8497 30.1577 20.0655L29.9925 19.8801C30.0055 19.6326 29.9681 19.3718 29.9083 19.1048C29.8399 18.9838 29.7894 18.8702 29.7735 18.7711L29.5442 18.6395L29.8746 18.5587C29.9998 18.6267 30.1065 18.6026 30.2036 18.5295L30.9264 18.5351C30.8137 18.6415 30.6503 18.6973 30.4341 18.7003C30.3177 18.7805 30.2393 18.912 30.2218 19.1251C30.2678 19.308 30.3237 19.497 30.4037 19.7015V19.7014ZM29.7389 18.4344C29.5848 18.478 29.4256 18.4665 29.2608 18.3911L29.3006 18.167L29.4749 18.1172L29.7389 18.4342V18.4344ZM30.0693 18.4145C30.035 18.4416 29.9924 18.4439 29.9414 18.4211L29.5197 17.9264L29.6359 17.7373L29.7537 17.7472L30.0691 18.4146L30.0693 18.4145ZM30.3764 18.2734C30.35 18.3589 30.3012 18.3924 30.2269 18.3679L29.9032 17.6856C29.8842 17.6455 30.124 17.6241 30.1505 17.6923L30.3762 18.2734H30.3764ZM30.6884 18.0371C30.7212 18.1448 30.5572 18.2766 30.527 18.2001L30.3039 17.6352C30.2907 17.6015 30.3576 17.565 30.3925 17.5972C30.523 17.7173 30.6334 17.8566 30.6884 18.0371ZM30.6651 18.3632L33.0252 18.3036V18.1921L30.8234 18.1402L30.6652 18.3632H30.6651ZM33.4645 18.5373C33.307 18.5373 33.1792 18.4097 33.1792 18.2523C33.1792 18.0948 33.3068 17.9672 33.4645 17.9672C33.6219 17.9672 33.7497 18.0948 33.7497 18.2523C33.7497 18.4097 33.6221 18.5373 33.4645 18.5373ZM39.9599 23.1285C39.9122 22.7335 39.695 22.4212 39.3399 22.4205C38.7579 22.4195 38.3837 22.6051 38.1396 22.8763C38.2178 23.0748 38.2629 23.2952 38.2824 23.5327L39.9598 23.1285H39.9599ZM37.0658 21.0716C36.9439 21.0437 36.7933 21.0843 36.6207 21.1787C36.6788 20.945 36.7193 20.7111 36.7468 20.4774C36.9351 20.6443 37.051 20.8387 37.066 21.0716H37.0658ZM34.9488 24.0729C34.478 23.8135 34.1794 23.4301 34.1081 22.8833C33.5893 22.8877 33.1275 22.9826 32.7314 23.188C32.3112 23.406 31.9885 23.7035 31.7844 24.0729C31.9885 24.4422 32.3112 24.7398 32.7314 24.9577C33.1275 25.1631 33.5893 25.2579 34.1081 25.2624C34.1794 24.7156 34.478 24.3323 34.9488 24.0729ZM37.1651 22.4681L37.2672 22.5238L37.2811 21.4917C37.2837 21.2919 37.1528 21.2156 36.9466 21.2264C36.7557 21.2363 36.5837 21.3473 36.4641 21.5975C36.298 21.9451 36.1026 22.2756 35.8208 22.5408C35.6513 22.7004 35.4252 22.7209 35.2115 22.5933C34.9809 22.4556 34.8229 22.2527 34.7537 22.0119C34.662 21.6924 34.7645 21.4334 34.9919 21.3562C35.3335 21.2403 35.4383 21.3893 35.6681 21.4195C36.0494 21.4694 36.3698 21.2272 36.2939 20.8593C36.1772 20.294 35.8432 19.7637 35.4784 19.1967C34.8914 18.2846 34.3175 17.4038 33.718 16.5695C33.1688 15.8052 32.6215 15.0528 32.0529 14.3404C31.8852 14.2337 31.7067 14.1652 31.6009 14.2084C31.4393 14.2746 31.4825 14.4415 31.6126 14.6498C31.7419 14.8567 31.9051 15.0359 32.0761 15.2045L32.0037 15.2119C32.531 15.7712 33.0353 16.3346 33.5023 16.9049L33.4085 16.9761L31.8643 15.2562C31.7634 15.1865 31.6202 15.3183 31.7356 15.5783C31.8116 15.7494 31.9117 15.904 32.0301 16.0475L33.2468 17.1152L33.153 17.2123L31.972 16.2124C31.8741 16.1295 31.7809 16.3658 32.0237 16.5942C32.3961 16.9976 32.8192 17.3628 33.2533 17.7201L33.161 17.8346L32.2163 17.0394C31.9874 17.2331 32.1161 17.5565 32.5026 17.8123L32.84 18.0358L33.0807 18.0504C33.1533 17.9124 33.2981 17.8184 33.465 17.8184C33.7047 17.8184 33.8989 18.0125 33.8989 18.2521C33.8989 18.4015 33.8234 18.533 33.7088 18.6111L33.9221 18.7523L33.8216 18.8841L33.5196 18.6825C33.5018 18.6847 33.4836 18.6859 33.4651 18.6859C33.3017 18.6859 33.1595 18.5956 33.0854 18.4623L32.5259 18.4734L32.5357 18.4806L33.7067 19.3157L33.6219 19.4319L32.542 18.6847C32.4207 18.7771 32.4462 18.9635 32.5597 19.0512L33.7476 19.9683L33.6573 20.091L32.5056 19.2136C32.2809 19.2351 32.2919 19.5612 32.6604 19.8735L33.7034 20.7576L33.6006 20.8825L32.5058 19.9861C32.3708 20.0273 32.3033 20.289 32.5436 20.463L33.4979 21.1543L33.4134 21.2755L32.427 20.5851C32.2603 20.597 32.2401 20.9225 32.517 21.1209L33.3861 21.7436L33.2983 21.856L32.4208 21.2581C32.2025 21.2624 32.0625 21.6583 32.4195 21.8487L33.0714 22.1965L33.0129 22.3269L32.3345 22.0058C32.2339 22.0895 32.2963 22.2276 32.484 22.4072L33.1485 22.7034L33.0712 22.832L32.4056 22.5391C32.186 22.7528 31.7224 22.8575 31.437 22.7321C31.2395 22.6452 31.1239 22.2705 31.1446 21.9596C31.2503 21.6353 31.4229 21.4114 31.4617 20.9866C31.4403 20.7251 31.3369 20.5549 31.1404 20.4881L31.1432 21.0808L30.9937 21.0753L31.0407 20.4438C31.0512 20.3035 30.9473 20.1982 30.8151 20.2053L30.8967 20.7982H30.7473C30.7348 20.5781 30.7129 20.3651 30.6366 20.1779C30.5632 19.9981 30.4284 19.9442 30.2516 20.0339L30.5868 21.0088L30.44 21.0503C30.3692 20.7301 30.289 20.415 30.1261 20.1475C30.0148 19.9646 29.8484 19.9372 29.6565 20.1193C29.886 20.3182 30.0853 20.5397 30.2388 20.7956L30.1136 20.8801C29.9676 20.6392 29.8029 20.3995 29.5444 20.2236C29.4295 20.1453 29.1863 20.346 29.4341 20.5796C29.7038 20.8337 30.0069 21.0656 30.3361 21.279L30.2389 21.4123L29.4755 20.8397C29.3161 20.9791 29.2942 21.1578 29.4611 21.3079C29.7632 21.5792 30.1834 21.6743 30.4694 21.8985L30.3829 22.0173C30.1838 21.8251 29.9484 21.6904 29.6614 21.6379L29.5851 21.692C30.1147 21.8898 30.3144 22.1787 30.3114 22.5234C30.1783 22.515 30.0732 22.5428 29.996 22.6062C30.2847 22.6871 30.2524 23.0459 30.0017 23.0174C29.8223 22.997 29.6916 22.8112 29.4734 22.7517C29.1363 22.3854 28.7129 22.1146 28.184 21.9473C27.9477 21.8726 27.6275 22.1048 27.5963 22.3076C27.5681 22.49 27.756 22.4716 27.9034 22.4479C28.6318 22.3305 29.0859 22.5588 29.3809 23.0563L29.2434 23.1469C29.0907 22.9076 28.8883 22.6708 28.5829 22.5996C28.383 22.5531 28.1662 22.5774 27.9866 22.6523C28.0092 22.7073 28.0575 22.7549 28.1349 22.7727C28.3685 22.8263 28.6309 22.7925 28.8739 22.8763L28.8585 23.0066C28.5894 22.975 28.3421 22.9428 28.0561 22.9391C28.0106 22.9502 27.972 22.9731 27.9433 23.0126C28.0119 23.0515 28.0657 23.1018 28.1088 23.1604C28.4361 23.1613 28.6821 23.2918 28.8765 23.5045L28.7662 23.5928C28.5989 23.4014 28.3803 23.3017 28.0958 23.3197C28.037 23.4148 27.9004 23.4913 27.6757 23.4002C27.4308 23.3009 27.271 23.2251 27.1461 23.2793L27.429 23.6742L27.2977 23.7559L27.0175 23.362L26.7899 23.3795L27.0671 23.6801C26.5153 23.6573 26.1014 23.7683 25.8867 24.0726C26.1014 24.3769 26.5153 24.488 27.0671 24.4651L26.7899 24.7657L27.0175 24.7832L27.2977 24.3893L27.429 24.471L27.1461 24.8659C27.271 24.9202 27.4308 24.8443 27.6757 24.745C27.9004 24.6539 28.0372 24.7304 28.0958 24.8255C28.3803 24.8435 28.5989 24.7439 28.7662 24.5524L28.8765 24.6407C28.682 24.8534 28.436 24.9839 28.1088 24.9848C28.0657 25.0435 28.0119 25.0938 27.9433 25.1326C27.972 25.1721 28.0106 25.195 28.0561 25.2061C28.342 25.2024 28.5894 25.1702 28.8585 25.1386L28.8739 25.2689C28.6309 25.3527 28.3686 25.3189 28.1349 25.3725C28.0575 25.3903 28.0091 25.4377 27.9866 25.4929C28.1661 25.5678 28.383 25.5922 28.5829 25.5456C28.8883 25.4744 29.0907 25.2374 29.2434 24.9983L29.3809 25.0889C29.0859 25.5864 28.6318 25.8147 27.9034 25.6973C27.7559 25.6736 27.5681 25.6552 27.5963 25.8376C27.6275 26.0404 27.9478 26.2726 28.184 26.1979C28.7129 26.0307 29.1363 25.7599 29.4734 25.3935C29.6916 25.334 29.8223 25.1481 30.0017 25.1278C30.2524 25.0992 30.2847 25.4579 29.996 25.539C30.0732 25.6026 30.1784 25.6302 30.3114 25.6218C30.3144 25.9665 30.1147 26.2554 29.5851 26.4532L29.6614 26.5073C29.9484 26.4548 30.1838 26.3201 30.3829 26.1279L30.4694 26.2467C30.1834 26.4709 29.7634 26.5659 29.4611 26.8373C29.2942 26.9874 29.3161 27.1661 29.4755 27.3054L30.2389 26.7329L30.3361 26.8662C30.0069 27.0796 29.7038 27.3115 29.4341 27.5656C29.1863 27.7992 29.4295 27.9999 29.5444 27.9216C29.8029 27.7456 29.9675 27.506 30.1136 27.2651L30.2388 27.3496C30.0853 27.6055 29.886 27.827 29.6565 28.0259C29.8483 28.208 30.0146 28.1806 30.1261 27.9977C30.2891 27.7301 30.3692 27.4151 30.44 27.0949L30.5868 27.1364L30.2516 28.1113C30.4284 28.201 30.5632 28.1471 30.6366 27.9673C30.7129 27.7801 30.7349 27.5671 30.7473 27.347H30.8967L30.8151 27.9399C30.9473 27.947 31.0512 27.8417 31.0407 27.7014L30.9937 27.0699L31.1432 27.0644L31.1404 27.6571C31.3369 27.5903 31.4403 27.4201 31.4617 27.1586C31.4229 26.7338 31.2502 26.5098 31.1446 26.1856C31.1239 25.8747 31.2393 25.5 31.437 25.4131C31.7224 25.2876 32.186 25.3923 32.4056 25.6061L33.0712 25.3132L33.1485 25.4418L32.484 25.738C32.2963 25.9176 32.2339 26.0557 32.3345 26.1394L33.0129 25.8183L33.0714 25.9487L32.4195 26.2965C32.0625 26.487 32.2025 26.8829 32.4208 26.8871L33.2983 26.2892L33.3861 26.4016L32.517 27.0243C32.2401 27.2226 32.2603 27.5481 32.427 27.5601L33.4134 26.8697L33.4979 26.9909L32.5436 27.6822C32.3033 27.8564 32.3708 28.1179 32.5058 28.1591L33.6006 27.2627L33.7034 27.3876L32.6604 28.2717C32.2919 28.5841 32.2809 28.9102 32.5056 28.9316L33.6573 28.0542L33.7476 28.1769L32.5597 29.094C32.4462 29.1817 32.4207 29.3681 32.542 29.4605L33.6219 28.7133L33.7067 28.8295L32.5357 29.6646C32.3342 29.8083 32.2436 30.0802 32.3756 30.2265L33.8217 29.2611L33.9222 29.3929L32.503 30.3329C32.1165 30.5889 31.9879 30.9121 32.2167 31.1058L33.1614 30.3106L33.2537 30.4251C32.8196 30.7824 32.3964 31.1475 32.0241 31.551C31.7813 31.7794 31.8745 32.0157 31.9724 31.9328L33.1534 30.9329L33.2472 31.03L32.0305 32.0977C31.9121 32.2412 31.812 32.3958 31.736 32.5669C31.6206 32.8268 31.7638 32.9587 31.8647 32.889L33.4089 31.1691L33.5027 31.2403C33.0356 31.8106 32.5314 32.374 32.0041 32.9333L32.0765 32.9407C31.9055 33.1094 31.7423 33.2886 31.613 33.4954C31.4829 33.7036 31.4397 33.8706 31.6013 33.9368C31.7072 33.9801 31.8856 33.9116 32.0533 33.8048C32.6219 33.0924 33.169 32.34 33.7184 31.5757C34.3179 30.7414 34.8918 29.8606 35.4788 28.9485C35.8436 28.3813 36.1776 27.8511 36.2943 27.2859C36.3702 26.918 36.0498 26.6758 35.6685 26.7257C35.4387 26.7557 35.3339 26.9048 34.9923 26.789C34.7649 26.7118 34.6624 26.453 34.7541 26.1333C34.8233 25.8925 34.9813 25.6895 35.2119 25.5519C35.4256 25.4242 35.6517 25.4448 35.8212 25.6044C36.103 25.8696 36.2984 26.2001 36.4645 26.5477C36.5841 26.7979 36.756 26.9089 36.947 26.9188C37.1531 26.9296 37.2841 26.8535 37.2815 26.6535L37.2676 25.6214L37.1655 25.6771C36.8881 25.0159 36.2511 24.484 35.2794 24.0723C36.2509 23.6607 36.8879 23.1288 37.1655 22.4676L37.1651 22.4681ZM32.5602 18.0426L32.375 17.919C32.3419 17.9555 32.3229 18.0001 32.316 18.0484L32.5603 18.0426H32.5602ZM31.6007 24.0729C31.8561 23.6203 32.2253 23.2379 32.7588 23.0056C33.3147 22.7635 33.8208 22.7124 34.2826 22.7192C34.3201 23.4095 34.7123 23.8119 35.279 24.0729C34.7122 24.3338 34.32 24.7362 34.2826 25.4265C33.8208 25.4334 33.3148 25.3823 32.7588 25.1401C32.2255 24.9078 31.8561 24.5254 31.6007 24.0729ZM38.1578 24.0729C38.1578 23.706 38.1053 23.3106 38.0024 22.9475L37.6795 22.9396L37.6389 24.0729L37.6795 25.2061L38.0024 25.1983C38.1053 24.8351 38.1578 24.4397 38.1578 24.0729ZM38.317 22.4283L37.429 22.3621L37.4132 22.5445C37.5129 22.6108 37.6043 22.6843 37.6828 22.7692L38.0263 22.7744C38.1126 22.6763 38.2081 22.5831 38.3186 22.4982L38.317 22.4281V22.4283ZM38.317 22.0054L37.4369 22.0768L37.4316 22.209L38.3222 22.275L38.317 22.0054ZM38.2888 21.8536L37.4391 21.9209L37.4445 21.5391C37.6191 21.4304 37.802 21.3553 37.9605 21.3656C38.214 21.382 38.2915 21.5806 38.2887 21.8538L38.2888 21.8536ZM40.3141 24.0729C40.3207 23.9441 40.2462 23.8576 40.1437 23.8625C40.0494 23.8669 39.9442 23.9277 39.8644 24.0066V23.6936L38.3086 23.9002V24.0727V24.2453L39.8644 24.4519V24.1389C39.9442 24.2179 40.0494 24.2785 40.1437 24.283C40.2462 24.2879 40.3207 24.2014 40.3141 24.0726V24.0729ZM40.0564 23.5165L40.0566 23.3016L38.3047 23.6724L38.3073 23.7464L40.0564 23.5165ZM37.0656 27.0741C36.9436 27.102 36.7931 27.0614 36.6204 26.967C36.6786 27.2008 36.7191 27.4346 36.7466 27.6684C36.9348 27.5014 37.0508 27.307 37.0657 27.0741H37.0656ZM38.3169 25.7175L37.4289 25.7836L37.413 25.6012C37.5127 25.535 37.6042 25.4615 37.6826 25.3766L38.0262 25.3713C38.1125 25.4694 38.208 25.5626 38.3184 25.6475L38.3169 25.7176V25.7175ZM38.3169 26.1404L37.4367 26.069L37.4315 25.9368L38.3221 25.8707L38.3169 26.1404ZM38.2887 26.2921L37.439 26.2249L37.4443 26.6066C37.619 26.7154 37.8019 26.7904 37.9604 26.7801C38.2139 26.7637 38.2913 26.5651 38.2886 26.2919L38.2887 26.2921ZM40.0563 24.6291L40.0564 24.844L38.3046 24.4732L38.3072 24.3992L40.0563 24.6291Z" clip-rule="evenodd"/><path fill="#fff" d="M45.5615 19.2736C45.634 19.262 45.7021 19.3114 45.7135 19.3839C45.725 19.4563 45.6756 19.5244 45.6032 19.5358L38.6439 20.6439C38.4998 20.5511 38.33 20.4873 38.1333 20.4563L45.5615 19.2737V19.2736ZM39.086 21.1689L45.727 20.4681C45.7999 20.4607 45.8653 20.5139 45.8728 20.5868C45.8803 20.6598 45.8271 20.7252 45.7541 20.7326L39.177 21.4267C39.1527 21.3354 39.1224 21.2494 39.086 21.169V21.1689ZM40.3776 21.9214L45.8261 21.625C45.8994 21.6213 45.9619 21.6776 45.9657 21.751C45.9693 21.8242 45.913 21.8867 45.8396 21.8905L40.59 22.1763C40.5272 22.0822 40.4562 21.9972 40.3776 21.9217V21.9214ZM40.9918 22.867H45.8668C45.9404 22.867 46 22.9266 46 23.0002C46 23.0738 45.9404 23.1334 45.8668 23.1334H40.9918V22.867ZM40.9918 23.8463L45.8396 24.1101C45.9129 24.1138 45.9693 24.1763 45.9657 24.2497C45.962 24.3229 45.8995 24.3794 45.8261 24.3757L40.9918 24.1126V23.8464V23.8463ZM40.9918 24.7655L45.754 25.268C45.8269 25.2755 45.8801 25.3407 45.8727 25.4138C45.8652 25.4868 45.7999 25.54 45.7268 25.5325L40.9918 25.0328V24.7656V24.7655ZM40.9918 25.7305L45.603 26.4647C45.6755 26.4762 45.7249 26.5442 45.7133 26.6166C45.7018 26.6891 45.6338 26.7385 45.5614 26.727L40.6092 25.9385C40.6196 25.9223 40.6296 25.9059 40.6394 25.8893L40.9918 25.9552V25.7305ZM40.0135 26.4793L45.395 27.6228C45.4668 27.638 45.5128 27.7086 45.4976 27.7806C45.4824 27.8524 45.4118 27.8983 45.3398 27.8831L39.4715 26.6362C39.6669 26.6143 39.849 26.5614 40.0135 26.4793ZM38.9846 27.1605L45.1168 28.8093C45.1879 28.8283 45.23 28.9012 45.211 28.9722C45.192 29.0433 45.1191 29.0854 45.0481 29.0664L38.7939 27.3849C38.8664 27.3189 38.9298 27.2438 38.9844 27.1605H38.9846ZM37.8826 27.7093L44.783 29.9576C44.8529 29.9803 44.8911 30.0553 44.8684 30.1251C44.8458 30.195 44.7707 30.2332 44.7009 30.2106L37.7237 27.9374C37.77 27.8656 37.8108 27.79 37.8453 27.7097C37.8579 27.7097 37.8704 27.7096 37.8828 27.7093H37.8826ZM37.3393 28.3743L44.3895 31.0864C44.4579 31.1126 44.4922 31.1892 44.466 31.2576C44.4398 31.326 44.3631 31.3603 44.2947 31.3341L37.1044 28.5681C37.1863 28.5048 37.265 28.4407 37.3393 28.3743ZM36.6096 28.9276L43.9363 32.1968C44.0032 32.2267 44.0334 32.3053 44.0035 32.3723C43.9736 32.4392 43.895 32.4693 43.8281 32.4395L36.4556 29.1499C36.4974 29.0828 36.539 29.0156 36.5804 28.9485L36.6096 28.9277V28.9276ZM36.1783 29.5904L43.4195 33.2933C43.4847 33.3266 43.5105 33.4066 43.4772 33.4719C43.444 33.5371 43.3639 33.5629 43.2987 33.5296L36.0346 29.8149C36.0828 29.74 36.1306 29.6652 36.1783 29.5904ZM35.7694 30.223L42.8671 34.3229C42.9307 34.3597 42.9523 34.4411 42.9155 34.5046C42.8786 34.5682 42.7973 34.5898 42.7337 34.553L35.6227 30.4453C35.6718 30.3712 35.7207 30.2972 35.7693 30.223H35.7694ZM35.3427 30.8641L42.2451 35.3503C42.3066 35.3903 42.3241 35.4725 42.2841 35.5341C42.2441 35.5957 42.1619 35.6131 42.1003 35.5732L35.1935 31.0842C35.2434 31.0108 35.2932 30.9376 35.3426 30.8642L35.3427 30.8641ZM34.908 31.4996L41.5685 36.3456C41.628 36.3887 41.6414 36.4719 41.5981 36.5314C41.555 36.5909 41.4718 36.6042 41.4124 36.561L34.7558 31.718C34.8067 31.6452 34.8574 31.5723 34.9079 31.4996H34.908ZM34.467 32.1278L40.8449 37.2995C40.9018 37.3457 40.9104 37.4295 40.8642 37.4863C40.818 37.5432 40.7342 37.5518 40.6774 37.5056L34.3126 32.3444C34.3643 32.2722 34.4158 32.2 34.4671 32.1277L34.467 32.1278ZM34.0124 32.7599L40.0644 38.2219C40.119 38.2711 40.1235 38.3552 40.0742 38.4098C40.0251 38.4645 39.941 38.4689 39.8863 38.4196L33.8545 32.976C33.9073 32.9039 33.96 32.832 34.0123 32.7599H34.0124ZM33.5634 33.3704L39.267 39.071C39.319 39.1228 39.3193 39.2069 39.2676 39.2589C39.2158 39.3109 39.1317 39.3112 39.0797 39.2594L33.4029 33.5857C33.4567 33.5139 33.5102 33.4422 33.5636 33.3704H33.5634ZM33.0808 34.0129L38.3878 39.9151C38.4369 39.9698 38.4326 40.0539 38.378 40.103C38.3234 40.1521 38.2392 40.1478 38.1901 40.0932L32.9168 34.2284C32.9716 34.1567 33.0264 34.0849 33.0809 34.0129H33.0808ZM33.7949 36.15L37.4741 40.7038C37.5201 40.761 37.5111 40.8448 37.4538 40.8907C37.3967 40.9367 37.3129 40.9276 37.267 40.8704L34.5539 37.5123L33.7949 36.1499V36.15ZM35.7543 40.3384L36.5436 41.4253C36.5867 41.4848 36.5734 41.568 36.5139 41.6111C36.4545 41.6542 36.3713 41.641 36.3282 41.5815L35.4256 40.3384H35.7545H35.7543ZM34.4107 40.3384L35.5599 42.1092C35.5999 42.1708 35.5823 42.2531 35.5209 42.293C35.4593 42.333 35.377 42.3154 35.3371 42.254L34.0939 40.3384H34.4107ZM33.152 40.3384L34.5387 42.7429C34.5752 42.8065 34.5532 42.8875 34.4897 42.9241C34.4261 42.9607 34.345 42.9386 34.3085 42.8751L32.8456 40.3384H33.1519H33.152ZM31.9854 40.3384L33.5016 43.3135C33.5349 43.379 33.5088 43.4592 33.4433 43.4926C33.3778 43.5258 33.2976 43.4998 33.2642 43.4343L31.6864 40.3384H31.9854ZM30.8524 40.3384L32.4097 43.842C32.4393 43.9089 32.4091 43.9873 32.3421 44.0169C32.2752 44.0465 32.1968 44.0162 32.1672 43.9493L30.5622 40.3386H30.8525L30.8524 40.3384ZM29.7858 40.3384L31.306 44.3059C31.3322 44.3745 31.2976 44.4516 31.2289 44.4776C31.1603 44.5038 31.0832 44.4693 31.0572 44.4006L29.5007 40.3384H29.7858ZM28.5816 39.7561L30.1897 44.7077C30.2124 44.7775 30.1741 44.8526 30.1043 44.8753C30.0345 44.8979 29.9594 44.8597 29.9368 44.7898L28.1677 39.3426L28.5817 39.756L28.5816 39.7561ZM27.6957 39.9917L29.0531 45.0519C29.0721 45.1229 29.0299 45.1958 28.9589 45.2148C28.8879 45.2338 28.8149 45.1917 28.7959 45.1206L27.5513 40.4809C27.6172 40.3319 27.6664 40.1673 27.6957 39.9917ZM26.9878 41.1528L27.8766 45.3415C27.8918 45.4133 27.8459 45.4841 27.774 45.4993C27.7022 45.5145 27.6315 45.4686 27.6163 45.3967L26.7394 41.2644C26.764 41.2571 26.7887 41.2487 26.8134 41.239C26.8736 41.2156 26.9317 41.1866 26.9877 41.1528H26.9878ZM26.0116 41.1499L26.7114 45.5643C26.7229 45.6367 26.6735 45.7048 26.6011 45.7162C26.5286 45.7278 26.4605 45.6784 26.4491 45.6059L25.7245 41.0344C25.7496 41.0189 25.7744 41.0025 25.7987 40.9853C25.8663 41.0485 25.9375 41.104 26.0118 41.1499H26.0116ZM25.1012 41.7011L25.5249 45.7282C25.5324 45.8011 25.4792 45.8665 25.4062 45.874C25.3333 45.8814 25.2679 45.8282 25.2604 45.7553L24.8917 42.2514C24.922 42.2223 24.9518 42.1917 24.981 42.1596L25.0028 42.1358L25.0112 42.1061C25.0487 41.9732 25.0796 41.8385 25.1012 41.7014V41.7011ZM24.1731 42.9155L24.3254 45.8293C24.329 45.9025 24.2727 45.965 24.1993 45.9688C24.1261 45.9725 24.0636 45.9162 24.0598 45.8428L23.9375 43.4996C24.0015 43.3707 24.0514 43.217 24.0862 43.0356C24.1176 42.9969 24.1466 42.9569 24.173 42.9153L24.1731 42.9155ZM23.1333 44.0558V45.8672C23.1333 45.9408 23.0737 46.0004 23.0001 46.0004C22.9264 46.0004 22.8668 45.9408 22.8668 45.8672V44.0558C22.9127 44.0554 22.9589 44.0546 23.0048 44.0549L23.1333 44.0558ZM22.0625 43.4998L21.9402 45.8428C21.9365 45.916 21.874 45.9725 21.8007 45.9688C21.7274 45.9651 21.6709 45.9027 21.6746 45.8293L21.8269 42.9155C21.8533 42.957 21.8823 42.9971 21.9137 43.0357C21.9484 43.2172 21.9983 43.3709 22.0624 43.4998H22.0625ZM21.1083 42.2512L20.7396 45.7551C20.7321 45.8281 20.6669 45.8813 20.5938 45.8738C20.5208 45.8664 20.4676 45.8011 20.4751 45.728L20.8988 41.701C20.9204 41.8383 20.9513 41.973 20.9888 42.1057L20.9972 42.1354L21.0189 42.1593C21.0482 42.1913 21.078 42.2219 21.1081 42.251L21.1083 42.2512ZM20.2755 41.0344L19.5509 45.6059C19.5394 45.6784 19.4714 45.7278 19.3989 45.7162C19.3265 45.7047 19.2771 45.6367 19.2886 45.5643L19.9884 41.1499C20.0625 41.104 20.1338 41.0485 20.2014 40.9853C20.2258 41.0025 20.2505 41.0189 20.2757 41.0344H20.2755ZM19.2605 41.2643L18.3836 45.3966C18.3684 45.4684 18.2978 45.5143 18.2259 45.4991C18.1541 45.4839 18.1081 45.4133 18.1233 45.3414L19.0121 41.1527C19.0679 41.1865 19.126 41.2154 19.1863 41.2389C19.2111 41.2486 19.2357 41.257 19.2603 41.2643H19.2605ZM18.4487 40.4809L17.2041 45.1206C17.1851 45.1917 17.1121 45.2338 17.0411 45.2148C16.9701 45.1958 16.9279 45.1229 16.9469 45.0519L18.3043 39.9914C18.3336 40.1672 18.3827 40.3318 18.4487 40.4807V40.4809ZM17.8323 39.3428L16.0632 44.79C16.0406 44.8598 15.9655 44.8981 15.8957 44.8754C15.8259 44.8527 15.7876 44.7777 15.8103 44.7078L17.4184 39.7562L17.8324 39.3429L17.8323 39.3428ZM16.4993 40.3384L14.9428 44.4006C14.9166 44.4693 14.8397 44.5038 14.7711 44.4776C14.7024 44.4514 14.6678 44.3745 14.694 44.3059L16.2142 40.3384H16.4993ZM15.4378 40.3384L13.8328 43.9491C13.8032 44.0161 13.7248 44.0463 13.6579 44.0167C13.5909 43.9871 13.5607 43.9088 13.5903 43.8418L15.1476 40.3383H15.4379L15.4378 40.3384ZM14.3134 40.3384L12.7357 43.4343C12.7024 43.4998 12.6221 43.526 12.5566 43.4926C12.4911 43.4593 12.4649 43.379 12.4983 43.3135L14.0145 40.3384H14.3134ZM13.1541 40.3384L11.6912 42.8751C11.6547 42.9386 11.5736 42.9605 11.5101 42.9241C11.4465 42.8875 11.4246 42.8065 11.4611 42.7429L12.8477 40.3384H13.154H13.1541ZM11.9058 40.3384L10.6627 42.254C10.6227 42.3155 10.5404 42.333 10.4789 42.293C10.4173 42.2531 10.3999 42.1708 10.4398 42.1092L11.5891 40.3384H11.9058ZM10.5744 40.3384L9.67183 41.5815C9.62872 41.641 9.54553 41.6543 9.48605 41.6111C9.42657 41.568 9.41321 41.4848 9.45644 41.4253L10.2457 40.3384H10.5745H10.5744ZM11.446 37.5123L8.73273 40.8704C8.68675 40.9275 8.60303 40.9367 8.54591 40.8907C8.48879 40.8447 8.47962 40.761 8.5256 40.7038L12.2048 36.15L11.4459 37.5123H11.446ZM13.0831 34.2283L7.80975 40.0931C7.76062 40.1477 7.67651 40.1521 7.62188 40.1029C7.56725 40.0538 7.5628 39.9696 7.61206 39.915L12.9191 34.0128C12.9736 34.0846 13.0284 34.1564 13.0832 34.2283H13.0831ZM12.5969 33.5857L6.92018 39.2594C6.86817 39.3112 6.78406 39.3109 6.73231 39.2589C6.68056 39.2069 6.68082 39.1228 6.73283 39.071L12.4364 33.3704C12.4898 33.4422 12.5433 33.5139 12.5971 33.5857H12.5969ZM12.1452 32.9761L6.11341 38.4198C6.05878 38.4689 5.97467 38.4646 5.92554 38.41C5.87641 38.3553 5.88073 38.2712 5.93537 38.2221L11.9873 32.7601C12.0397 32.8321 12.0923 32.904 12.1451 32.9761H12.1452ZM11.6874 32.3445L5.32262 37.5057C5.26576 37.552 5.18205 37.5433 5.1358 37.4864C5.08955 37.4296 5.0982 37.3459 5.15506 37.2996L11.533 32.1279C11.5843 32.2001 11.6358 32.2723 11.6876 32.3446L11.6874 32.3445ZM11.244 31.718L4.58738 36.561C4.5279 36.6041 4.44471 36.5909 4.40161 36.5314C4.35851 36.4719 4.37174 36.3887 4.43122 36.3456L11.0917 31.4996C11.1422 31.5724 11.193 31.6453 11.2438 31.718H11.244ZM10.8063 31.084L3.89944 35.573C3.83786 35.613 3.75559 35.5954 3.71563 35.534C3.67567 35.4724 3.69323 35.3901 3.75467 35.3502L10.657 30.8639C10.7066 30.9373 10.7562 31.0105 10.8061 31.0839L10.8063 31.084ZM10.3771 30.4453L3.266 34.553C3.20246 34.5898 3.1211 34.568 3.08428 34.5046C3.04747 34.4411 3.06922 34.3597 3.13263 34.3229L10.2303 30.223C10.2789 30.2972 10.3278 30.3712 10.3769 30.4453H10.3771ZM9.96529 29.8149L2.7012 33.5296C2.63596 33.5629 2.55604 33.5371 2.52264 33.4719C2.48936 33.4066 2.51517 33.3267 2.58041 33.2933L9.82157 29.5904C9.86926 29.6653 9.91708 29.74 9.96529 29.8149ZM9.54435 29.1498L2.17192 32.4393C2.10497 32.4692 2.02636 32.4391 1.99649 32.3721C1.96662 32.3052 1.99675 32.2266 2.0637 32.1967L9.39041 28.9274L9.41963 28.9483C9.46103 29.0153 9.50256 29.0826 9.54435 29.1496V29.1498ZM8.89571 28.5682L1.70538 31.3343C1.63699 31.3605 1.56022 31.3261 1.53415 31.2577C1.50795 31.1894 1.54227 31.1126 1.61066 31.0865L8.66081 28.3744C8.73509 28.4409 8.81383 28.5051 8.89571 28.5682ZM8.27655 27.9374L1.29938 30.2106C1.22955 30.2332 1.15448 30.195 1.13181 30.1251C1.10915 30.0553 1.1474 29.9803 1.21723 29.9576L8.11763 27.7093C8.12995 27.7096 8.14252 27.7097 8.1551 27.7097C8.18969 27.79 8.23056 27.8656 8.27668 27.9374H8.27655ZM7.20605 27.3849L0.951933 29.0664C0.880924 29.0854 0.807951 29.0433 0.788954 28.9722C0.769957 28.9012 0.812143 28.8283 0.883152 28.8093L7.01543 27.1605C7.07019 27.2438 7.1336 27.3189 7.20592 27.3849H7.20605ZM6.52846 26.6362L0.660169 27.8831C0.588375 27.8983 0.517628 27.8525 0.502431 27.7806C0.487233 27.7088 0.533088 27.638 0.605013 27.6228L5.98646 26.4793C6.15101 26.5614 6.33299 26.6143 6.52846 26.6362ZM5.39062 25.9385L0.438497 26.727C0.366047 26.7385 0.297921 26.6891 0.286523 26.6166C0.274994 26.5442 0.324386 26.4761 0.396835 26.4647L5.00806 25.7305V25.9552L5.36048 25.8893C5.37031 25.9059 5.38027 25.9224 5.39062 25.9385ZM5.00819 25.0327L0.27316 25.5324C0.200186 25.5399 0.134811 25.4867 0.127344 25.4137C0.119876 25.3407 0.173067 25.2753 0.24604 25.2679L5.00819 24.7653V25.0326V25.0327ZM5.00819 24.1125L0.173853 24.3756C0.100617 24.3792 0.0381245 24.3229 0.0343251 24.2495C0.0306568 24.1763 0.0869919 24.1138 0.160359 24.11L5.00819 23.8461V24.1124V24.1125ZM5.00819 23.1336H0.133239C0.0596104 23.1336 0 23.074 0 23.0003C0 22.9267 0.0596104 22.8671 0.133239 22.8671H5.00819V23.1336ZM5.41001 22.1761L0.160359 21.8904C0.0871229 21.8867 0.0306568 21.8242 0.0343251 21.7509C0.0379935 21.6776 0.100486 21.6212 0.173853 21.6248L5.62238 21.9213C5.54377 21.9969 5.47276 22.0818 5.41001 22.1759V22.1761ZM6.8231 21.4267L0.24604 20.7326C0.173067 20.7252 0.119876 20.6599 0.127344 20.5868C0.134811 20.5139 0.200055 20.4607 0.27316 20.4681L6.91416 21.1689C6.87773 21.2494 6.84747 21.3354 6.8231 21.4266V21.4267ZM7.35619 20.6439L0.396966 19.5358C0.324517 19.5243 0.275125 19.4563 0.286654 19.3839C0.298183 19.3114 0.366178 19.262 0.438628 19.2736L7.86687 20.4562C7.67009 20.4873 7.5003 20.5509 7.35619 20.6438V20.6439ZM8.40311 20.0346L0.605144 18.3777C0.53335 18.3625 0.487364 18.2919 0.502562 18.22C0.517759 18.1482 0.588375 18.1022 0.6603 18.1174L8.61849 19.8084C8.54093 19.8804 8.46861 19.9552 8.40298 20.0345L8.40311 20.0346ZM9.1238 19.4069L0.883414 17.1913C0.812405 17.1723 0.770219 17.0993 0.789216 17.0283C0.808213 16.9573 0.881186 16.9151 0.952195 16.9341L9.40456 19.2067L9.29006 19.2882C9.23411 19.3281 9.17857 19.3675 9.12393 19.4068L9.1238 19.4069ZM9.66829 18.7964L1.2171 16.0429C1.14727 16.0203 1.10902 15.9452 1.13168 15.8754C1.15435 15.8055 1.22942 15.7673 1.29925 15.79L9.81489 18.5645C9.76563 18.6418 9.71676 18.7192 9.66816 18.7965L9.66829 18.7964ZM10.0696 18.1681L1.61066 14.9141C1.54227 14.8879 1.50795 14.8113 1.53415 14.7429C1.56035 14.6745 1.63699 14.6402 1.70538 14.6664L10.2176 17.9409C10.168 18.0166 10.1186 18.0924 10.0694 18.1681H10.0696ZM10.4723 17.5556L2.0637 13.8037C1.99675 13.7738 1.96662 13.6952 1.99649 13.6283C2.02636 13.5613 2.10497 13.5312 2.17192 13.561L10.6223 17.3317C10.572 17.4064 10.5221 17.4811 10.4723 17.5556ZM10.8804 16.9516L2.58041 12.7072C2.51517 12.674 2.48936 12.5939 2.52264 12.5287C2.55591 12.4634 2.63596 12.4376 2.7012 12.4709L11.032 16.731C10.9812 16.8045 10.9307 16.878 10.8804 16.9515V16.9516ZM11.2754 16.3811L3.13263 11.6775C3.06909 11.6407 3.04747 11.5593 3.08428 11.4958C3.1211 11.4322 3.20246 11.4106 3.266 11.4474L11.4291 16.1628C11.3777 16.2357 11.3265 16.3084 11.2755 16.3811H11.2754ZM11.6843 15.804L3.75467 10.6501C3.6931 10.6101 3.67567 10.5279 3.71563 10.4663C3.75559 10.4047 3.83786 10.3873 3.89944 10.4272L11.8397 15.5879C11.7877 15.66 11.7359 15.7319 11.6843 15.8038V15.804ZM12.0979 15.2328L4.43135 9.65493C4.37187 9.61182 4.35851 9.52863 4.40174 9.46915C4.44484 9.40967 4.52804 9.39631 4.58751 9.43954L12.2555 15.0184C12.2028 15.09 12.1503 15.1615 12.098 15.233L12.0979 15.2328ZM12.5147 14.6686L5.15506 8.70077C5.0982 8.65452 5.08955 8.5708 5.1358 8.51394C5.18205 8.45708 5.26576 8.44844 5.32262 8.49468L12.674 14.4557C12.6206 14.5267 12.5676 14.5976 12.5147 14.6686ZM12.9416 14.1015L5.9355 7.77844C5.88086 7.72931 5.87641 7.6452 5.92567 7.59057C5.9748 7.53594 6.05891 7.53148 6.11354 7.58074L13.1036 13.8892C13.0494 13.96 12.9955 14.0307 12.9416 14.1016V14.1015ZM12.7133 12.9066L6.73283 6.92935C6.68082 6.8776 6.68056 6.79349 6.73231 6.74148C6.78406 6.68947 6.86817 6.68921 6.92018 6.74096L12.241 12.059L12.7133 12.9068V12.9066ZM11.0325 9.88944L7.61206 6.08524C7.56293 6.03061 7.56725 5.9465 7.62188 5.89737C7.67651 5.84824 7.76062 5.85257 7.80975 5.9072L10.4496 8.84318L11.0325 9.88944ZM10.5529 7.80569L8.52573 5.29668C8.47975 5.23956 8.48879 5.15571 8.54604 5.10986C8.60316 5.06387 8.68701 5.07291 8.73286 5.13017L10.8947 7.80582H10.5529V7.80569ZM11.8022 7.80569L9.45631 4.57507C9.41321 4.51559 9.42644 4.4324 9.48592 4.38929C9.5454 4.34619 9.62859 4.35942 9.67169 4.4189L12.1309 7.80569H11.8021H11.8022ZM12.9805 7.80569L10.4401 3.89119C10.4001 3.82961 10.4177 3.74733 10.4791 3.70738C10.5407 3.66742 10.623 3.68497 10.6629 3.74642L13.2973 7.80556H12.9805V7.80569ZM14.0842 7.80569L11.4612 3.25748C11.4246 3.19394 11.4466 3.11284 11.5102 3.07629C11.5737 3.03974 11.6548 3.06175 11.6914 3.12529L14.3906 7.80569H14.0843H14.0842ZM15.1071 7.80569L12.4984 2.68692C12.4651 2.62142 12.4912 2.54124 12.5567 2.50783C12.6222 2.47455 12.7024 2.50063 12.7358 2.56613L15.4061 7.80569H15.1071ZM16.1006 7.80569L13.5903 2.15855C13.5607 2.09161 13.5909 2.01326 13.6579 1.98365C13.7248 1.95404 13.8032 1.98431 13.8328 2.05125L16.3908 7.80569H16.1005H16.1006ZM16.9588 7.60524L14.694 1.69451C14.6678 1.62586 14.7024 1.54882 14.7711 1.52275C14.8397 1.49655 14.9168 1.53114 14.9428 1.59979L17.1223 7.28806C17.064 7.39104 17.0095 7.49663 16.9587 7.60524H16.9588ZM17.5531 6.65868L15.8104 1.29269C15.7877 1.22287 15.826 1.1478 15.8958 1.12513C15.9656 1.10247 16.0407 1.14072 16.0634 1.21055L17.757 6.42535C17.6862 6.50108 17.6184 6.5789 17.5531 6.65881V6.65868ZM18.2852 5.93707L16.9471 0.948526C16.9281 0.877518 16.9702 0.804544 17.0412 0.785548C17.1123 0.766551 17.1852 0.808737 17.2042 0.879745L18.5143 5.76348L18.5041 5.77081C18.4292 5.82479 18.3563 5.88021 18.2853 5.93707H18.2852ZM19.1251 5.37948L18.1234 0.65899C18.1082 0.587196 18.1541 0.516449 18.226 0.501252C18.2978 0.486054 18.3685 0.531909 18.3837 0.603834L19.3699 5.25109C19.2867 5.29262 19.205 5.33546 19.1251 5.37948ZM20.0072 4.96863L19.2888 0.436139C19.2772 0.363689 19.3266 0.295563 19.3991 0.284165C19.4715 0.272636 19.5396 0.322027 19.551 0.394477L20.2611 4.87351C20.1752 4.90417 20.0906 4.93588 20.0072 4.9685V4.96863ZM20.9369 4.6597L20.4753 0.272374C20.4679 0.1994 20.5211 0.134025 20.594 0.126558C20.667 0.11909 20.7324 0.172281 20.7398 0.245254L21.1971 4.5904C21.1093 4.61267 21.0226 4.63573 20.937 4.6597H20.9369ZM21.8552 3.62314L21.6749 0.171233C21.6712 0.0979969 21.7275 0.0355042 21.8009 0.0317049C21.8741 0.0280366 21.9366 0.0843717 21.9404 0.157738L22.1115 3.43356C22.034 3.48112 21.9594 3.53483 21.8884 3.59444C21.8773 3.60388 21.8662 3.61344 21.8552 3.623V3.62314ZM22.867 3.18307V0.133239C22.867 0.0596104 22.9266 0 23.0002 0C23.0738 0 23.1334 0.0596104 23.1334 0.133239V3.18307C23.0892 3.1794 23.0447 3.17756 23.0002 3.17756C22.9557 3.17756 22.9112 3.1794 22.867 3.18307ZM23.889 3.43356L24.0601 0.157738C24.0638 0.0845027 24.1262 0.0280366 24.1996 0.0317049C24.2728 0.0353732 24.3293 0.0978659 24.3256 0.171233L24.1454 3.62314C24.1344 3.61344 24.1234 3.60388 24.1121 3.59457C24.0411 3.53496 23.9665 3.48112 23.889 3.43369V3.43356ZM24.8034 4.5904L25.2607 0.245254C25.2681 0.172281 25.3334 0.11909 25.4065 0.126558C25.4795 0.134025 25.5327 0.199269 25.5252 0.272374L25.0636 4.6597C24.9781 4.63573 24.8914 4.61267 24.8036 4.5904H24.8034ZM25.7393 4.87364L26.4493 0.394608C26.4609 0.322158 26.5289 0.272767 26.6013 0.284296C26.6738 0.295825 26.7232 0.36382 26.7116 0.43627L25.9932 4.96876C25.9098 4.93614 25.8252 4.90443 25.7393 4.87378V4.87364ZM26.6304 5.25109L27.6165 0.603834C27.6317 0.53204 27.7023 0.486054 27.7743 0.501252C27.8461 0.516449 27.8921 0.587065 27.8769 0.65899L26.8751 5.37948C26.7952 5.33546 26.7136 5.29262 26.6304 5.25109ZM27.486 5.76361L28.7962 0.879876C28.8152 0.808868 28.8881 0.766682 28.9591 0.785679C29.0302 0.804675 29.0723 0.877649 29.0533 0.948657L27.7152 5.9372C27.6442 5.88034 27.5712 5.82492 27.4963 5.77095L27.486 5.76361ZM28.2434 6.42522L29.937 1.21042C29.9597 1.14059 30.0348 1.10233 30.1046 1.125C30.1744 1.14766 30.2127 1.22273 30.19 1.29256L28.4473 6.65855C28.3822 6.57863 28.3142 6.50081 28.2434 6.42509V6.42522ZM28.8779 7.28806L31.0574 1.59979C31.0836 1.53114 31.1605 1.49655 31.2292 1.52275C31.2978 1.54895 31.3324 1.62586 31.3062 1.69451L29.0414 7.60537C28.9907 7.49677 28.9362 7.39104 28.8779 7.28806ZM29.6095 7.80569L32.1675 2.05125C32.1971 1.98431 32.2754 1.95404 32.3424 1.98365C32.4093 2.01326 32.4396 2.09161 32.41 2.15855L29.8997 7.80569H29.6094H29.6095ZM30.5943 7.80569L33.2646 2.56613C33.2979 2.50063 33.3782 2.47442 33.4437 2.50783C33.5092 2.54111 33.5354 2.62142 33.502 2.68692L30.8933 7.80569H30.5943ZM31.6098 7.80569L34.309 3.12529C34.3456 3.06175 34.4267 3.03987 34.4902 3.07629C34.5537 3.11284 34.5756 3.19394 34.5392 3.25748L31.9162 7.80569H31.6099H31.6098ZM32.7031 7.80569L35.3375 3.74655C35.3774 3.68497 35.4597 3.66755 35.5213 3.70751C35.5828 3.74747 35.6003 3.82974 35.5603 3.89132L33.0199 7.80582H32.7031V7.80569ZM33.8692 7.80569L36.3284 4.4189C36.3715 4.35942 36.4547 4.34606 36.5142 4.38929C36.5737 4.4324 36.5871 4.51559 36.5438 4.57507L34.1979 7.80569H33.8691H33.8692ZM35.1056 7.80569L37.2674 5.13003C37.3134 5.07291 37.3971 5.06374 37.4542 5.10973C37.5113 5.15571 37.5205 5.23943 37.4745 5.29655L35.4474 7.80556H35.1056V7.80569ZM35.5506 8.84318L38.1904 5.90733C38.2395 5.8527 38.3236 5.84824 38.3782 5.8975C38.4329 5.94663 38.4373 6.03074 38.3881 6.08537L34.9676 9.88944L35.5505 8.84318H35.5506ZM33.7592 12.0589L39.0799 6.74096C39.132 6.68921 39.2161 6.68947 39.2678 6.74148C39.3196 6.79349 39.3193 6.8776 39.2673 6.92935L33.2869 12.9066L33.7592 12.0589ZM32.8967 13.8891L39.8867 7.58061C39.9414 7.53148 40.0255 7.53581 40.0746 7.59044C40.1237 7.64507 40.1194 7.72918 40.0648 7.77831L33.0586 14.1013C33.0049 14.0306 32.9509 13.9598 32.8967 13.889V13.8891ZM33.3263 14.4557L40.6776 8.49468C40.7345 8.44844 40.8182 8.45708 40.8645 8.51394C40.9107 8.5708 40.9021 8.65452 40.8452 8.70077L33.4856 14.6686C33.4327 14.5977 33.3796 14.5267 33.3263 14.4557ZM33.7447 15.0182L41.4127 9.43928C41.4722 9.39618 41.5554 9.40941 41.5985 9.46889C41.6416 9.52837 41.6284 9.61156 41.5689 9.65466L33.9024 15.2325C33.8501 15.161 33.7975 15.0894 33.7449 15.0179L33.7447 15.0182ZM34.1604 15.5879L42.1007 10.4272C42.1623 10.3873 42.2445 10.4048 42.2845 10.4663C42.3245 10.5279 42.3069 10.6101 42.2455 10.6501L34.3158 15.804C34.2642 15.7319 34.2125 15.66 34.1604 15.5881V15.5879ZM34.571 16.1627L42.7341 11.4473C42.7977 11.4105 42.879 11.4322 42.9158 11.4956C42.9527 11.5592 42.9309 11.6405 42.8675 11.6774L34.7247 16.3809C34.6738 16.3081 34.6225 16.2354 34.5712 16.1627H34.571ZM34.9681 16.731L43.2989 12.4709C43.3642 12.4376 43.4441 12.4634 43.4775 12.5287C43.5108 12.5939 43.485 12.6738 43.4197 12.7072L35.1197 16.9516C35.0694 16.8781 35.0188 16.8046 34.9681 16.7311V16.731ZM35.3778 17.3317L43.8282 13.561C43.8952 13.5312 43.9738 13.5613 44.0036 13.6283C44.0335 13.6952 44.0034 13.7738 43.9364 13.8037L35.5278 17.5556C35.478 17.4809 35.4281 17.4062 35.3778 17.3317ZM35.7825 17.9408L44.2947 14.6663C44.3631 14.6401 44.4399 14.6744 44.466 14.7428C44.4922 14.8112 44.4579 14.8879 44.3895 14.914L35.9306 18.168C35.8814 18.0922 35.832 18.0165 35.7824 17.9408H35.7825ZM36.1851 18.5643L44.7008 15.7897C44.7706 15.767 44.8457 15.8053 44.8683 15.8751C44.891 15.9449 44.8527 16.02 44.7829 16.0427L36.3317 18.7962C36.2831 18.7189 36.2341 18.6416 36.185 18.5641L36.1851 18.5643ZM36.5958 19.2066L45.0482 16.934C45.1192 16.915 45.1922 16.9571 45.2112 17.0281C45.2302 17.0992 45.188 17.1721 45.117 17.1911L36.8766 19.4068C36.822 19.3675 36.7665 19.3279 36.7105 19.2882L36.596 19.2067L36.5958 19.2066ZM37.3816 19.8082L45.3398 18.1172C45.4116 18.1021 45.4824 18.1479 45.4976 18.2198C45.5128 18.2916 45.4669 18.3624 45.395 18.3776L37.597 20.0345C37.5314 19.9552 37.4592 19.8803 37.3815 19.8084L37.3816 19.8082Z"/></g><defs><clipPath id="clip0_5128_8480"><path fill="#fff" d="M0 0H46V46H0z"/></clipPath></defs></svg>