<svg xmlns="http://www.w3.org/2000/svg" width="77" height="77" fill="none" viewBox="0 0 77 77"><g clip-path="url(#clip0_5095_8496)"><path fill="#171717" d="M38.5 0C59.763 0 77 17.237 77 38.5C77 59.763 59.763 77 38.5 77C22.963 77 9.57768 67.7956 3.49414 54.543L4.41797 54.1582C10.3503 67.0494 23.379 76 38.5 76C59.2107 76 76 59.2107 76 38.5C76 17.7893 59.2107 1 38.5 1C22.8854 1 9.50313 10.5448 3.86133 24.1172L6.66895 23.0938L7.01172 24.0332L2.36719 25.7275L0.53125 20.6943L1.4707 20.3516L2.73535 23.8203L3.90039 21.4824L3.94727 21.5049C10.2248 8.76552 23.3378 0 38.5 0Z"/></g><defs><clipPath id="clip0_5095_8496"><path fill="#fff" d="M0 0H77V77H0z"/></clipPath></defs></svg>