<svg xmlns="http://www.w3.org/2000/svg" width="17" height="15" fill="none" viewBox="0 0 17 15"><path fill="#171717" fill-rule="evenodd" d="M1.57711 0H14.7865C15.654 0 16.3636 0.650455 16.3636 1.44568V13.5543C16.3636 14.3495 15.654 15 14.7865 15H1.57711C0.709587 15 0 14.3495 0 13.5543V1.44568C0 0.650455 0.709587 0 1.57711 0ZM5.28522 5.33096C6.59183 5.33096 7.65145 6.30228 7.65145 7.5C7.65145 8.69772 6.59183 9.66904 5.28522 9.66904C3.97862 9.66904 2.919 8.69772 2.919 7.5C2.919 6.30228 3.97862 5.33096 5.28522 5.33096ZM11.0784 5.33096C12.385 5.33096 13.4446 6.30228 13.4446 7.5C13.4446 8.69772 12.385 9.66904 11.0784 9.66904C9.77181 9.66904 8.71219 8.69772 8.71219 7.5C8.71219 6.30228 9.77181 5.33096 11.0784 5.33096Z" clip-rule="evenodd"/></svg>