<svg xmlns="http://www.w3.org/2000/svg" width="22" height="19" fill="none" viewBox="0 0 22 19"><path fill="#171717" d="M18.3208 2.18164C18.9091 2.18164 19.3529 2.70888 19.1155 3.68954L16.236 17.5559C16.0347 18.5418 15.4515 18.7791 14.6465 18.3204L7.77783 13.1376C7.75119 13.1181 7.72949 13.0924 7.71452 13.0626C7.69955 13.0328 7.69174 12.9998 7.69174 12.9663C7.69174 12.9328 7.69955 12.8998 7.71452 12.87C7.72949 12.8402 7.75119 12.8145 7.77783 12.7949L15.7096 5.47688C16.0708 5.14999 15.6322 4.99182 15.1574 5.28707L5.20272 11.7036C5.17253 11.7237 5.13825 11.7365 5.10249 11.7411C5.06672 11.7456 5.03041 11.7418 4.9963 11.7299L0.769821 10.3644C-0.169397 10.0849 -0.169397 9.42589 0.981403 8.95665L17.8925 2.29236C18.0268 2.22715 18.1723 2.18953 18.3208 2.18164Z"/></svg>