<svg xmlns="http://www.w3.org/2000/svg" width="21" height="14" fill="none" viewBox="0 0 21 14"><path fill="#171717" d="M12.0977 13.5705V9.5733C14.4051 9.98265 15.4592 11.7495 16.6038 13.5705C16.6038 13.5705 19.6403 13.5608 20.3493 13.5705C21.0584 13.5801 18.0157 8.98313 16.2623 7.2677C17.6074 5.1126 21.0717 0.0253112 19.7337 0.00778808C18.3957 -0.00973509 16.3296 0.00778808 16.3296 0.00778808C15.4592 2.26633 14.2913 5.11862 12.0977 6.93661V0.00778808H8.33666V1.70538V7.75531C6.42249 7.49646 4.99737 3.40431 3.72715 0.00778808C3.72715 0.00778808 1.37923 0.0211329 0.17301 0.00778808C-1.03321 -0.00555671 4.18758 14.7383 12.0977 13.5705Z"/></svg>