<svg width="67" height="65" viewBox="0 0 67 65" fill="none" xmlns="http://www.w3.org/2000/svg">
<path d="M33.5019 61.3362C33.4326 61.3356 33.3626 61.3369 33.2933 61.3375V61.3269C32.9641 61.2964 32.6821 61.1899 32.4523 60.9858C32.1947 60.7571 32.0117 60.4109 31.9129 59.9173C31.8347 59.8255 31.7671 59.7278 31.7099 59.6245C31.6602 59.5348 31.6183 59.4403 31.5837 59.3413C31.4208 59.282 31.2643 59.2063 31.1149 59.1127C30.938 59.0018 30.7691 58.8643 30.6096 58.6974L30.5779 58.6642L30.5657 58.6228C30.4995 58.3984 30.4474 58.1701 30.4163 57.9364C30.393 57.7613 30.3819 57.5853 30.3859 57.4082C30.2104 57.3886 30.0428 57.3518 29.8839 57.2962C29.719 57.2385 29.5637 57.1612 29.4188 57.0627C29.2231 57.2378 29.0069 57.3697 28.7762 57.4406C28.5094 57.5225 28.2275 57.5231 27.9404 57.416C27.594 57.2869 27.2937 57.041 27.0664 56.7127C26.8483 56.3975 26.6972 56.0046 26.6382 55.5657C26.597 55.3242 26.5819 55.0814 26.6006 54.8376C26.6096 54.7217 26.626 54.6056 26.651 54.4888C26.6266 54.4968 26.6021 54.5043 26.5777 54.5113C26.4458 54.5486 26.3142 54.5698 26.1831 54.5705L25.2811 55.4315L24.8054 56.1624H14.3729L19.2127 47.8578C17.1887 45.3381 15.3358 42.82 13.7146 40.3044L13.5255 40.1758C12.8231 39.6986 12.1793 39.261 11.8724 38.5799C11.3263 38.5794 10.8954 38.4424 10.5699 38.1927C10.2334 37.9348 10.0167 37.562 9.90695 37.0997C9.45603 37.1145 9.04233 37.0293 8.68645 36.8537C8.32274 36.674 8.02086 36.4013 7.80237 36.0455L7.28906 36.1372V30.8943L7.80237 30.986C8.02086 30.6301 8.32274 30.3575 8.68645 30.1778C9.04233 30.0021 9.45584 29.917 9.90695 29.9317C10.0167 29.4695 10.2334 29.0967 10.5699 28.8388C10.8954 28.5891 11.3263 28.4521 11.8724 28.4515C12.1793 27.7705 12.8229 27.3329 13.5255 26.8557L13.7146 26.7271C15.3358 24.2116 17.1887 21.6934 19.2127 19.1737L14.3729 10.8691H24.5672C25.0647 9.71324 25.8699 8.77734 26.946 8.03606C28.0245 7.29313 29.3742 6.74684 30.9578 6.37109C31.1328 5.80401 31.4612 5.33888 31.8751 5.00618C32.3392 4.63317 32.9103 4.42578 33.4946 4.42578C34.0787 4.42578 34.6498 4.63317 35.1141 5.00618C35.5282 5.33888 35.8566 5.80401 36.0314 6.37109C37.6152 6.74702 38.9647 7.29313 40.0432 8.03606C41.1193 8.77734 41.9245 9.71306 42.422 10.8691H52.6165L47.7767 19.1737C49.8007 21.6934 51.6536 24.2114 53.2748 26.7271L53.4639 26.8557C54.1663 27.3329 54.8102 27.7705 55.117 28.4515C55.6631 28.4521 56.094 28.5891 56.4196 28.8388C56.756 29.0967 56.9727 29.4695 57.0825 29.9317C57.5336 29.917 57.9471 30.0021 58.303 30.1778C58.6667 30.3575 58.9685 30.6301 59.187 30.986L59.7004 30.8943V36.1372L59.187 36.0455C58.9685 36.4013 58.6667 36.674 58.303 36.8537C57.9471 37.0293 57.5336 37.1145 57.0825 37.0997C56.9727 37.562 56.7558 37.9348 56.4196 38.1927C56.094 38.4424 55.6631 38.5794 55.117 38.5799C54.8102 39.261 54.1665 39.6986 53.4639 40.1758L53.2748 40.3044C51.6536 42.8199 49.8007 45.3381 47.7767 47.8578L52.6165 56.1624H42.1841L41.7083 55.4315L40.8063 54.5705C40.6752 54.5696 40.5436 54.5486 40.4117 54.5113C40.3873 54.5043 40.3629 54.4968 40.3384 54.4888C40.3632 54.6056 40.3798 54.7217 40.3888 54.8376C40.4077 55.0814 40.3926 55.3242 40.3514 55.5657C40.2924 56.0046 40.1411 56.3975 39.923 56.7127C39.6957 57.041 39.3954 57.2869 39.0491 57.416C38.7621 57.5231 38.48 57.5227 38.2133 57.4406C37.9827 57.3697 37.7663 57.2378 37.5706 57.0627C37.4255 57.1612 37.2702 57.2385 37.1055 57.2962C36.9466 57.3518 36.779 57.3886 36.6035 57.4082C36.6075 57.5853 36.5962 57.7613 36.5731 57.9364C36.5422 58.1702 36.4901 58.3984 36.4237 58.6228L36.4115 58.6642L36.3796 58.6974C36.2199 58.8645 36.0511 59.002 35.8743 59.1127C35.7251 59.2063 35.5685 59.282 35.4055 59.3413C35.3712 59.4403 35.329 59.5348 35.2794 59.6245C35.2223 59.7278 35.1548 59.8253 35.0765 59.9173C34.9777 60.4109 34.7947 60.7571 34.5371 60.9858C34.3073 61.1899 34.0253 61.2964 33.6961 61.3269V61.3375L33.5013 61.3362H33.5019ZM33.4881 60.9665H33.5019C33.8171 60.9644 34.0774 60.8891 34.2737 60.7146C34.4775 60.5336 34.6235 60.2398 34.7044 59.8044L34.7138 59.7546L34.7493 59.7154C34.8225 59.6342 34.8853 59.5463 34.9374 59.452C34.9901 59.3568 35.0321 59.2557 35.0632 59.1492L35.0908 59.0543L35.1882 59.0231C35.3525 58.9704 35.511 58.8976 35.6627 58.8026C35.8039 58.7142 35.9377 58.6075 36.0636 58.4807C36.1201 58.2835 36.1642 58.0865 36.1902 57.8899C36.2178 57.6814 36.2258 57.4691 36.2079 57.2522L36.1921 57.0607L36.3936 57.0528C36.6006 57.0448 36.7947 57.0107 36.9742 56.948C37.1504 56.8865 37.3135 56.7962 37.4618 56.6749L37.6036 56.5589L37.7301 56.6902C37.914 56.881 38.1182 57.0226 38.3319 57.0882C38.5155 57.1446 38.71 57.145 38.9084 57.0709C39.179 56.97 39.417 56.7732 39.6003 56.5082C39.7879 56.2371 39.9182 55.8959 39.9688 55.5126L39.9696 55.5061C40.0058 55.2934 40.019 55.0793 40.0024 54.8635C39.9858 54.6501 39.9398 54.4352 39.8574 54.219L39.6801 53.7536L40.1335 53.9943C40.265 54.0642 40.3945 54.12 40.5211 54.1559C40.6405 54.1899 40.7575 54.2057 40.871 54.1983L40.9582 54.1924L42.015 55.2011L42.3989 55.791H51.9574L47.3149 47.825L47.3927 47.7283C49.4435 45.1807 51.3216 42.6311 52.9642 40.0795L52.9838 40.049L53.2397 39.8741C53.9322 39.4035 54.5636 38.9745 54.8037 38.3306L54.8518 38.2018L54.9939 38.2075C55.5072 38.2277 55.8975 38.1186 56.177 37.9041C56.4739 37.6765 56.6552 37.3232 56.7344 36.8745L56.7644 36.7052L56.943 36.7209C57.3868 36.7598 57.7893 36.6906 58.1257 36.5245C58.4573 36.3607 58.7272 36.1004 58.9117 35.7545L58.9775 35.6312L59.3122 35.6911V31.3399L58.9775 31.3997L58.9117 31.2764C58.7274 30.9306 58.4573 30.6703 58.1257 30.5065C57.7893 30.3403 57.3868 30.2712 56.943 30.31L56.7644 30.3257L56.7344 30.1564C56.6554 29.7079 56.4739 29.3544 56.177 29.1268C55.8975 28.9123 55.507 28.803 54.9939 28.8235L54.8518 28.8291L54.8037 28.7003C54.5636 28.0565 53.9324 27.6274 53.2397 27.1569L52.9838 26.9821L52.9642 26.9517C51.3216 24.3999 49.4433 21.8502 47.3927 19.3028L47.3149 19.2061L51.9574 11.2401H42.1594L42.111 11.1212C41.6465 9.98009 40.8691 9.06061 39.8173 8.33592C38.7561 7.60486 37.4139 7.07006 35.8299 6.70452L35.7171 6.67844L35.6881 6.57046C35.5438 6.03237 35.2462 5.59479 34.8655 5.28872C34.4722 4.97244 33.9887 4.79679 33.4948 4.79679C33.0008 4.79679 32.5174 4.97244 32.1241 5.28872C31.7434 5.59479 31.4456 6.03237 31.3015 6.57046L31.2725 6.67844L31.1597 6.70452C29.5757 7.07006 28.2335 7.60486 27.1723 8.33592C26.1203 9.06061 25.3431 9.98009 24.8786 11.1212L24.8304 11.2401H15.0324L19.6749 19.2061L19.5971 19.3028C17.5463 21.8504 15.6682 24.4 14.0256 26.9517L14.006 26.9821L13.7501 27.1569C13.0576 27.6274 12.4262 28.0565 12.1861 28.7003L12.1382 28.8291L11.9959 28.8235C11.4826 28.8032 11.0923 28.9123 10.8128 29.1268C10.5159 29.3544 10.3346 29.7077 10.2554 30.1564L10.2254 30.3257L10.0468 30.31C9.60297 30.2712 9.20052 30.3403 8.86411 30.5065C8.53246 30.6703 8.26264 30.9306 8.07811 31.2764L8.01228 31.3997L7.67758 31.3399V35.6911L8.01228 35.6312L8.07811 35.7545C8.26244 36.1004 8.53246 36.3607 8.86411 36.5245C9.20052 36.6906 9.60297 36.7598 10.0468 36.7209L10.2254 36.7052L10.2554 36.8745C10.3344 37.323 10.5159 37.6765 10.8128 37.9041C11.0923 38.1186 11.4828 38.2279 11.9959 38.2075L12.1382 38.2018L12.1861 38.3306C12.4262 38.9745 13.0574 39.4035 13.7501 39.8741L14.006 40.049L14.0256 40.0795C15.6682 42.6313 17.5465 45.1809 19.5971 47.7283L19.6749 47.825L15.0324 55.791H24.5909L24.9748 55.2011L26.0316 54.1924L26.1188 54.1983C26.2323 54.2057 26.3493 54.1899 26.4687 54.1559C26.5953 54.12 26.7248 54.0642 26.8563 53.9943L27.3097 53.7536L27.1322 54.219C27.0498 54.4352 27.0036 54.6501 26.9872 54.8635C26.9706 55.0793 26.9838 55.2934 27.02 55.5061L27.0208 55.5126C27.0714 55.8959 27.2017 56.237 27.3893 56.5082C27.5726 56.7732 27.8108 56.97 28.0812 57.0709C28.2795 57.145 28.4741 57.1446 28.6577 57.0882C28.8714 57.0226 29.0756 56.881 29.2595 56.6902L29.3862 56.5589L29.528 56.6749C29.6763 56.7962 29.8394 56.8865 30.0155 56.948C30.1951 57.0107 30.3892 57.0448 30.5962 57.0528L30.7979 57.0607L30.7821 57.2522C30.7641 57.4691 30.7722 57.6814 30.7998 57.8899C30.8258 58.0865 30.8699 58.2835 30.9263 58.4807C31.0521 58.6075 31.186 58.7142 31.3273 58.8026C31.479 58.8978 31.6375 58.9704 31.8018 59.0231L31.8991 59.0543L31.9268 59.1492C31.9579 59.2557 31.9997 59.3568 32.0524 59.452C32.1047 59.5463 32.1673 59.6342 32.2405 59.7154L32.276 59.7546L32.2852 59.8044C32.3659 60.2398 32.5119 60.5336 32.7159 60.7146C32.9122 60.8889 33.1725 60.9643 33.4877 60.9665H33.4881Z" fill="#E8A968"/>
<path fill-rule="evenodd" clip-rule="evenodd" d="M8.79977 32.2003C8.86923 31.6504 9.18561 31.2155 9.70274 31.2146C10.5506 31.2132 11.0955 31.4716 11.451 31.8492C11.3371 32.1255 11.2715 32.4323 11.2431 32.763L8.79996 32.2003H8.79977ZM21.1646 25.7433C20.9156 25.4757 20.3264 25.4894 20.287 25.7641C20.3559 26.0415 20.9887 26.0076 21.1646 25.7433ZM23.464 24.7202C23.281 24.9283 23.2694 25.1538 23.4076 25.3944C23.2639 25.5171 23.248 25.6694 23.3833 25.8568C23.3215 26.1603 23.4234 26.3595 23.6533 26.4769C23.364 26.8445 22.9406 27.0362 22.388 26.9112C21.7692 26.7713 21.4079 26.3651 21.4146 25.7282C21.4209 25.125 21.715 24.6651 22.4113 24.5008C22.7653 24.4172 23.1225 24.4836 23.4642 24.72L23.464 24.7202ZM23.589 25.2672C23.4585 24.9794 23.5589 24.8353 23.8671 24.8203C23.9993 24.8258 24.1004 24.8933 24.1693 25.0245L24.1291 25.2979C23.9794 25.2731 23.8018 25.2618 23.589 25.267V25.2672ZM23.5808 25.724C23.485 25.7083 23.4864 25.514 23.6251 25.4929C23.8963 25.4515 24.1619 25.5295 24.4029 25.6315L24.7817 26.0282L24.7454 26.3518C24.4538 25.9864 24.063 25.8028 23.5808 25.724ZM24.5439 26.818L24.6689 26.6101C24.4397 26.2318 24.0777 26.0123 23.5928 25.9397C23.5234 26.1072 23.6045 26.244 23.7944 26.3018C24.0676 26.3852 24.3275 26.5212 24.5439 26.818ZM23.4457 27.6509C23.6659 27.6394 23.8434 27.6866 23.9566 27.8234L24.4136 27.0046C24.2916 26.8206 24.1451 26.6507 23.9293 26.5749C23.8527 26.5481 23.793 26.6061 23.8085 26.6839C23.8739 27.0139 23.7115 27.3322 23.4457 27.6507V27.6509ZM22.7185 39.6013C22.863 39.5648 22.9822 39.3948 23.0769 39.0944L23.3175 39.3525C23.2986 39.697 23.353 40.0602 23.4402 40.4319C23.5398 40.6003 23.6133 40.7584 23.6365 40.8965L23.9705 41.0796L23.4892 41.1922C23.3068 41.0975 23.1515 41.1311 23.0101 41.2328L21.9573 41.225C22.1214 41.0769 22.3594 40.9992 22.6742 40.995C22.8439 40.8834 22.958 40.7002 22.9836 40.4036C22.9166 40.149 22.8351 39.8858 22.7185 39.6011V39.6013ZM23.6869 41.3653C23.9113 41.3045 24.1432 41.3206 24.3832 41.4255L24.3252 41.7375L24.0714 41.8069L23.6869 41.3654V41.3653ZM23.2057 41.393C23.2557 41.3552 23.3177 41.3519 23.3919 41.3837L24.0062 42.0724L23.8369 42.3358L23.6654 42.322L23.2059 41.3928L23.2057 41.393ZM22.7584 41.5894C22.7967 41.4703 22.8679 41.4236 22.9761 41.4577L23.4476 42.4077C23.4753 42.4635 23.1259 42.4934 23.0874 42.3984L22.7586 41.5894H22.7584ZM22.3038 41.9183C22.2561 41.7684 22.495 41.5849 22.5389 41.6914L22.8639 42.4779C22.8832 42.5248 22.7857 42.5757 22.7349 42.5308C22.5449 42.3635 22.384 42.1697 22.3038 41.9183ZM22.3378 41.4643L18.9003 41.5473V41.7025L22.1073 41.7748L22.3376 41.4643H22.3378ZM18.2605 41.2219C18.4899 41.2219 18.6759 41.3996 18.6759 41.6188C18.6759 41.838 18.4901 42.0157 18.2605 42.0157C18.0312 42.0157 17.8451 41.838 17.8451 41.6188C17.8451 41.3996 18.031 41.2219 18.2605 41.2219ZM8.79977 34.8298C8.86923 35.3798 9.18561 35.8146 9.70274 35.8155C10.5506 35.817 11.0955 35.5585 11.451 35.1809C11.3371 34.9046 11.2715 34.5978 11.2431 34.2671L8.79996 34.8298H8.79977ZM13.015 37.6935C13.1927 37.7324 13.4119 37.6758 13.6634 37.5445C13.5787 37.8699 13.5197 38.1955 13.4797 38.5209C13.2055 38.2885 13.0366 38.0178 13.0148 37.6935H13.015ZM16.0985 33.5151C16.7843 33.8762 17.2192 34.4099 17.323 35.1713C18.0787 35.1651 18.7513 35.033 19.3282 34.747C19.9403 34.4435 20.4103 34.0293 20.7076 33.5151C20.4103 33.0009 19.9403 32.5865 19.3282 32.2831C18.7513 31.9971 18.0787 31.8652 17.323 31.8589C17.2192 32.6202 16.7843 33.1539 16.0985 33.5151ZM12.8704 35.7493L12.7217 35.6718L12.7015 37.1087C12.6977 37.3869 12.8883 37.4931 13.1887 37.4781C13.4667 37.4642 13.7172 37.3097 13.8915 36.9614C14.1334 36.4774 14.4179 36.0172 14.8284 35.6481C15.0753 35.4259 15.4047 35.3973 15.7159 35.5749C16.0518 35.7666 16.2819 36.0492 16.3826 36.3844C16.5162 36.8293 16.367 37.1899 16.0357 37.2973C15.5383 37.4588 15.3856 37.2512 15.0509 37.2092C14.4954 37.1397 14.0289 37.477 14.1393 37.9892C14.3094 38.7763 14.7958 39.5144 15.3272 40.3039C16.1821 41.5738 17.0181 42.8 17.8913 43.9616C18.6912 45.0257 19.4883 46.0732 20.3164 47.0651C20.5607 47.2136 20.8208 47.309 20.9748 47.2488C21.2102 47.1567 21.1473 46.9243 20.9578 46.6343C20.7694 46.3463 20.5317 46.0968 20.2827 45.862L20.3882 45.8518C19.6201 45.0731 18.8857 44.2886 18.2054 43.4946L18.342 43.3956L20.5912 45.7901C20.7382 45.8872 20.9467 45.7037 20.7786 45.3416C20.6679 45.1034 20.5221 44.8882 20.3496 44.6884L18.5775 43.2019L18.7141 43.0667L20.4344 44.4588C20.5769 44.5743 20.7126 44.2452 20.359 43.9273C19.8167 43.3657 19.2003 42.8571 18.5681 42.3597L18.7025 42.2003L20.0785 43.3075C20.4118 43.0377 20.2245 42.5875 19.6615 42.2313L19.17 41.9201L18.8194 41.8999C18.7137 42.092 18.5029 42.2229 18.2598 42.2229C17.9106 42.2229 17.6278 41.9526 17.6278 41.619C17.6278 41.411 17.7377 41.2279 17.9046 41.1192L17.594 40.9226L17.7403 40.7391L18.1802 41.0198C18.2061 41.0167 18.2327 41.0151 18.2596 41.0151C18.4975 41.0151 18.7048 41.1407 18.8126 41.3264L19.6276 41.3109L19.6133 41.3009L17.9077 40.1382L18.0312 39.9765L19.6041 41.0167C19.7808 40.8881 19.7436 40.6285 19.5783 40.5065L17.8482 39.2297L17.9796 39.0588L19.6571 40.2803C19.9844 40.2504 19.9684 39.7964 19.4316 39.3616L17.9125 38.1307L18.0623 37.9569L19.6568 39.2049C19.8535 39.1474 19.9518 38.7832 19.6018 38.541L18.2119 37.5784L18.3349 37.4097L19.7716 38.371C20.0144 38.3544 20.0438 37.9011 19.6405 37.6249L18.3746 36.758L18.5025 36.6015L19.7806 37.434C20.0985 37.4279 20.3025 36.8767 19.7825 36.6117L18.833 36.1274L18.9183 35.9459L19.9064 36.393C20.0529 36.2764 19.9619 36.0842 19.6886 35.8341L18.7208 35.4217L18.8334 35.2426L19.8027 35.6504C20.1226 35.3529 20.7979 35.2072 21.2135 35.3818C21.5012 35.5027 21.6696 36.0244 21.6394 36.4572C21.4854 36.9088 21.2341 37.2206 21.1776 37.8119C21.2087 38.176 21.3593 38.4129 21.6455 38.5059L21.6415 37.6808L21.8592 37.6884L21.7907 38.5676C21.7755 38.7629 21.9268 38.9096 22.1193 38.8997L22.0004 38.0742H22.2182C22.2363 38.3806 22.2682 38.6772 22.3794 38.9379C22.4863 39.1881 22.6826 39.2633 22.94 39.1383L22.4519 37.7811L22.6656 37.7233C22.7689 38.169 22.8857 38.6077 23.1229 38.9802C23.285 39.2348 23.5274 39.2729 23.8069 39.0194C23.4726 38.7425 23.1824 38.4341 22.9587 38.0778L23.1412 37.9602C23.3537 38.2956 23.5936 38.6292 23.9701 38.8742C24.1375 38.9833 24.4918 38.7038 24.1308 38.3786C23.7381 38.0248 23.2965 37.7019 22.817 37.4048L22.9586 37.2193L24.0705 38.0164C24.3027 37.8223 24.3346 37.5735 24.0915 37.3646C23.6514 36.9869 23.0395 36.8545 22.6229 36.5424L22.7488 36.3769C23.0389 36.6445 23.3818 36.832 23.7997 36.9052L23.9109 36.8298C23.1395 36.5544 22.8486 36.1522 22.853 35.6723C23.0469 35.684 23.1999 35.6453 23.3123 35.557C22.892 35.4443 22.9389 34.9449 23.3041 34.9845C23.5654 35.0129 23.7558 35.2716 24.0735 35.3544C24.5645 35.8644 25.1812 36.2414 25.9516 36.4743C26.2958 36.5783 26.7622 36.2551 26.8076 35.9727C26.8486 35.7188 26.575 35.7444 26.3603 35.7774C25.2994 35.9408 24.638 35.6231 24.2082 34.9303L24.4086 34.8043C24.6309 35.1373 24.9257 35.4671 25.3705 35.5662C25.6617 35.6309 25.9775 35.5972 26.2392 35.4928C26.2061 35.4162 26.1359 35.35 26.0232 35.3252C25.6829 35.2506 25.3007 35.2977 24.9467 35.1809L24.9692 34.9996C25.3612 35.0436 25.7213 35.0885 26.1378 35.0936C26.2042 35.0781 26.2603 35.0461 26.3021 34.9912C26.2023 34.9371 26.1239 34.867 26.0611 34.7855C25.5845 34.7842 25.2261 34.6025 24.9429 34.3063L25.1036 34.1834C25.3473 34.4499 25.6657 34.5887 26.08 34.5637C26.1657 34.4313 26.3647 34.3247 26.692 34.4515C27.0486 34.5898 27.2814 34.6954 27.4633 34.6199L27.0513 34.0701L27.2425 33.9563L27.6507 34.5048L27.9821 34.4803L27.5783 34.0619C28.3821 34.0936 28.9849 33.9391 29.2977 33.5154C28.9849 33.0917 28.3821 32.937 27.5783 32.969L27.9821 32.5505L27.6507 32.5261L27.2425 33.0746L27.0513 32.9607L27.4633 32.411C27.2814 32.3353 27.0486 32.4411 26.692 32.5793C26.3647 32.7061 26.1655 32.5996 26.08 32.4672C25.6657 32.4422 25.3473 32.5808 25.1036 32.8475L24.9429 32.7245C25.2263 32.4283 25.5846 32.2466 26.0611 32.2454C26.1239 32.1637 26.2023 32.0936 26.3021 32.0396C26.2603 31.9847 26.2042 31.9528 26.1378 31.9373C25.7215 31.9424 25.3612 31.9873 24.9692 32.0312L24.9467 31.8499C25.3007 31.7332 25.6827 31.7802 26.0232 31.7056C26.1359 31.6808 26.2063 31.6148 26.2392 31.538C25.9777 31.4337 25.6617 31.3998 25.3705 31.4647C24.9257 31.5637 24.6309 31.8937 24.4086 32.2266L24.2082 32.1005C24.638 31.4078 25.2994 31.09 26.3603 31.2535C26.5752 31.2865 26.8486 31.312 26.8076 31.0581C26.7622 30.7758 26.2956 30.4525 25.9516 30.5565C25.1812 30.7893 24.5645 31.1663 24.0735 31.6765C23.7558 31.7593 23.5654 32.0181 23.3041 32.0464C22.9389 32.0861 22.892 31.5867 23.3123 31.4738C23.1999 31.3853 23.0467 31.3469 22.853 31.3585C22.8486 30.8786 23.1395 30.4764 23.9109 30.201L23.7997 30.1257C23.3818 30.1988 23.0389 30.3863 22.7488 30.6539L22.6229 30.4885C23.0395 30.1764 23.6512 30.0441 24.0915 29.6662C24.3346 29.4574 24.3027 29.2086 24.0705 29.0145L22.9586 29.8116L22.817 29.6261C23.2965 29.3289 23.7381 29.0061 24.1308 28.6522C24.4918 28.327 24.1375 28.0476 23.9701 28.1567C23.5936 28.4016 23.3539 28.7352 23.1412 29.0707L22.9587 28.953C23.1824 28.5968 23.4726 28.2883 23.8069 28.0115C23.5276 27.7579 23.2852 27.796 23.1229 28.0507C22.8855 28.4233 22.7689 28.8618 22.6656 29.3076L22.4519 29.2498L22.94 27.8925C22.6826 27.7676 22.4863 27.8427 22.3794 28.093C22.2682 28.3536 22.2361 28.6502 22.2182 28.9567H22.0004L22.1193 28.1311C21.9268 28.1213 21.7755 28.2679 21.7907 28.4633L21.8592 29.3424L21.6415 29.3501L21.6455 28.5249C21.3593 28.6179 21.2087 28.8549 21.1776 29.219C21.2341 29.8103 21.4856 30.1222 21.6394 30.5737C21.6696 31.0065 21.5014 31.5282 21.2135 31.6491C20.7979 31.8238 20.1226 31.6781 19.8027 31.3804L18.8334 31.7883L18.7208 31.6092L19.6886 31.1967C19.9619 30.9467 20.0529 30.7544 19.9064 30.6379L18.9183 31.0849L18.833 30.9034L19.7825 30.4192C20.3025 30.154 20.0985 29.6027 19.7806 29.5969L18.5025 30.4294L18.3746 30.2729L19.6405 29.4059C20.0438 29.1298 20.0144 28.6767 19.7716 28.6599L18.3349 29.6212L18.2119 29.4524L19.6018 28.4899C19.9518 28.2475 19.8535 27.8834 19.6568 27.826L18.0623 29.074L17.9125 28.9001L19.4316 27.6693C19.9684 27.2342 19.9844 26.7803 19.6571 26.7505L17.9796 27.9721L17.8482 27.8012L19.5783 26.5243C19.7436 26.4023 19.7808 26.1428 19.6041 26.0142L18.0312 27.0544L17.9077 26.8926L19.6133 25.73C19.9067 25.5299 20.0388 25.1514 19.8464 24.9477L17.7402 26.2918L17.5938 26.1083L19.661 24.7996C20.2239 24.4431 20.4111 23.9932 20.0779 23.7234L18.7019 24.8306L18.5676 24.6711C19.1997 24.1737 19.8161 23.6654 20.3584 23.1036C20.712 22.7857 20.5763 22.4566 20.4338 22.5721L18.7135 23.9642L18.5769 23.829L20.3491 22.3424C20.5216 22.1427 20.6674 21.9275 20.778 21.6892C20.9461 21.3274 20.7376 21.1437 20.5906 21.2407L18.3414 23.6353L18.2048 23.5362C18.8851 22.7422 19.6196 21.9577 20.3876 21.1791L20.2821 21.1689C20.5311 20.9339 20.7689 20.6844 20.9572 20.3966C21.1467 20.1067 21.2097 19.8742 20.9742 19.7821C20.82 19.7217 20.5601 19.8171 20.3159 19.9657C19.4877 20.9576 18.6908 22.0052 17.8907 23.0693C17.0175 24.2308 16.1815 25.4571 15.3266 26.727C14.7952 27.5166 14.3088 28.2548 14.1388 29.0417C14.0283 29.5539 14.4948 29.8911 15.0503 29.8216C15.385 29.7798 15.5377 29.5723 16.0352 29.7335C16.3664 29.841 16.5156 30.2014 16.3821 30.6464C16.2813 30.9817 16.0512 31.2642 15.7153 31.4559C15.4041 31.6336 15.0748 31.605 14.8278 31.3828C14.4174 31.0136 14.1329 30.5534 13.8909 30.0695C13.7167 29.7211 13.4663 29.5666 13.1881 29.5528C12.8879 29.5378 12.6971 29.6438 12.7009 29.9221L12.7212 31.3591L12.8698 31.2816C13.274 32.2021 14.2017 32.9427 15.6171 33.5158C14.2019 34.0889 13.2742 34.8295 12.8698 35.75L12.8704 35.7493ZM19.5776 41.9106L19.8474 42.0828C19.8955 42.0319 19.9232 41.9699 19.9333 41.9026L19.5774 41.9106H19.5776ZM20.9752 33.5151C20.6031 34.1451 20.0653 34.6775 19.2883 35.0009C18.4786 35.338 17.7415 35.4091 17.0688 35.3996C17.0143 34.4386 16.4429 33.8784 15.6176 33.5151C16.4431 33.1517 17.0145 32.5916 17.0688 31.6305C17.7415 31.6208 18.4784 31.692 19.2883 32.0292C20.0651 32.3526 20.6031 32.8851 20.9752 33.5151ZM11.4245 33.5151C11.4245 34.0258 11.501 34.5763 11.6508 35.0819L12.1212 35.0928L12.1804 33.5151L12.1212 31.9373L11.6508 31.9482C11.501 32.4539 11.4245 33.0043 11.4245 33.5151ZM11.1927 35.8048L12.4861 35.8969L12.5092 35.643C12.3639 35.5507 12.2307 35.4483 12.1164 35.3301L11.6161 35.3228C11.4904 35.4595 11.3512 35.5892 11.1904 35.7073L11.1927 35.8049V35.8048ZM11.1927 36.3935L12.4746 36.2941L12.4822 36.1101L11.185 36.0182L11.1927 36.3935ZM11.2337 36.6048L12.4714 36.5112L12.4635 37.0427C12.2092 37.1941 11.9428 37.2986 11.7119 37.2842C11.3427 37.2614 11.2299 36.9849 11.2339 36.6046L11.2337 36.6048ZM8.28379 33.5151C8.27425 33.6944 8.38282 33.8147 8.53205 33.808C8.66944 33.8018 8.82267 33.7172 8.93888 33.6074V34.0431L11.2049 33.7555V33.5152V33.275L8.93888 32.9874V33.4231C8.82267 33.3131 8.66944 33.2287 8.53205 33.2225C8.38282 33.2157 8.27425 33.3361 8.28379 33.5154V33.5151ZM8.65913 34.2897L8.65894 34.5889L11.2106 34.0727L11.2068 33.9696L8.65913 34.2897ZM13.0154 29.3366C13.1931 29.2978 13.4123 29.3543 13.6638 29.4856C13.5791 29.1602 13.5201 28.8346 13.4801 28.5092C13.2058 28.7416 13.037 29.0123 13.0152 29.3366H13.0154ZM11.1929 31.2254L12.4863 31.1333L12.5093 31.3872C12.3641 31.4795 12.2309 31.5818 12.1166 31.7L11.6163 31.7073C11.4905 31.5707 11.3514 31.441 11.1906 31.3228L11.1929 31.2252V31.2254ZM11.1929 30.6366L12.4748 30.736L12.4824 30.92L11.1852 31.012L11.1929 30.6366ZM11.2339 30.4254L12.4716 30.5189L12.4637 29.9874C12.2094 29.836 11.943 29.7315 11.7121 29.7459C11.3429 29.7687 11.2301 30.0452 11.2341 30.4255L11.2339 30.4254ZM8.65932 32.7406L8.65913 32.4414L11.2108 32.9576L11.207 33.0607L8.65932 32.7406Z" fill="#E8A968"/>
<path fill-rule="evenodd" clip-rule="evenodd" d="M34.303 43.5942C34.6389 43.6495 34.9045 43.9016 34.9051 44.3134C34.906 44.9887 34.748 45.4226 34.5175 45.7057C34.3488 45.615 34.1614 45.5627 33.9594 45.5401L34.303 43.5942ZM31.7286 7.80227C31.8563 7.80227 31.9599 7.90113 31.9599 8.02334C31.9599 8.14537 31.8565 8.24441 31.7286 8.24441C31.601 8.24441 31.4974 8.14555 31.4974 8.02334C31.4974 7.90131 31.6008 7.80227 31.7286 7.80227ZM33.5 7.48726C33.2922 7.48726 33.1152 7.61275 33.047 7.78895C32.6131 7.61841 32.3074 7.21037 32.3074 6.73394C32.3074 6.10429 32.8413 5.59375 33.5 5.59375C34.1588 5.59375 34.6927 6.10429 34.6927 6.73394C34.6927 7.21037 34.387 7.61841 33.9531 7.78895C33.8851 7.61294 33.7079 7.48726 33.5 7.48726ZM35.2714 7.80227C35.1438 7.80227 35.0402 7.90113 35.0402 8.02334C35.0402 8.14537 35.1436 8.24441 35.2714 8.24441C35.3991 8.24441 35.5027 8.14555 35.5027 8.02334C35.5027 7.90131 35.3993 7.80227 35.2714 7.80227ZM28.9747 33.5145L16.2473 11.9203H24.1481L24.4915 12.4623C24.8495 12.2346 25.23 12.287 25.643 12.7366L25.6836 13.4175C26.1158 12.7568 26.6583 12.579 27.106 12.9642C27.6474 13.4301 27.1871 14.1223 26.5841 14.1371C26.7784 14.8291 26.686 15.2335 26.3578 15.4006L26.4711 15.5631C26.7383 15.5288 27.0751 14.9852 26.8631 14.2938C27.2733 14.6701 27.7046 14.9448 28.1315 14.9106C28.5837 14.8747 28.8986 14.5493 29.11 14.0112L29.4674 14.1495L29.8248 13.6619C30.6953 14.4289 31.5556 14.7403 32.3956 14.1606C32.8268 14.0415 33.1987 13.7989 33.4997 13.4087C33.8008 13.7989 34.1727 14.0413 34.6038 14.1606C35.4439 14.7401 36.3042 14.4289 37.1745 13.6619L37.5319 14.1495L37.8893 14.0112C38.101 14.5493 38.4158 14.8747 38.8679 14.9106C39.2947 14.9446 39.7262 14.6701 40.1363 14.2938C39.9243 14.9851 40.2611 15.5288 40.5282 15.5631L40.6416 15.4006C40.3131 15.2335 40.221 14.8293 40.4152 14.1371C39.8122 14.1223 39.3522 13.4299 39.8933 12.9642C40.3412 12.579 40.8835 12.7568 41.3157 13.4175L41.3564 12.7366C41.7693 12.287 42.1498 12.2344 42.5078 12.4623L42.8513 11.9203H50.752L38.0246 33.5145L51.0499 55.2564H42.8971L41.6754 53.3899C41.626 53.3671 41.5709 53.3279 41.5117 53.2775C41.3359 53.1276 41.1835 52.9383 41.04 52.74L41.0337 52.8241C40.5582 52.2125 40.079 51.6275 39.5941 51.0856L39.5336 51.1945L40.9961 52.9859C41.0552 53.1028 40.9432 53.269 40.7223 53.1351C40.5767 53.047 40.4452 52.9308 40.3233 52.7934L39.4153 51.382L39.3329 51.4909L40.1832 52.8609C40.2536 52.9746 40.0527 53.0825 39.8584 52.8009C39.5153 52.369 39.2049 51.8782 38.9011 51.3747L38.8037 51.4816L39.48 52.5777C39.3151 52.8431 39.0404 52.6939 38.8226 52.2457L38.0233 50.5992L37.9113 50.7157L38.7322 52.3933C38.6078 52.5465 38.3765 52.4412 38.2544 52.2076L37.5443 50.8492L37.4455 50.9475L38.0807 52.2003C38.0023 52.3409 37.8437 52.3114 37.7693 52.1797L36.9896 50.8018L36.8852 50.9065L37.6313 52.2426C37.613 52.5032 37.3358 52.4905 37.0701 52.0629L36.3185 50.8531L36.2122 50.9723L36.9745 52.2424C36.9394 52.3991 36.7169 52.4775 36.5688 52.1986L35.9809 51.0916L35.8779 51.1898L36.465 52.334C36.4549 52.5273 36.178 52.5509 36.0095 52.2295L35.48 51.2213L35.3844 51.3231L35.8928 52.3411C35.8891 52.5944 35.5525 52.7568 35.3905 52.3427L35.0947 51.5865L34.9839 51.6543L35.2569 52.4412C35.1858 52.558 35.0684 52.4854 34.9156 52.2678L34.6637 51.4969L34.5541 51.5867L34.8034 52.3588C34.6217 52.6134 34.5326 53.1513 34.6393 53.4824C34.7131 53.7117 35.0318 53.8455 35.2961 53.8215C35.5718 53.6989 35.7622 53.4986 36.1235 53.4536C36.3458 53.4784 36.4904 53.5984 36.5475 53.8264L36.0435 53.8231L36.0483 53.9966L36.5851 53.942C36.7043 53.93 36.7938 54.0502 36.7879 54.2038L36.2838 54.1091V54.2826C36.4709 54.297 36.652 54.3225 36.8112 54.4112C36.964 54.4963 37.0098 54.6527 36.9337 54.8577L36.1048 54.469L36.0693 54.6392C36.3416 54.7214 36.6095 54.8143 36.8369 55.0032C36.9925 55.1326 37.0157 55.3255 36.861 55.5481C36.6919 55.2818 36.5036 55.0507 36.286 54.8726L36.2141 55.0178C36.419 55.1873 36.6228 55.3783 36.7724 55.6779C36.839 55.8113 36.6685 56.0935 36.4696 55.806C36.2536 55.4932 36.0565 55.1417 35.8748 54.7597L35.7615 54.8725L36.2483 55.758C36.1298 55.943 35.9779 55.9683 35.8502 55.7746C35.6195 55.4242 35.5386 54.9368 35.3482 54.6051L35.2472 54.7054C35.4106 54.9363 35.525 55.2094 35.5697 55.5422L35.5237 55.6309C35.3554 55.0164 35.1098 54.7847 34.8167 54.7882C34.824 54.9427 34.8005 55.0645 34.7463 55.1541C34.6774 54.8192 34.3725 54.8566 34.3967 55.1475C34.4141 55.3555 34.5721 55.5072 34.6227 55.7602C34.9343 56.1513 35.1646 56.6425 35.3067 57.2559C35.3703 57.53 35.1728 57.9016 35.0005 57.9377C34.8455 57.9704 34.861 57.7526 34.8812 57.5815C34.981 56.7364 34.7869 56.2096 34.3639 55.8673L34.2868 56.0269C34.4902 56.204 34.6917 56.4387 34.7522 56.793C34.7919 57.0248 34.7711 57.2765 34.7074 57.4846C34.6606 57.4585 34.6202 57.4024 34.6051 57.3124C34.5595 57.0414 34.5883 56.7371 34.5169 56.4552L34.4063 56.473C34.4332 56.7853 34.4606 57.072 34.4637 57.4038C34.4543 57.4567 34.4347 57.5014 34.4013 57.5346C34.3681 57.4551 34.3255 57.3927 34.2755 57.3427C34.2748 56.9631 34.1639 56.6777 33.9828 56.4521L33.9078 56.5799C34.0706 56.774 34.1553 57.0277 34.1401 57.3575C34.0592 57.4257 33.9941 57.5844 34.0716 57.8451C34.1559 58.1291 34.2206 58.3146 34.1744 58.4594L33.8388 58.1312L33.7693 58.2835L34.1044 58.6086L34.0895 58.8725L33.834 58.5509C33.8535 59.1912 33.759 59.6713 33.5002 59.9202C33.2413 59.6713 33.147 59.1912 33.1663 58.5509L32.9108 58.8725L32.8959 58.6086L33.231 58.2835L33.1615 58.1312L32.8257 58.4594C32.7795 58.3146 32.8442 58.1291 32.9285 57.8451C33.006 57.5844 32.9409 57.4257 32.86 57.3575C32.8448 57.0275 32.9295 56.774 33.0923 56.5799L33.0173 56.4521C32.8362 56.6777 32.7253 56.963 32.7245 57.3427C32.6747 57.3927 32.632 57.4553 32.5988 57.5346C32.5654 57.5014 32.5457 57.4567 32.5364 57.4038C32.5395 57.072 32.5669 56.7853 32.5938 56.473L32.4832 56.4552C32.4118 56.7371 32.4406 57.0414 32.395 57.3124C32.3799 57.4024 32.3395 57.4584 32.2927 57.4846C32.229 57.2763 32.2084 57.0248 32.2479 56.793C32.3084 56.4387 32.5099 56.204 32.7133 56.0269L32.6362 55.8673C32.213 56.2096 32.0189 56.7364 32.1187 57.5815C32.1389 57.7526 32.1544 57.9704 31.9994 57.9377C31.8271 57.9014 31.6296 57.53 31.6932 57.2559C31.8353 56.6425 32.0656 56.1511 32.3771 55.7602C32.4276 55.5072 32.5856 55.3555 32.603 55.1475C32.6272 54.8566 32.3223 54.819 32.2534 55.1541C32.1994 55.0645 32.1759 54.9425 32.183 54.7882C31.8899 54.7847 31.6443 55.0164 31.476 55.6309L31.43 55.5422C31.4747 55.2094 31.5892 54.9363 31.7525 54.7054L31.6516 54.6051C31.4611 54.9368 31.3802 55.4242 31.1495 55.7746C31.022 55.9683 30.8701 55.943 30.7515 55.758L31.2382 54.8725L31.1249 54.7597C30.9434 55.1417 30.7463 55.4934 30.5303 55.806C30.3316 56.0936 30.1611 55.8113 30.2275 55.6779C30.3771 55.3781 30.5809 55.1871 30.7858 55.0178L30.7139 54.8726C30.4963 55.0507 30.3078 55.2819 30.1389 55.5481C29.984 55.3255 30.0072 55.1326 30.1628 55.0032C30.3902 54.8143 30.6581 54.7212 30.9304 54.6392L30.8951 54.469L30.0662 54.8577C29.9899 54.6527 30.0359 54.4963 30.1887 54.4112C30.3479 54.3225 30.529 54.2972 30.7162 54.2826V54.1091L30.212 54.2038C30.2059 54.0504 30.2954 53.93 30.4147 53.942L30.9514 53.9966L30.9562 53.8231L30.4522 53.8264C30.5091 53.5984 30.6538 53.4785 30.8763 53.4536C31.2373 53.4986 31.4277 53.6989 31.7035 53.8215C31.9679 53.8455 32.2866 53.7115 32.3605 53.4824C32.4671 53.1513 32.378 52.6134 32.1964 52.3588L32.4456 51.5867L32.336 51.4969L32.0842 52.2678C31.9313 52.4854 31.8139 52.558 31.7428 52.4412L32.0158 51.6543L31.905 51.5865L31.6092 52.3427C31.4472 52.7568 31.1106 52.5944 31.107 52.3411L31.6153 51.3231L31.5197 51.2213L30.9902 52.2295C30.8215 52.5507 30.5448 52.5273 30.5347 52.334L31.1216 51.1898L31.0186 51.0916L30.4309 52.1986C30.2828 52.4773 30.0605 52.3991 30.0252 52.2424L30.7873 50.9723L30.681 50.8531L29.9294 52.0629C29.6638 52.4905 29.3865 52.5032 29.3682 52.2426L30.1141 50.9065L30.0097 50.8018L29.23 52.1797C29.1556 52.3114 28.997 52.3409 28.9186 52.2003L29.5539 50.9475L29.455 50.8492L28.745 52.2076L28.7389 52.2189L28.7293 51.5699V51.5697C28.8427 51.4838 28.9194 51.3189 28.9194 51.1294C28.9194 51.1081 28.9184 51.0869 28.9165 51.0661L29.0881 50.7157L28.976 50.5992L28.856 50.8465C28.7896 50.7135 28.6778 50.626 28.5507 50.626C28.3469 50.626 28.1818 50.8512 28.1818 51.1294C28.1818 51.3229 28.2618 51.4909 28.3792 51.575L28.3668 51.8543L28.1767 52.2457C27.9592 52.694 27.6842 52.8432 27.5193 52.5777L28.1956 51.4816L28.0983 51.3747C27.7945 51.8782 27.484 52.3692 27.1407 52.8009C26.9467 53.0825 26.7457 52.9746 26.8161 52.8609L27.6664 51.4909L27.5838 51.382L26.6759 52.7934C26.5539 52.9308 26.4225 53.047 26.2769 53.1351C26.0557 53.269 25.9437 53.1028 26.003 52.9859L27.4655 51.1945L27.405 51.0856C26.9201 51.6273 26.441 52.2125 25.9655 52.8241L25.9592 52.74C25.8157 52.9383 25.6634 53.1278 25.4874 53.2775C25.4283 53.3279 25.3731 53.3671 25.3237 53.3899L24.1021 55.2564H15.9492L28.9745 33.5145H28.9747ZM40.228 51.1774L33.5 40.8981L26.7721 51.1774C26.8875 51.0634 27.0035 50.9494 27.1199 50.8354C27.8292 50.1399 28.5784 49.4741 29.3539 48.7932C29.8361 48.3698 30.287 47.9826 30.7675 47.8471C31.0802 47.759 31.2861 48.1307 31.2438 48.573C31.2182 48.8397 31.0915 48.9612 31.19 49.3574C31.2556 49.6213 31.4758 49.74 31.7475 49.6337C31.9523 49.5536 32.1248 49.3703 32.242 49.1027C32.3505 48.8548 32.333 48.5926 32.1973 48.3959C31.9718 48.0689 31.6907 47.8423 31.3951 47.6495C31.1823 47.5107 31.0881 47.3114 31.0795 47.0897C31.0703 46.8506 31.1352 46.6987 31.305 46.7018L32.1826 46.7178L32.1353 46.8362C32.6975 47.158 33.1497 47.8971 33.4999 49.0241C33.8498 47.8969 34.3023 47.158 34.8644 46.8362L34.8171 46.7178L35.6947 46.7018C35.8645 46.6987 35.9294 46.8506 35.9202 47.0897C35.9118 47.3114 35.8174 47.5107 35.6046 47.6495C35.309 47.8423 35.028 48.0689 34.8024 48.3959C34.6667 48.5926 34.6492 48.8548 34.7578 49.1027C34.8749 49.3701 35.0474 49.5534 35.2522 49.6337C35.5239 49.74 35.7441 49.6213 35.8096 49.3574C35.9082 48.9612 35.7815 48.8397 35.7559 48.573C35.7136 48.1307 35.9195 47.759 36.2322 47.8471C36.7129 47.9824 37.1638 48.3698 37.646 48.7932C38.4215 49.4741 39.1705 50.1399 39.88 50.8354C39.9962 50.9494 40.1124 51.0634 40.2278 51.1774H40.228ZM38.2465 53.4426C38.4101 53.2442 38.4017 52.775 38.2338 52.7436C38.0643 52.7986 38.0851 53.3025 38.2465 53.4426ZM38.8715 55.2741C38.7442 55.1284 38.6066 55.1191 38.4597 55.2291C38.3847 55.1147 38.2918 55.1019 38.1773 55.2097C37.9918 55.1605 37.8702 55.2416 37.7985 55.4248C37.5741 55.1944 37.4569 54.8571 37.5333 54.417C37.6187 53.9242 37.8668 53.6365 38.2557 53.6416C38.6242 53.6465 38.9051 53.8807 39.0053 54.4352C39.0562 54.7171 39.0157 55.0016 38.8713 55.2739L38.8715 55.2741ZM38.5374 55.3735C38.7131 55.2695 38.8013 55.3496 38.8104 55.595C38.807 55.7002 38.7658 55.7808 38.6856 55.8357L38.5185 55.8036C38.5335 55.6845 38.5406 55.543 38.5372 55.3735H38.5374ZM38.2586 55.367C38.2681 55.2905 38.3868 55.2916 38.3998 55.4022C38.425 55.6181 38.3773 55.8297 38.3151 56.0216L38.0727 56.3233L37.875 56.2943C38.0983 56.0621 38.2105 55.7509 38.2586 55.3668V55.367ZM37.5903 56.1339L37.7174 56.2334C37.9485 56.0508 38.0824 55.7626 38.1267 55.3764C38.0244 55.3212 37.941 55.3857 37.9056 55.5369C37.8546 55.7546 37.7716 55.9616 37.5903 56.1339ZM37.0818 55.2591C37.0888 55.4344 37.0598 55.576 36.9762 55.6659L37.4764 56.03C37.5888 55.9329 37.6924 55.8162 37.7388 55.6442C37.7552 55.5833 37.7197 55.5357 37.6722 55.5479C37.4707 55.6001 37.2762 55.4707 37.0818 55.259V55.2591ZM29.7832 54.6798C29.8055 54.7949 29.9094 54.89 30.0927 54.9653L29.9351 55.157C29.7246 55.142 29.5029 55.1853 29.276 55.2546C29.173 55.3339 29.0766 55.3925 28.9923 55.4111L28.8804 55.677L28.8117 55.2938C28.8694 55.1486 28.849 55.0246 28.7869 54.912L28.7917 54.0735C28.8824 54.2043 28.9297 54.3938 28.9322 54.6445C29.0005 54.7796 29.1121 54.8705 29.2934 54.8909C29.4489 54.8376 29.6096 54.7727 29.7834 54.6797L29.7832 54.6798ZM28.7058 55.4512C28.7429 55.63 28.7331 55.8146 28.6692 56.0059L28.4786 55.9596L28.4362 55.7573L28.7058 55.451V55.4512ZM28.6889 55.068C28.712 55.1079 28.7139 55.1574 28.6946 55.2163L28.2738 55.7055L28.113 55.5707L28.1214 55.4341L28.6889 55.0682V55.068ZM28.569 54.7118C28.6417 54.7422 28.6703 54.7991 28.6496 54.885L28.0695 55.2606C28.0353 55.2827 28.017 55.0043 28.075 54.9735L28.5692 54.7116L28.569 54.7118ZM28.3681 54.3497C28.4597 54.3116 28.5717 54.502 28.5066 54.537L28.0263 54.7958C27.9979 54.8112 27.9666 54.7335 27.9941 54.693C28.0962 54.5416 28.2147 54.4134 28.3681 54.3497ZM28.6454 54.3767L28.5946 51.639H28.4998L28.4557 54.1932L28.6454 54.3767ZM28.7932 51.1294C28.7932 51.3122 28.6847 51.4603 28.5507 51.4603C28.4167 51.4603 28.3082 51.3122 28.3082 51.1294C28.3082 50.9466 28.4167 50.7985 28.5507 50.7985C28.6847 50.7985 28.7932 50.9466 28.7932 51.1294ZM32.6971 43.5942C32.3612 43.6495 32.0956 43.9016 32.095 44.3134C32.0941 44.9887 32.2521 45.4226 32.4826 45.7057C32.6513 45.615 32.8387 45.5627 33.0407 45.5401L32.6971 43.5942ZM30.948 46.9515C30.9241 47.0928 30.9589 47.2676 31.039 47.468C30.8402 47.4006 30.6413 47.3535 30.4427 47.3216C30.5845 47.1031 30.7499 46.9688 30.948 46.9515ZM33.5 49.4073C33.2795 49.9536 32.9535 50.3 32.4885 50.3826C32.4923 50.9844 32.573 51.5203 32.7476 51.9796C32.9329 52.4671 33.186 52.8416 33.5 53.0784C33.8141 52.8416 34.0672 52.4671 34.2525 51.9796C34.4271 51.5201 34.5076 50.9844 34.5116 50.3826C34.0466 50.3 33.7206 49.9534 33.5 49.4073ZM28.3725 52.1782L28.2671 52.3931C28.2984 52.4314 28.3362 52.4534 28.3772 52.4615L28.3725 52.178V52.1782ZM33.5 53.2912C33.1154 52.9948 32.7902 52.5665 32.5925 51.9478C32.3866 51.3029 32.3431 50.7159 32.349 50.1802C32.936 50.1368 33.2781 49.6817 33.5 49.0243C33.722 49.6817 34.0641 50.1368 34.6511 50.1802C34.657 50.7159 34.6135 51.3029 34.4076 51.9478C34.2101 52.5665 33.8847 52.995 33.5 53.2912ZM33.5 45.6845C33.1881 45.6845 32.8518 45.7454 32.5431 45.8649L32.5364 46.2396L33.5 46.2866L34.4637 46.2396L34.4568 45.8649C34.1481 45.7456 33.8119 45.6845 33.4999 45.6845H33.5ZM32.1015 45.4997L32.0452 46.53L32.2004 46.5484C32.2567 46.4327 32.3192 46.3268 32.3914 46.2357L32.396 45.8372C32.3124 45.7371 32.2332 45.6262 32.1612 45.4981L32.1015 45.4997ZM31.742 45.4997L31.8027 46.5208L31.9151 46.5269L31.9714 45.4937L31.742 45.4997ZM31.613 45.5324L31.6703 46.5181L31.3455 46.5119C31.2529 46.3092 31.1892 46.0973 31.198 45.9133C31.2119 45.6192 31.3808 45.5295 31.613 45.5326V45.5324ZM33.5 43.1829C33.3905 43.1752 33.317 43.2617 33.3212 43.3806C33.3251 43.4901 33.3766 43.6121 33.4438 43.7047H33.1778L33.3535 45.5094H33.5002H33.647L33.8227 43.7047H33.5567C33.6239 43.6121 33.6754 43.4901 33.6792 43.3806C33.6834 43.2617 33.6098 43.1752 33.5004 43.1829H33.5ZM33.027 43.4818H32.8444L33.1596 45.5142L33.2226 45.5111L33.027 43.4818ZM36.0521 46.9515C36.0758 47.0928 36.0412 47.2676 35.9611 47.468C36.1599 47.4006 36.3586 47.3535 36.5574 47.3216C36.4156 47.1031 36.2502 46.9688 36.0521 46.9515ZM34.8986 45.4997L34.9549 46.53L34.7997 46.5484C34.7434 46.4327 34.6809 46.3268 34.6087 46.2357L34.6041 45.8372C34.6877 45.7371 34.7669 45.6262 34.8389 45.4981L34.8984 45.4997H34.8986ZM35.2581 45.4997L35.1974 46.5208L35.085 46.5269L35.0287 45.4937L35.2579 45.4997H35.2581ZM35.3871 45.5324L35.33 46.5181L35.6548 46.5119C35.7474 46.3092 35.8111 46.0973 35.8023 45.9133C35.7884 45.6192 35.6195 45.5295 35.3873 45.5326L35.3871 45.5324ZM33.9731 43.4817H34.1559L33.8407 45.514L33.7777 45.5109L33.9731 43.4817ZM25.1218 13.4558L25.2949 13.7289C25.4619 13.7934 25.5798 13.9499 25.5798 14.1327C25.5798 14.1469 25.579 14.161 25.5777 14.1748L25.751 14.4481C25.8031 14.354 25.8324 14.2465 25.8324 14.1327C25.8324 13.759 25.5155 13.4558 25.1245 13.4558H25.1218ZM27.1709 16.6876L27.2913 16.8775C29.0064 15.8834 31.0451 15.3324 33.5002 15.3515C35.9554 15.3324 37.9941 15.8834 39.7092 16.8775L39.8296 16.6876C38.1656 15.6964 36.0914 15.1401 33.5002 15.1317C30.9091 15.1401 28.8348 15.6964 27.1709 16.6876ZM28.0975 18.1492L28.2391 18.3724C29.2172 17.6479 30.9488 17.2592 33.5002 17.2357C36.0517 17.2594 37.7832 17.6481 38.7614 18.3724L38.903 18.1492C37.4388 17.3386 35.6247 16.9867 33.5004 17.0415C31.376 16.9866 29.5619 17.3386 28.0979 18.1492H28.0975ZM28.8833 19.3886L33.5002 26.6706L38.1172 19.3886C37.1339 19.8265 35.5745 20.0409 33.5002 20.056C31.4262 20.0411 29.8666 19.8265 28.8833 19.3886ZM41.2493 14.4481L41.4226 14.1748C41.4212 14.161 41.4205 14.1469 41.4205 14.1327C41.4205 13.9499 41.5384 13.7934 41.7054 13.7289L41.8785 13.4558H41.8758C41.4848 13.4558 41.1678 13.7588 41.1678 14.1327C41.1678 14.2467 41.1972 14.354 41.2493 14.4481ZM33.5025 10.278L33.4978 10.2727C33.3277 10.2727 33.1921 10.3891 33.1594 10.5328C33.1247 10.6857 33.1797 10.8427 33.2251 10.9952L33.1611 11.0228C33.1047 10.892 33.0331 10.7926 32.9446 10.7353C32.794 10.6379 32.6196 10.6091 32.4687 10.7025C32.2116 10.8617 32.1614 11.1189 32.2057 11.3901L33.0001 11.912L33.0104 11.9072C33.1234 11.7671 33.3006 11.677 33.4999 11.677C33.6993 11.677 33.8763 11.7671 33.9893 11.9072L33.9996 11.912L34.794 11.3901C34.8383 11.1189 34.7881 10.8617 34.5311 10.7025C34.3801 10.6091 34.2057 10.6379 34.0551 10.7353C33.9666 10.7926 33.8952 10.892 33.8386 11.0228L33.7746 10.9952C33.8201 10.8427 33.8752 10.6857 33.8403 10.5328C33.8077 10.3891 33.672 10.2727 33.502 10.2727V10.278H33.5025ZM33.5 9.9568C33.3352 9.9568 33.2018 9.82911 33.2018 9.6717C33.2018 9.51411 33.3354 9.38643 33.5 9.38643C33.6649 9.38643 33.7983 9.51411 33.7983 9.6717C33.7983 9.82911 33.6647 9.9568 33.5 9.9568ZM33.5 9.06704C33.3627 9.06704 33.2512 8.96052 33.2512 8.82919C33.2512 8.69786 33.3625 8.59134 33.5 8.59134C33.6374 8.59134 33.7489 8.69786 33.7489 8.82919C33.7489 8.96052 33.6376 9.06704 33.5 9.06704ZM33.5 8.20027C33.3768 8.20027 33.2768 8.10469 33.2768 7.98686C33.2768 7.86903 33.3768 7.77345 33.5 7.77345C33.6233 7.77345 33.7233 7.86903 33.7233 7.98686C33.7233 8.10469 33.6233 8.20027 33.5 8.20027ZM30.9465 8.23584C31.068 8.23584 31.1665 8.32996 31.1665 8.44615C31.1665 8.56234 31.068 8.65646 30.9465 8.65646C30.8249 8.65646 30.7265 8.56234 30.7265 8.44615C30.7265 8.32996 30.8249 8.23584 30.9465 8.23584ZM30.2284 8.8664C30.35 8.8664 30.4484 8.96052 30.4484 9.07671C30.4484 9.1929 30.35 9.28702 30.2284 9.28702C30.1069 9.28702 30.0084 9.1929 30.0084 9.07671C30.0084 8.96052 30.1069 8.8664 30.2284 8.8664ZM29.6995 9.54986C29.821 9.54986 29.9195 9.64398 29.9195 9.76017C29.9195 9.87636 29.821 9.97048 29.6995 9.97048C29.5779 9.97048 29.4794 9.87636 29.4794 9.76017C29.4794 9.64398 29.5779 9.54986 29.6995 9.54986ZM29.2983 10.3707C29.4199 10.3707 29.5184 10.4648 29.5184 10.581C29.5184 10.6972 29.4199 10.7913 29.2983 10.7913C29.1768 10.7913 29.0783 10.6972 29.0783 10.581C29.0783 10.4648 29.1768 10.3707 29.2983 10.3707ZM29.081 11.2371C29.2026 11.2371 29.301 11.3312 29.301 11.4474C29.301 11.5636 29.2026 11.6577 29.081 11.6577C28.9594 11.6577 28.861 11.5636 28.861 11.4474C28.861 11.3312 28.9594 11.2371 29.081 11.2371ZM26.3024 11.642C26.424 11.642 26.5225 11.7361 26.5225 11.8523C26.5225 11.9685 26.424 12.0626 26.3024 12.0626C26.1809 12.0626 26.0824 11.9685 26.0824 11.8523C26.0824 11.7361 26.1809 11.642 26.3024 11.642ZM26.5801 10.8351C26.7016 10.8351 26.8001 10.9292 26.8001 11.0454C26.8001 11.1616 26.7016 11.2557 26.5801 11.2557C26.4585 11.2557 26.3601 11.1616 26.3601 11.0454C26.3601 10.9292 26.4585 10.8351 26.5801 10.8351ZM27.0787 10.0932C27.2003 10.0932 27.2987 10.1874 27.2987 10.3035C27.2987 10.4197 27.2003 10.5139 27.0787 10.5139C26.9572 10.5139 26.8587 10.4197 26.8587 10.3035C26.8587 10.1874 26.9572 10.0932 27.0787 10.0932ZM27.713 9.37074C27.8346 9.37074 27.933 9.46486 27.933 9.58105C27.933 9.69724 27.8346 9.79136 27.713 9.79136C27.5914 9.79136 27.493 9.69724 27.493 9.58105C27.493 9.46486 27.5914 9.37074 27.713 9.37074ZM28.4043 8.82609C28.5259 8.82609 28.6244 8.92021 28.6244 9.0364C28.6244 9.15259 28.5259 9.24671 28.4043 9.24671C28.2828 9.24671 28.1843 9.15259 28.1843 9.0364C28.1843 8.92021 28.2828 8.82609 28.4043 8.82609ZM29.1413 8.34309C29.2629 8.34309 29.3613 8.43721 29.3613 8.5534C29.3613 8.66959 29.2629 8.76371 29.1413 8.76371C29.0197 8.76371 28.9213 8.66959 28.9213 8.5534C28.9213 8.43721 29.0197 8.34309 29.1413 8.34309ZM30.0074 7.97263C30.129 7.97263 30.2275 8.06675 30.2275 8.18294C30.2275 8.29913 30.129 8.39325 30.0074 8.39325C29.8859 8.39325 29.7874 8.29913 29.7874 8.18294C29.7874 8.06675 29.8859 7.97263 30.0074 7.97263ZM29.0875 11.0388C29.3209 11.0388 29.5103 11.2197 29.5103 11.443C29.5103 11.6663 29.3211 11.8472 29.0875 11.8472C28.8541 11.8472 28.6646 11.6663 28.6646 11.443C28.6646 11.2199 28.8539 11.0388 29.0875 11.0388ZM29.3012 10.1793C29.5346 10.1793 29.7241 10.3603 29.7241 10.5835C29.7241 10.8068 29.5348 10.9877 29.3012 10.9877C29.0678 10.9877 28.8783 10.8068 28.8783 10.5835C28.8783 10.3605 29.0676 10.1793 29.3012 10.1793ZM33.5 12.645C33.2819 12.645 33.105 12.4759 33.105 12.2675C33.105 12.0588 33.2819 11.8899 33.5 11.8899C33.7182 11.8899 33.895 12.059 33.895 12.2675C33.895 12.4759 33.7182 12.645 33.5 12.645ZM28.5028 16.9253L28.6828 17.2299L29.7613 16.7053L29.5718 16.4129L28.5026 16.9253H28.5028ZM28.196 16.8498L29.6613 16.1284L30.0754 16.8036L28.603 17.5358L28.196 16.8498ZM31.0369 16.1324C31.1537 16.1324 31.2485 16.2228 31.2485 16.3346C31.2485 16.4463 31.1537 16.5369 31.0369 16.5369C30.9201 16.5369 30.8253 16.4465 30.8253 16.3346C30.8253 16.223 30.9201 16.1324 31.0369 16.1324ZM31.0369 15.9385C31.2657 15.9385 31.4514 16.1158 31.4514 16.3345C31.4514 16.5532 31.2659 16.7305 31.0369 16.7305C30.8081 16.7305 30.6225 16.5532 30.6225 16.3345C30.6225 16.1158 30.8079 15.9385 31.0369 15.9385ZM32.383 15.856H33.5H34.6171V16.3961H33.5H32.383V15.856ZM25.9011 12.8059C26.2517 12.5124 26.6461 12.4564 27.0957 12.6976C27.2314 11.6779 27.5434 10.7243 28.1891 9.91174C28.4767 9.54986 28.811 9.22828 29.1932 8.94866C29.18 8.94994 29.1669 8.95049 29.1533 8.95049C29.0224 8.95049 28.9054 8.89358 28.828 8.80438L28.7711 8.83539C28.8041 8.89303 28.823 8.95906 28.823 9.02947C28.823 9.25273 28.6337 9.43367 28.4001 9.43367C28.266 9.43367 28.1465 9.37402 28.0691 9.28082L28.0376 9.30362C28.1059 9.37548 28.1475 9.4707 28.1475 9.57521C28.1475 9.79847 27.9582 9.97941 27.7246 9.97941C27.5901 9.97941 27.4703 9.91922 27.3928 9.82565C27.3483 9.86541 27.3039 9.90572 27.2598 9.94695C27.3964 10.0139 27.4899 10.15 27.4899 10.3068C27.4899 10.5301 27.3006 10.711 27.0671 10.711C26.9255 10.711 26.8003 10.6444 26.7236 10.5425C26.6976 10.5784 26.6724 10.6147 26.6478 10.6512C26.847 10.6838 26.9988 10.8498 26.9988 11.0496C26.9988 11.2728 26.8095 11.4538 26.5759 11.4538C26.4614 11.4538 26.3576 11.4102 26.2815 11.3396C26.2666 11.3755 26.2521 11.4116 26.2379 11.4479C26.2496 11.447 26.2612 11.4465 26.2731 11.4465C26.5064 11.4465 26.6959 11.6274 26.6959 11.8507C26.6959 12.0739 26.5066 12.2549 26.2731 12.2549C26.1775 12.2549 26.0893 12.2246 26.0185 12.1733C25.9706 12.3804 25.9322 12.5918 25.901 12.8068L25.9011 12.8059ZM29.5369 8.71665C29.63 8.65864 29.7256 8.60283 29.8239 8.54939C29.763 8.52093 29.7103 8.4788 29.6703 8.42718C29.6359 8.43958 29.6018 8.45217 29.5678 8.46512C29.5733 8.4912 29.5764 8.51838 29.5764 8.54628C29.5764 8.60721 29.5623 8.66485 29.5371 8.71665H29.5369ZM28.9009 11.8313L28.4038 12.5385C28.3803 11.5873 28.5824 10.6569 29.3043 9.6551C29.293 9.69158 29.2869 9.73025 29.2869 9.7702C29.2869 9.99346 29.4762 10.1744 29.7098 10.1744C29.9431 10.1744 30.1326 9.99346 30.1326 9.7702C30.1326 9.54712 29.9433 9.366 29.7098 9.366C29.6195 9.366 29.5359 9.39299 29.4672 9.43914C29.5479 9.33663 29.6342 9.23339 29.7262 9.12924C29.747 9.10571 29.7681 9.08236 29.7893 9.05956C29.7889 9.06722 29.7886 9.07507 29.7886 9.08273C29.7886 9.30599 29.9779 9.48693 30.2114 9.48693C30.4448 9.48693 30.6343 9.30599 30.6343 9.08273C30.6343 8.85965 30.445 8.67853 30.2114 8.67853H30.2065C30.3078 8.60028 30.4135 8.52786 30.5242 8.46092C30.5326 8.67707 30.7186 8.84962 30.9467 8.84962C31.18 8.84962 31.3695 8.66868 31.3695 8.44542C31.3695 8.32211 31.3117 8.21158 31.2205 8.13734C31.2518 8.12658 31.2835 8.11618 31.3153 8.10615C31.3556 8.2891 31.5256 8.42663 31.729 8.42663C31.9624 8.42663 32.1519 8.24569 32.1519 8.02243C32.1519 7.99087 32.1481 7.96005 32.1408 7.93068C32.3874 7.90058 32.6478 7.88617 32.9234 7.888L32.9274 7.95403C31.8578 8.30989 31.1503 8.9109 30.7001 9.69888C30.1576 10.6485 29.9323 11.5588 29.8647 12.4778L28.9011 11.8308L28.9009 11.8313ZM28.2248 13.2725L28.9421 12.1288L30.0592 12.8933L29.4081 13.879L28.2248 13.2725ZM33.3375 12.8375C33.2997 13.4456 32.9959 13.8458 32.3252 13.9591C32.0769 13.7517 32.0618 13.4678 32.2328 13.1227C31.6647 13.2459 31.3382 13.1247 31.3012 12.7437C31.2707 12.4302 31.4647 12.2357 31.8592 12.169C31.6859 11.8702 31.7082 11.6435 32.0586 11.5371L32.899 12.0896L32.9068 12.1026C32.8909 12.1549 32.8824 12.2104 32.8824 12.2676C32.8824 12.54 33.0753 12.7692 33.3377 12.8375H33.3375ZM32.9396 10.4555C32.8299 10.411 32.7226 10.3991 32.6188 10.4285C32.6564 9.69104 32.756 8.94501 32.9375 8.18787L33.0447 8.10177C33.0978 8.2455 33.2232 8.3564 33.3791 8.39489C33.1709 8.44615 33.0173 8.62691 33.0173 8.84178C33.0173 9.0167 33.1192 9.169 33.2693 9.24725C33.1094 9.32696 33.0001 9.48693 33.0001 9.67134C33.0001 9.84973 33.1026 10.0053 33.2543 10.0874C33.0986 10.1576 32.9812 10.2924 32.9396 10.4555ZM33.5 15.6441H32.1408V16.6083H33.5H34.8593V15.6441H33.5ZM36.0536 8.23547C35.9321 8.23547 35.8336 8.32959 35.8336 8.44578C35.8336 8.56197 35.9321 8.65609 36.0536 8.65609C36.1752 8.65609 36.2736 8.56197 36.2736 8.44578C36.2736 8.32959 36.1752 8.23547 36.0536 8.23547ZM36.7717 8.86603C36.6501 8.86603 36.5517 8.96015 36.5517 9.07634C36.5517 9.19253 36.6501 9.28665 36.7717 9.28665C36.8932 9.28665 36.9917 9.19253 36.9917 9.07634C36.9917 8.96015 36.8932 8.86603 36.7717 8.86603ZM37.3006 9.54949C37.1791 9.54949 37.0806 9.64361 37.0806 9.7598C37.0806 9.87599 37.1791 9.97011 37.3006 9.97011C37.4222 9.97011 37.5207 9.87599 37.5207 9.7598C37.5207 9.64361 37.4222 9.54949 37.3006 9.54949ZM37.7018 10.3703C37.5802 10.3703 37.4817 10.4644 37.4817 10.5806C37.4817 10.6968 37.5802 10.7909 37.7018 10.7909C37.8233 10.7909 37.9218 10.6968 37.9218 10.5806C37.9218 10.4644 37.8233 10.3703 37.7018 10.3703ZM37.9191 11.2367C37.7975 11.2367 37.6991 11.3308 37.6991 11.447C37.6991 11.5632 37.7975 11.6573 37.9191 11.6573C38.0407 11.6573 38.1391 11.5632 38.1391 11.447C38.1391 11.3308 38.0407 11.2367 37.9191 11.2367ZM40.6977 11.6416C40.5761 11.6416 40.4776 11.7358 40.4776 11.8519C40.4776 11.9681 40.5761 12.0623 40.6977 12.0623C40.8192 12.0623 40.9177 11.9681 40.9177 11.8519C40.9177 11.7358 40.8192 11.6416 40.6977 11.6416ZM40.42 10.8347C40.2985 10.8347 40.2 10.9288 40.2 11.045C40.2 11.1612 40.2985 11.2553 40.42 11.2553C40.5416 11.2553 40.64 11.1612 40.64 11.045C40.64 10.9288 40.5416 10.8347 40.42 10.8347ZM39.9214 10.0929C39.7998 10.0929 39.7014 10.187 39.7014 10.3032C39.7014 10.4194 39.7998 10.5135 39.9214 10.5135C40.0429 10.5135 40.1414 10.4194 40.1414 10.3032C40.1414 10.187 40.0429 10.0929 39.9214 10.0929ZM39.2871 9.37038C39.1655 9.37038 39.0671 9.46449 39.0671 9.58068C39.0671 9.69687 39.1655 9.79099 39.2871 9.79099C39.4087 9.79099 39.5071 9.69687 39.5071 9.58068C39.5071 9.46449 39.4087 9.37038 39.2871 9.37038ZM38.5958 8.82572C38.4742 8.82572 38.3757 8.91984 38.3757 9.03603C38.3757 9.15222 38.4742 9.24634 38.5958 9.24634C38.7173 9.24634 38.8158 9.15222 38.8158 9.03603C38.8158 8.91984 38.7173 8.82572 38.5958 8.82572ZM37.8588 8.34272C37.7372 8.34272 37.6388 8.43684 37.6388 8.55303C37.6388 8.66922 37.7372 8.76334 37.8588 8.76334C37.9804 8.76334 38.0788 8.66922 38.0788 8.55303C38.0788 8.43684 37.9804 8.34272 37.8588 8.34272ZM36.9927 7.97227C36.8711 7.97227 36.7726 8.06639 36.7726 8.18258C36.7726 8.29877 36.8711 8.39288 36.9927 8.39288C37.1142 8.39288 37.2127 8.29877 37.2127 8.18258C37.2127 8.06639 37.1142 7.97227 36.9927 7.97227ZM37.9126 11.0384C37.6792 11.0384 37.4898 11.2194 37.4898 11.4426C37.4898 11.6659 37.679 11.8468 37.9126 11.8468C38.146 11.8468 38.3355 11.6659 38.3355 11.4426C38.3355 11.2196 38.1462 11.0384 37.9126 11.0384ZM37.6989 10.179C37.4655 10.179 37.276 10.3599 37.276 10.5832C37.276 10.8064 37.4653 10.9874 37.6989 10.9874C37.9323 10.9874 38.1217 10.8064 38.1217 10.5832C38.1217 10.3601 37.9325 10.179 37.6989 10.179ZM38.4971 16.9249L38.3172 17.2295L37.2386 16.7049L37.4281 16.4125L38.4973 16.9249H38.4971ZM38.8039 16.8494L37.3386 16.128L36.9245 16.8032L38.3969 17.5354L38.8039 16.8494ZM35.963 16.132C35.8462 16.132 35.7514 16.2225 35.7514 16.3343C35.7514 16.4459 35.8462 16.5366 35.963 16.5366C36.0798 16.5366 36.1746 16.4461 36.1746 16.3343C36.1746 16.2227 36.0798 16.132 35.963 16.132ZM35.963 15.9381C35.7342 15.9381 35.5485 16.1154 35.5485 16.3341C35.5485 16.5528 35.734 16.7301 35.963 16.7301C36.1918 16.7301 36.3774 16.5528 36.3774 16.3341C36.3774 16.1154 36.192 15.9381 35.963 15.9381ZM41.0988 12.8055C40.7482 12.5121 40.3538 12.4561 39.9042 12.6972C39.7685 11.6776 39.4565 10.724 38.8108 9.91138C38.5232 9.54949 38.1889 9.22792 37.8067 8.9483C37.8199 8.94957 37.833 8.95012 37.8466 8.95012C37.9775 8.95012 38.0945 8.89321 38.1719 8.80402L38.2288 8.83503C38.1958 8.89266 38.1769 8.95869 38.1769 9.0291C38.1769 9.25236 38.3662 9.4333 38.5998 9.4333C38.7339 9.4333 38.8534 9.37366 38.9308 9.28045L38.9623 9.30325C38.894 9.37512 38.8524 9.47033 38.8524 9.57485C38.8524 9.79811 39.0417 9.97905 39.2753 9.97905C39.4098 9.97905 39.5296 9.91886 39.6071 9.82528C39.6516 9.86505 39.696 9.90536 39.7401 9.94658C39.6035 10.0135 39.51 10.1496 39.51 10.3065C39.51 10.5297 39.6993 10.7107 39.9328 10.7107C40.0744 10.7107 40.1996 10.6441 40.2763 10.5421C40.3023 10.5781 40.3275 10.6144 40.3521 10.6508C40.1529 10.6835 40.0012 10.8495 40.0012 11.0492C40.0012 11.2725 40.1904 11.4534 40.424 11.4534C40.5385 11.4534 40.6423 11.4098 40.7185 11.3392C40.7333 11.3752 40.7478 11.4113 40.762 11.4476C40.7503 11.4467 40.7387 11.4461 40.7268 11.4461C40.4935 11.4461 40.304 11.627 40.304 11.8503C40.304 12.0736 40.4933 12.2545 40.7268 12.2545C40.8224 12.2545 40.9106 12.2242 40.9814 12.173C41.0293 12.38 41.0677 12.5914 41.099 12.8065L41.0988 12.8055ZM37.463 8.71628C37.3699 8.65828 37.2743 8.60246 37.176 8.54902C37.2369 8.52057 37.2896 8.47843 37.3296 8.42681C37.364 8.43921 37.3982 8.4518 37.4321 8.46475C37.4266 8.49083 37.4235 8.51801 37.4235 8.54592C37.4235 8.60684 37.4377 8.66448 37.4628 8.71628H37.463ZM38.099 11.831L38.5961 12.5381C38.6196 11.5869 38.4175 10.6565 37.6956 9.65474C37.7069 9.69122 37.713 9.72989 37.713 9.76983C37.713 9.99309 37.5237 10.174 37.2902 10.174C37.0568 10.174 36.8673 9.99309 36.8673 9.76983C36.8673 9.54676 37.0566 9.36563 37.2902 9.36563C37.3804 9.36563 37.464 9.39263 37.5327 9.43878C37.452 9.33627 37.3657 9.23303 37.2737 9.12888C37.2529 9.10535 37.2318 9.082 37.2106 9.0592C37.211 9.06686 37.2113 9.0747 37.2113 9.08236C37.2113 9.30562 37.022 9.48657 36.7885 9.48657C36.5551 9.48657 36.3656 9.30562 36.3656 9.08236C36.3656 8.85929 36.5549 8.67816 36.7885 8.67816H36.7934C36.6921 8.59991 36.5864 8.5275 36.4757 8.46056C36.4673 8.6767 36.2813 8.84925 36.0532 8.84925C35.8199 8.84925 35.6304 8.66831 35.6304 8.44505C35.6304 8.32175 35.6882 8.21121 35.7794 8.13698C35.7481 8.12621 35.7164 8.11582 35.6846 8.10578C35.6443 8.28873 35.4743 8.42626 35.2709 8.42626C35.0375 8.42626 34.848 8.24532 34.848 8.02206C34.848 7.99051 34.8518 7.95968 34.8591 7.93031C34.6125 7.90022 34.3521 7.88581 34.0765 7.88763L34.0725 7.95366C35.1421 8.30953 35.8496 8.91054 36.2998 9.69852C36.8423 10.6481 37.0677 11.5585 37.1352 12.4774L38.0989 11.8304L38.099 11.831ZM38.7751 13.2721L38.0578 12.1285L36.9408 12.8929L37.5918 13.8786L38.7751 13.2721ZM33.6624 12.8371C33.7002 13.4452 34.004 13.8454 34.6747 13.9587C34.923 13.7513 34.9381 13.4675 34.7671 13.1224C35.3352 13.2455 35.6617 13.1244 35.6987 12.7433C35.7292 12.4298 35.5352 12.2354 35.1407 12.1686C35.314 11.8698 35.2917 11.6431 34.9413 11.5368L34.1009 12.0893L34.0931 12.1022C34.109 12.1546 34.1175 12.21 34.1175 12.2673C34.1175 12.5396 33.9246 12.7689 33.6622 12.8371H33.6624ZM34.0603 10.4551C34.17 10.4106 34.2773 10.3988 34.3811 10.4281C34.3435 9.69067 34.2439 8.94465 34.0624 8.1875L33.9552 8.10141C33.9021 8.24514 33.7767 8.35604 33.6208 8.39453C33.829 8.44578 33.9826 8.62654 33.9826 8.84141C33.9826 9.01633 33.8807 9.16864 33.7306 9.24689C33.8905 9.3266 33.9998 9.48656 33.9998 9.67097C33.9998 9.84936 33.8973 10.005 33.7456 10.087C33.9013 10.1573 34.0187 10.2921 34.0603 10.4551Z" fill="#E8A968"/>
<path fill-rule="evenodd" clip-rule="evenodd" d="M33.4944 27.1844L23.9848 12.1855H16.7198L29.2904 33.5136L16.4258 54.9872H23.9417L33.4944 40.3923L43.0469 54.9872H50.5628L37.6984 33.5136L50.269 12.1855H43.0038L33.4944 27.1844Z" fill="#E8A968"/>
<path fill-rule="evenodd" clip-rule="evenodd" d="M33.5016 28.5086L23.6415 12.8299L17.8535 12.8223L30.0693 33.517L17.5195 54.474H23.526L33.5016 38.8747L43.477 54.474H49.4835L36.9337 33.517L49.1496 12.8223L43.3616 12.8299L33.5016 28.5086Z" fill="#363785"/>
<path fill-rule="evenodd" clip-rule="evenodd" d="M33.5032 30.3982L27.7938 21.3496H24.1266L31.2736 33.5348L23.9863 45.7117H27.8951L33.5032 37.0686L39.111 45.7117H43.0198L35.7327 33.5348L42.8796 21.3496H39.2124L33.5032 30.3982Z" fill="#E8A968"/>
<path fill-rule="evenodd" clip-rule="evenodd" d="M33.4977 31.7471L30.216 26.5742H28.1329L32.1892 33.5378L28.0723 40.4663H30.261L33.4977 35.5777L36.7342 40.4663H38.923L34.806 33.5378L38.8623 26.5742H36.7793L33.4977 31.7471Z" fill="white"/>
<path fill-rule="evenodd" clip-rule="evenodd" d="M58.201 34.8289C58.1315 35.3789 57.8152 35.8137 57.298 35.8146C56.4502 35.8161 55.9052 35.5576 55.5497 35.1801C55.6637 34.9037 55.7293 34.5969 55.7577 34.2662L58.2008 34.8289H58.201ZM43.5551 39.3786C43.3349 39.3901 43.1574 39.3428 43.0442 39.206L42.5872 40.0248C42.7091 40.2089 42.8557 40.3787 43.0715 40.4546C43.148 40.4814 43.2078 40.4234 43.1923 40.3455C43.1269 40.0155 43.2892 39.6972 43.5551 39.3788V39.3786ZM42.4569 40.2114L42.3319 40.4194C42.5611 40.7977 42.9231 41.0171 43.4079 41.0897C43.4774 40.9222 43.3963 40.7854 43.2064 40.7276C42.9332 40.6443 42.6733 40.5082 42.4569 40.2114ZM43.42 41.3055C43.5157 41.3212 43.5144 41.5154 43.3757 41.5366C43.1045 41.578 42.8389 41.4999 42.5979 41.3979L42.2191 41.0012L42.2554 40.6776C42.5469 41.043 42.9377 41.2267 43.42 41.3055ZM43.4118 41.7622C43.5423 42.05 43.4419 42.1941 43.1337 42.2091C43.0015 42.2036 42.9003 42.1361 42.8315 42.005L42.8717 41.7316C43.0213 41.7564 43.199 41.7677 43.4118 41.7624V41.7622ZM43.5367 42.3092C43.7197 42.1011 43.7314 41.8757 43.5932 41.6351C43.7369 41.5123 43.7527 41.36 43.6175 41.1727C43.6793 40.8692 43.5774 40.67 43.3474 40.5525C43.6367 40.185 44.0602 39.9933 44.6128 40.1182C45.2316 40.2581 45.5928 40.6643 45.5862 41.3013C45.5799 41.9045 45.2858 42.3643 44.5895 42.5287C44.2355 42.6122 43.8783 42.5458 43.5365 42.3094L43.5367 42.3092ZM45.8361 41.2861C46.0852 41.5537 46.6744 41.54 46.7137 41.2653C46.6448 40.9879 46.0121 41.0218 45.8361 41.2861ZM44.2823 27.4285C44.1378 27.465 44.0186 27.635 43.9239 27.9354L43.6833 27.6773C43.7022 27.3328 43.6478 26.9696 43.5606 26.5979C43.461 26.4295 43.3875 26.2714 43.3642 26.1333L43.0303 25.9502L43.5116 25.8376C43.694 25.9323 43.8493 25.8987 43.9907 25.797L45.0435 25.8048C44.8794 25.9529 44.6414 26.0306 44.3266 26.0348C44.1569 26.1464 44.0428 26.3296 44.0172 26.6262C44.0842 26.8808 44.1657 27.144 44.2823 27.4287V27.4285ZM43.3139 25.6645C43.0895 25.7253 42.8576 25.7092 42.6175 25.6043L42.6756 25.2922L42.9294 25.2229L43.3139 25.6643V25.6645ZM43.7951 25.6368C43.7451 25.6746 43.6831 25.6778 43.6089 25.6461L42.9946 24.9574L43.1639 24.694L43.3354 24.7078L43.7949 25.637L43.7951 25.6368ZM44.2424 25.4404C44.204 25.5595 44.1329 25.6062 44.0247 25.5721L43.5531 24.6221C43.5255 24.5663 43.8749 24.5364 43.9134 24.6314L44.2422 25.4404H44.2424ZM44.6969 25.1115C44.7446 25.2614 44.5057 25.4449 44.4618 25.3384L44.1369 24.5519C44.1176 24.505 44.2151 24.4541 44.2659 24.499C44.4559 24.6662 44.6168 24.8601 44.6969 25.1115ZM44.663 25.5655L48.1004 25.4825V25.3273L44.8935 25.255L44.6632 25.5655H44.663ZM48.7403 25.8079C48.5109 25.8079 48.3248 25.6302 48.3248 25.411C48.3248 25.1917 48.5107 25.0141 48.7403 25.0141C48.9696 25.0141 49.1557 25.1917 49.1557 25.411C49.1557 25.6302 48.9698 25.8079 48.7403 25.8079ZM58.201 32.2C58.1315 31.65 57.8152 31.2152 57.298 31.2143C56.4502 31.2128 55.9052 31.4713 55.5497 31.8489C55.6637 32.1252 55.7293 32.432 55.7577 32.7627L58.2008 32.2H58.201ZM53.9858 29.3363C53.8081 29.2974 53.5888 29.354 53.3373 29.4853C53.4221 29.1599 53.481 28.8343 53.5211 28.5089C53.7953 28.7413 53.9642 29.012 53.9859 29.3363H53.9858ZM50.9023 33.5147C50.2165 33.1536 49.7816 32.6199 49.6778 31.8585C48.9221 31.8647 48.2495 31.9968 47.6726 32.2828C47.0605 32.5863 46.5905 33.0005 46.2932 33.5147C46.5905 34.0289 47.0605 34.4433 47.6726 34.7467C48.2495 35.0327 48.9221 35.1645 49.6778 35.1709C49.7816 34.4096 50.2165 33.8759 50.9023 33.5147ZM54.1304 31.2805L54.2791 31.358L54.2993 29.9211C54.3031 29.6429 54.1125 29.5367 53.8121 29.5517C53.5341 29.5656 53.2835 29.72 53.1093 30.0684C52.8674 30.5523 52.5828 31.0125 52.1724 31.3817C51.9255 31.6039 51.5961 31.6325 51.2849 31.4549C50.949 31.2632 50.7189 30.9806 50.6181 30.6454C50.4846 30.2005 50.6338 29.8399 50.965 29.7324C51.4625 29.571 51.6152 29.7786 51.9499 29.8205C52.5054 29.89 52.9719 29.5528 52.8614 29.0406C52.6914 28.2535 52.205 27.5154 51.6736 26.7259C50.8187 25.456 49.9827 24.2298 49.1095 23.0682C48.3096 22.0041 47.5125 20.9566 46.6843 19.9647C46.4401 19.8162 46.18 19.7208 46.026 19.781C45.7905 19.8731 45.8535 20.1055 46.043 20.3955C46.2313 20.6835 46.4691 20.933 46.7181 21.1678L46.6126 21.178C47.3807 21.9567 48.1151 22.7412 48.7954 23.5352L48.6588 23.6342L46.4096 21.2396C46.2626 21.1426 46.0541 21.3261 46.2222 21.6882C46.3328 21.9264 46.4786 22.1416 46.6511 22.3414L48.4233 23.8279L48.2867 23.9631L46.5664 22.571C46.4239 22.4555 46.2882 22.7846 46.6418 23.1025C47.1841 23.6641 47.8005 24.1727 48.4327 24.6701L48.2983 24.8295L46.9223 23.7223C46.5889 23.9921 46.7763 24.4423 47.3392 24.7985L47.8308 25.1097L48.1813 25.1299C48.2871 24.9378 48.4979 24.8069 48.741 24.8069C49.0902 24.8069 49.373 25.0772 49.373 25.4108C49.373 25.6187 49.2631 25.8019 49.0961 25.9106L49.4068 26.1072L49.2604 26.2907L48.8206 26.01C48.7946 26.0131 48.7681 26.0147 48.7412 26.0147C48.5033 26.0147 48.296 25.8891 48.1882 25.7034L47.3732 25.7189L47.3875 25.7289L49.0931 26.8915L48.9696 27.0533L47.3967 26.0131C47.22 26.1417 47.2572 26.4012 47.4224 26.5233L49.1526 27.8001L49.0211 27.971L47.3436 26.7495C47.0164 26.7794 47.0324 27.2334 47.5692 27.6682L49.0883 28.8991L48.9385 29.0729L47.344 27.8249C47.1473 27.8823 47.049 28.2466 47.399 28.4888L48.7889 29.4514L48.6658 29.6201L47.2291 28.6588C46.9864 28.6754 46.957 29.1287 47.3602 29.4049L48.6261 30.2718L48.4983 30.4283L47.2202 29.5958C46.9023 29.6019 46.6983 30.1531 47.2183 30.4181L48.1678 30.9024L48.0825 31.0839L47.0944 30.6368C46.9479 30.7534 47.0389 30.9456 47.3121 31.1957L48.28 31.6081L48.1674 31.7872L47.198 31.3794C46.8782 31.6768 46.2029 31.8226 45.7873 31.648C45.4995 31.5271 45.3312 31.0054 45.3614 30.5726C45.5154 30.121 45.7667 29.8092 45.8232 29.2179C45.7921 28.8538 45.6415 28.6169 45.3553 28.5239L45.3593 29.349L45.1415 29.3414L45.2101 28.4622C45.2253 28.2669 45.074 28.1202 44.8815 28.1301L45.0003 28.9556H44.7826C44.7645 28.6492 44.7326 28.3526 44.6214 28.0919C44.5145 27.8417 44.3182 27.7665 44.0607 27.8915L44.5489 29.2487L44.3351 29.3065C44.2319 28.8608 44.1151 28.4221 43.8779 28.0496C43.7157 27.795 43.4734 27.7569 43.1938 28.0104C43.5282 28.2873 43.8184 28.5957 44.042 28.952L43.8596 29.0696C43.647 28.7342 43.4072 28.4006 43.0307 28.1556C42.8633 28.0465 42.509 28.326 42.87 28.6512C43.2627 29.005 43.7043 29.3279 44.1838 29.625L44.0422 29.8105L42.9303 29.0134C42.6981 29.2075 42.6662 29.4563 42.9093 29.6651C43.3494 30.0429 43.9613 30.1753 44.3779 30.4874L44.2519 30.6528C43.9619 30.3853 43.619 30.1978 43.2011 30.1246L43.0898 30.1999C43.8613 30.4754 44.1521 30.8776 44.1477 31.3575C43.9539 31.3458 43.8008 31.3845 43.6884 31.4727C44.1088 31.5855 44.0619 32.0849 43.6966 32.0453C43.4354 32.0168 43.245 31.7582 42.9273 31.6754C42.4363 31.1654 41.8195 30.7884 41.0492 30.5554C40.7049 30.4515 40.2386 30.7747 40.1932 31.0571C40.1521 31.311 40.4258 31.2854 40.6404 31.2524C41.7014 31.089 42.3628 31.4067 42.7925 32.0995L42.5922 32.2255C42.3699 31.8924 42.075 31.5627 41.6302 31.4636C41.339 31.3989 41.0232 31.4326 40.7616 31.5369C40.7946 31.6136 40.8649 31.6798 40.9776 31.7046C41.3179 31.7792 41.7001 31.7321 42.0541 31.8489L42.0315 32.0302C41.6396 31.9862 41.2795 31.9413 40.8629 31.9362C40.7965 31.9517 40.7404 31.9836 40.6986 32.0386C40.7984 32.0927 40.8769 32.1628 40.9397 32.2443C41.4163 32.2456 41.7747 32.4273 42.0579 32.7235L41.8972 32.8464C41.6535 32.5799 41.335 32.4411 40.9208 32.4661C40.8351 32.5985 40.6361 32.705 40.3088 32.5783C39.9522 32.44 39.7194 32.3344 39.5375 32.4099L39.9495 32.9597L39.7583 33.0735L39.3501 32.525L39.0187 32.5495L39.4224 32.9679C38.6187 32.9362 38.0159 33.0906 37.7031 33.5144C38.0159 33.9381 38.6187 34.0928 39.4224 34.0608L39.0187 34.4793L39.3501 34.5037L39.7583 33.9552L39.9495 34.069L39.5375 34.6188C39.7194 34.6945 39.9522 34.5887 40.3088 34.4504C40.6361 34.3237 40.8353 34.4302 40.9208 34.5626C41.335 34.5876 41.6535 34.449 41.8972 34.1823L42.0579 34.3053C41.7745 34.6015 41.4161 34.7831 40.9397 34.7844C40.8769 34.8661 40.7984 34.9362 40.6986 34.9902C40.7404 35.0451 40.7965 35.077 40.8629 35.0925C41.2793 35.0874 41.6396 35.0425 42.0315 34.9986L42.0541 35.1799C41.7001 35.2966 41.3181 35.2495 40.9776 35.3242C40.8649 35.349 40.7944 35.415 40.7616 35.4918C41.023 35.5961 41.339 35.63 41.6302 35.5651C42.075 35.4661 42.3699 35.1361 42.5922 34.8032L42.7925 34.9293C42.3628 35.622 41.7014 35.9398 40.6404 35.7763C40.4256 35.7433 40.1521 35.7178 40.1932 35.9717C40.2386 36.254 40.7051 36.5773 41.0492 36.4733C41.8195 36.2405 42.4363 35.8635 42.9273 35.3533C43.245 35.2705 43.4354 35.0117 43.6966 34.9834C44.0619 34.9437 44.1088 35.4431 43.6884 35.556C43.8008 35.6444 43.9541 35.6829 44.1477 35.6713C44.1521 36.1512 43.8613 36.5534 43.0898 36.8288L43.2011 36.9041C43.619 36.831 43.9619 36.6435 44.2519 36.3759L44.3779 36.5413C43.9613 36.8534 43.3495 36.9856 42.9093 37.3636C42.6662 37.5724 42.6981 37.8212 42.9303 38.0153L44.0422 37.2182L44.1838 37.4037C43.7043 37.7008 43.2627 38.0237 42.87 38.3776C42.509 38.7028 42.8633 38.9822 43.0307 38.8731C43.4072 38.6282 43.6468 38.2946 43.8596 37.9591L44.042 38.0768C43.8184 38.433 43.5282 38.7414 43.1938 39.0183C43.4732 39.2719 43.7155 39.2337 43.8779 38.9791C44.1153 38.6065 44.2319 38.168 44.3351 37.7222L44.5489 37.78L44.0607 39.1373C44.3182 39.2622 44.5145 39.1871 44.6214 38.9368C44.7326 38.6761 44.7647 38.3796 44.7826 38.0731H45.0003L44.8815 38.8987C45.074 38.9085 45.2253 38.7619 45.2101 38.5665L45.1415 37.6873L45.3593 37.6797L45.3553 38.5049C45.6415 38.4118 45.7921 38.1749 45.8232 37.8108C45.7667 37.2195 45.5152 36.9076 45.3614 36.4561C45.3312 36.0233 45.4993 35.5016 45.7873 35.3807C46.2029 35.206 46.8782 35.3517 47.198 35.6494L48.1674 35.2415L48.28 35.4206L47.3121 35.8331C47.0389 36.0831 46.9479 36.2754 47.0944 36.3919L48.0825 35.9449L48.1678 36.1264L47.2183 36.6106C46.6983 36.8758 46.9023 37.4271 47.2202 37.4329L48.4983 36.6004L48.6261 36.7569L47.3602 37.6239C46.957 37.9 46.9864 38.3531 47.2291 38.3699L48.6658 37.4086L48.7889 37.5774L47.399 38.5399C47.049 38.7823 47.1473 39.1464 47.344 39.2038L48.9385 37.9558L49.0883 38.1297L47.5692 39.3605C47.0324 39.7955 47.0164 40.2495 47.3436 40.2793L49.0211 39.0577L49.1526 39.2286L47.4224 40.5055C47.2572 40.6275 47.22 40.887 47.3967 41.0156L48.9696 39.9754L49.0931 40.1372L47.3875 41.2998C47.094 41.4999 46.962 41.8784 47.1543 42.0821L49.2606 40.738L49.407 40.9215L47.3398 42.2302C46.7769 42.5867 46.5897 43.0366 46.9229 43.3064L48.2989 42.1992L48.4332 42.3587C47.801 42.8561 47.1847 43.3644 46.6424 43.9262C46.2888 44.2441 46.4244 44.5732 46.567 44.4577L48.2872 43.0656L48.4239 43.2008L46.6517 44.6874C46.4792 44.8871 46.3334 45.1023 46.2227 45.3406C46.0546 45.7024 46.2632 45.8861 46.4101 45.7891L48.6594 43.3945L48.796 43.4936C48.1157 44.2875 47.3812 45.0721 46.6132 45.8507L46.7187 45.8609C46.4697 46.0959 46.2319 46.3454 46.0436 46.6332C45.8541 46.9231 45.7911 47.1556 46.0266 47.2477C46.1808 47.3081 46.4407 47.2127 46.6849 47.0641C47.5131 46.0722 48.31 45.0246 49.1101 43.9605C49.9833 42.799 50.8193 41.5727 51.6741 40.3028C52.2056 39.5132 52.692 38.775 52.862 37.9881C52.9725 37.4759 52.5059 37.1387 51.9505 37.2082C51.6158 37.2499 51.4631 37.4575 50.9656 37.2963C50.6344 37.1888 50.4851 36.8284 50.6187 36.3834C50.7195 36.0481 50.9496 35.7656 51.2854 35.5739C51.5967 35.3962 51.926 35.4248 52.173 35.647C52.5834 36.0162 52.8679 36.4764 53.1099 36.9603C53.2841 37.3087 53.5345 37.4632 53.8127 37.477C54.1128 37.492 54.3037 37.386 54.2998 37.1077L54.2796 35.6707L54.131 35.7482C53.7268 34.8277 52.799 34.0871 51.3837 33.514C52.7988 32.9409 53.7266 32.2003 54.131 31.2798L54.1304 31.2805ZM47.4232 25.1191L47.1534 24.947C47.1053 24.9979 47.0776 25.0599 47.0675 25.1272L47.4234 25.1191H47.4232ZM46.0256 33.5147C46.3977 32.8847 46.9355 32.3523 47.7125 32.0289C48.5221 31.6918 49.2593 31.6207 49.9319 31.6302C49.9865 32.5912 50.5578 33.1514 51.3831 33.5147C50.5576 33.8781 49.9863 34.4382 49.9319 35.3993C49.2593 35.409 48.5223 35.3378 47.7125 35.0006C46.9357 34.6772 46.3977 34.1447 46.0256 33.5147ZM55.5763 33.5147C55.5763 33.004 55.4997 32.4535 55.3499 31.9479L54.8796 31.937L54.8204 33.5147L54.8796 35.0925L55.3499 35.0816C55.4997 34.5759 55.5763 34.0255 55.5763 33.5147ZM55.8081 31.225L54.5147 31.1329L54.4916 31.3868C54.6368 31.4791 54.77 31.5815 54.8843 31.6997L55.3847 31.7069C55.5104 31.5703 55.6495 31.4406 55.8104 31.3224L55.8081 31.2249V31.225ZM55.8081 30.6362L54.5262 30.7357L54.5185 30.9197L55.8157 31.0116L55.8081 30.6362ZM55.7671 30.425L54.5294 30.5186L54.5372 29.9871C54.7916 29.8357 55.058 29.7312 55.2889 29.7456C55.6581 29.7684 55.7709 30.0449 55.7669 30.4252L55.7671 30.425ZM58.717 33.5147C58.7265 33.3354 58.618 33.215 58.4687 33.2218C58.3313 33.228 58.1781 33.3126 58.0619 33.4224V32.9867L55.7959 33.2743V33.5145V33.7548L58.0619 34.0424V33.6067C58.1781 33.7166 58.3313 33.8011 58.4687 33.8073C58.618 33.814 58.7265 33.6937 58.717 33.5144V33.5147ZM58.3416 32.7401L58.3418 32.4409L55.7902 32.9571L55.794 33.0602L58.3416 32.7401ZM53.9854 37.6932C53.8077 37.732 53.5885 37.6755 53.337 37.5442C53.4217 37.8696 53.4807 38.1952 53.5207 38.5206C53.7949 38.2882 53.9638 38.0175 53.9856 37.6932H53.9854ZM55.8079 35.8044L54.5145 35.8965L54.4914 35.6426C54.6366 35.5503 54.7698 35.448 54.8841 35.3298L55.3845 35.3225C55.5102 35.4591 55.6493 35.5888 55.8102 35.707L55.8079 35.8046V35.8044ZM55.8079 36.3932L54.526 36.2938L54.5183 36.1098L55.8155 36.0178L55.8079 36.3932ZM55.7669 36.6044L54.5292 36.5109L54.537 37.0424C54.7914 37.1938 55.0578 37.2983 55.2887 37.2839C55.6579 37.2611 55.7707 36.9846 55.7667 36.6042L55.7669 36.6044ZM58.3415 34.2892L58.3416 34.5883L55.79 34.0721L55.7938 33.9691L58.3415 34.2892Z" fill="#E8A968"/>
<path d="M66.3613 26.8336C66.4668 26.8176 66.5661 26.8864 66.5827 26.9872C66.5995 27.0881 66.5275 27.1829 66.422 27.1988L56.2857 28.7416C56.0758 28.6122 55.8285 28.5234 55.5419 28.4804L66.3613 26.8338V26.8336ZM56.9296 29.4725L66.6023 28.4968C66.7086 28.4864 66.8038 28.5604 66.8147 28.662C66.8256 28.7636 66.7481 28.8547 66.6418 28.8651L57.0622 29.8314C57.0267 29.7043 56.9826 29.5844 56.9296 29.4726V29.4725ZM58.8109 30.5202L66.7468 30.1074C66.8535 30.1023 66.9445 30.1807 66.95 30.2829C66.9553 30.3848 66.8733 30.4718 66.7664 30.4771L59.1202 30.8749C59.0288 30.744 58.9254 30.6256 58.8109 30.5205V30.5202ZM59.7055 31.8366H66.8059C66.9132 31.8366 67 31.9196 67 32.0221C67 32.1246 66.9132 32.2076 66.8059 32.2076H59.7055V31.8366ZM59.7055 33.2L66.7664 33.5674C66.8731 33.5725 66.9553 33.6595 66.95 33.7616C66.9447 33.8636 66.8536 33.9422 66.7468 33.9371L59.7055 33.5708V33.2002V33.2ZM59.7055 34.4797L66.6416 35.1794C66.7479 35.1898 66.8254 35.2807 66.8145 35.3824C66.8036 35.484 66.7086 35.5581 66.6021 35.5477L59.7055 34.852V34.4799V34.4797ZM59.7055 35.8233L66.4218 36.8455C66.5273 36.8615 66.5993 36.9562 66.5825 37.0571C66.5657 37.1579 66.4667 37.2267 66.3611 37.2107L59.1483 36.113C59.1633 36.0903 59.1778 36.0675 59.1921 36.0444L59.7055 36.1361V35.8233ZM58.2806 36.8659L66.1188 38.4579C66.2234 38.4791 66.2903 38.5774 66.2682 38.6775C66.2461 38.7775 66.1432 38.8415 66.0384 38.8204L57.4912 37.0843C57.7757 37.0538 58.0409 36.9801 58.2806 36.8659ZM56.7819 37.8142L65.7137 40.1097C65.8171 40.1362 65.8785 40.2378 65.8509 40.3367C65.8232 40.4355 65.7169 40.4943 65.6135 40.4678L56.5042 38.1267C56.6098 38.0347 56.7021 37.9302 56.7817 37.8142H56.7819ZM55.1769 38.5783L65.2275 41.7085C65.3292 41.7401 65.3849 41.8446 65.3519 41.9418C65.3189 42.039 65.2095 42.0923 65.1078 42.0607L54.9454 38.8959C55.0128 38.7959 55.0723 38.6907 55.1225 38.5789C55.1408 38.5789 55.1591 38.5787 55.1771 38.5783H55.1769ZM54.3855 39.5042L64.6542 43.2801C64.7538 43.3166 64.8038 43.4233 64.7657 43.5185C64.7275 43.6137 64.6159 43.6615 64.5163 43.625L54.0434 39.7739C54.1627 39.6858 54.2773 39.5967 54.3855 39.5042ZM53.3227 40.2745L63.9942 44.8261C64.0917 44.8677 64.1356 44.9771 64.0921 45.0703C64.0486 45.1636 63.9341 45.2055 63.8366 45.1639L53.0984 40.584C53.1593 40.4906 53.2198 40.397 53.2801 40.3036L53.3227 40.2746V40.2745ZM52.6945 41.1972L63.2414 46.3526C63.3364 46.399 63.374 46.5104 63.3255 46.6012C63.2771 46.6921 63.1605 46.728 63.0654 46.6817L52.4851 41.5099C52.5554 41.4055 52.625 41.3014 52.6945 41.1972ZM52.0989 42.078L62.4369 47.7861C62.5294 47.8374 62.5609 47.9506 62.5073 48.0391C62.4537 48.1276 62.3352 48.1577 62.2426 48.1064L51.8852 42.3876C51.9568 42.2843 52.0279 42.1813 52.0987 42.078H52.0989ZM51.4774 42.9705L61.5309 49.2165C61.6205 49.2721 61.6459 49.3867 61.5877 49.4724C61.5295 49.5582 61.4097 49.5824 61.32 49.5268L51.2601 43.277C51.3328 43.1748 51.4053 43.0729 51.4772 42.9707L51.4774 42.9705ZM50.8443 43.8554L60.5455 50.6022C60.6321 50.6622 60.6515 50.7781 60.5886 50.8609C60.5258 50.9437 60.4046 50.9623 60.318 50.9021L50.6225 44.1594C50.6968 44.058 50.7706 43.9566 50.8441 43.8554H50.8443ZM50.202 44.73L59.4915 51.9303C59.5744 51.9947 59.587 52.1112 59.5196 52.1904C59.4522 52.2696 59.3303 52.2816 59.2475 52.2172L49.977 45.0315C50.0524 44.931 50.1274 44.8305 50.2022 44.7298L50.202 44.73ZM49.5398 45.6101L58.3546 53.2146C58.4342 53.283 58.4407 53.4001 58.3689 53.4761C58.2974 53.5522 58.1749 53.5584 58.0953 53.4898L49.3099 45.9109C49.3868 45.8105 49.4635 45.7104 49.5396 45.6101H49.5398ZM48.8859 46.4601L57.1933 54.3967C57.269 54.4688 57.2694 54.5859 57.1941 54.6583C57.1187 54.7307 56.9962 54.7311 56.9204 54.659L48.6521 46.7597C48.7303 46.6598 48.8084 46.56 48.8861 46.4601H48.8859ZM48.1829 47.3546L55.9127 55.5719C55.9842 55.648 55.9779 55.7651 55.8984 55.8335C55.8188 55.9019 55.6963 55.8959 55.6247 55.8198L47.944 47.6546C48.0239 47.5547 48.1037 47.4547 48.1831 47.3546H48.1829ZM49.223 50.3299L54.5819 56.67C54.6489 56.7495 54.6357 56.8663 54.5523 56.9301C54.4691 56.9941 54.347 56.9815 54.2802 56.9018L50.3285 52.2265L49.223 50.3297V50.3299ZM52.077 56.1613L53.2265 57.6745C53.2893 57.7573 53.27 57.8731 53.1834 57.9331C53.0967 57.9931 52.9756 57.9747 52.9128 57.8919L51.5982 56.1613H52.0772H52.077ZM50.1199 56.1613L51.7938 58.6266C51.852 58.7123 51.8264 58.8269 51.7369 58.8825C51.6472 58.9382 51.5274 58.9137 51.4692 58.8282L49.6585 56.1613H50.1199ZM48.2867 56.1613L50.3063 59.5089C50.3596 59.5974 50.3275 59.7103 50.235 59.7612C50.1424 59.812 50.0243 59.7814 49.9711 59.6929L47.8404 56.1613H48.2865H48.2867ZM46.5874 56.1613L48.7958 60.3033C48.8443 60.3945 48.8063 60.5061 48.7109 60.5526C48.6155 60.5989 48.4987 60.5626 48.45 60.4714L46.152 56.1613H46.5874ZM44.9372 56.1613L47.2055 61.0391C47.2486 61.1323 47.2045 61.2413 47.107 61.2826C47.0095 61.3238 46.8954 61.2817 46.8523 61.1884L44.5145 56.1615H44.9374L44.9372 56.1613ZM43.3837 56.1613L45.5978 61.6849C45.636 61.7805 45.5856 61.8878 45.4856 61.9241C45.3856 61.9605 45.2734 61.9124 45.2354 61.8168L42.9685 56.1613H43.3837ZM41.6297 55.3505L43.972 62.2444C44.005 62.3416 43.9493 62.4461 43.8476 62.4777C43.7459 62.5092 43.6365 62.456 43.6035 62.3587L41.0269 54.7748L41.6299 55.3503L41.6297 55.3505ZM40.3393 55.6785L42.3164 62.7235C42.3441 62.8224 42.2827 62.924 42.1792 62.9504C42.0758 62.9769 41.9695 62.9182 41.9419 62.8193L40.1291 56.3595C40.225 56.1522 40.2968 55.9231 40.3393 55.6785ZM39.3083 57.2951L40.6029 63.1268C40.625 63.2268 40.5582 63.3253 40.4534 63.3464C40.3489 63.3676 40.2458 63.3038 40.2237 63.2036L38.9465 57.4505C38.9824 57.4403 39.0183 57.4286 39.0543 57.4151C39.1419 57.3825 39.2267 57.3421 39.3081 57.2951H39.3083ZM37.8865 57.2911L38.9057 63.4369C38.9225 63.5378 38.8505 63.6326 38.745 63.6485C38.6395 63.6645 38.5403 63.5958 38.5237 63.4949L37.4682 57.1302C37.5049 57.1087 37.5409 57.0859 37.5764 57.0618C37.6749 57.1499 37.7785 57.227 37.8867 57.2911H37.8865ZM36.5605 58.0584L37.1776 63.6651C37.1885 63.7667 37.111 63.8577 37.0047 63.8681C36.8984 63.8785 36.8032 63.8044 36.7923 63.7029L36.2554 58.8245C36.2994 58.784 36.3428 58.7415 36.3853 58.6968L36.4172 58.6636L36.4294 58.6222C36.484 58.4373 36.529 58.2498 36.5605 58.0588V58.0584ZM35.2087 59.7491L35.4304 63.8059C35.4358 63.9079 35.3537 63.9949 35.2469 64.0002C35.1402 64.0053 35.0492 63.9268 35.0437 63.8247L34.8654 60.5624C34.9587 60.383 35.0314 60.169 35.082 59.9164C35.1278 59.8626 35.17 59.8068 35.2085 59.7489L35.2087 59.7491ZM33.6942 61.3367V63.8586C33.6942 63.9611 33.6073 64.0441 33.5001 64.0441C33.3929 64.0441 33.306 63.9611 33.306 63.8586V61.3367C33.3728 61.3362 33.4402 61.3351 33.507 61.3355L33.6942 61.3367ZM32.1346 60.5626L31.9563 63.8247C31.951 63.9267 31.86 64.0053 31.7531 64.0002C31.6465 63.9951 31.5642 63.9081 31.5696 63.8059L31.7913 59.7491C31.8298 59.8069 31.872 59.8628 31.9178 59.9166C31.9684 60.1692 32.0411 60.3831 32.1344 60.5626H32.1346ZM30.7446 58.8243L30.2077 63.7027C30.1968 63.8043 30.1018 63.8783 29.9953 63.8679C29.889 63.8575 29.8115 63.7667 29.8224 63.6649L30.4395 58.0583C30.471 58.2494 30.516 58.4369 30.5706 58.6217L30.5828 58.6631L30.6145 58.6963C30.6572 58.741 30.7005 58.7835 30.7444 58.824L30.7446 58.8243ZM29.5318 57.1302L28.4763 63.4949C28.4595 63.5958 28.3605 63.6645 28.255 63.6485C28.1495 63.6324 28.0775 63.5378 28.0943 63.4369L29.1135 57.2911C29.2215 57.227 29.3253 57.1499 29.4238 57.0618C29.4593 57.0859 29.4953 57.1087 29.532 57.1302H29.5318ZM28.0533 57.4503L26.7761 63.2034C26.754 63.3034 26.6511 63.3674 26.5464 63.3463C26.4418 63.3251 26.3748 63.2268 26.3969 63.1266L27.6915 57.2949C27.7728 57.342 27.8575 57.3823 27.9453 57.4149C27.9813 57.4284 28.0172 57.4401 28.0531 57.4503H28.0533ZM26.8709 56.3595L25.0581 62.8193C25.0305 62.9182 24.9242 62.9769 24.8208 62.9504C24.7173 62.924 24.6559 62.8224 24.6836 62.7235L26.6607 55.6781C26.7032 55.9229 26.7748 56.152 26.8709 56.3594V56.3595ZM25.9731 54.775L23.3965 62.3589C23.3635 62.4561 23.2541 62.5094 23.1524 62.4778C23.0507 62.4463 22.995 62.3418 23.028 62.2446L25.3703 55.3507L25.9733 54.7752L25.9731 54.775ZM24.0315 56.1613L21.7646 61.8168C21.7264 61.9124 21.6144 61.9605 21.5144 61.9241C21.4144 61.8876 21.364 61.7805 21.4022 61.6849L23.6163 56.1613H24.0315ZM22.4855 56.1613L20.1477 61.1883C20.1046 61.2815 19.9905 61.3236 19.893 61.2824C19.7955 61.2412 19.7514 61.1321 19.7945 61.0389L22.0628 56.1611H22.4857L22.4855 56.1613ZM20.8478 56.1613L18.5498 60.4714C18.5013 60.5626 18.3843 60.5991 18.2889 60.5526C18.1935 60.5063 18.1554 60.3945 18.204 60.3033L20.4124 56.1613H20.8478ZM19.1593 56.1613L17.0286 59.6929C16.9753 59.7814 16.8572 59.8119 16.7646 59.7612C16.6721 59.7103 16.6402 59.5974 16.6933 59.5089L18.7129 56.1613H19.1591H19.1593ZM17.3411 56.1613L15.5304 58.8282C15.4722 58.9139 15.3524 58.9382 15.2627 58.8825C15.173 58.8269 15.1476 58.7123 15.2058 58.6266L16.8797 56.1613H17.3411ZM15.4018 56.1613L14.0872 57.8919C14.0244 57.9747 13.9033 57.9933 13.8166 57.9331C13.73 57.8731 13.7105 57.7573 13.7735 57.6745L14.923 56.1613H15.402H15.4018ZM16.6713 52.2265L12.7194 56.9018C12.6524 56.9814 12.5305 56.9941 12.4473 56.9301C12.3641 56.8661 12.3507 56.7495 12.4177 56.67L17.7766 50.3299L16.6711 52.2265H16.6713ZM19.0558 47.6544L11.3751 55.8196C11.3035 55.8957 11.181 55.9019 11.1014 55.8333C11.0219 55.7649 11.0154 55.6478 11.0871 55.5718L18.8169 47.3544C18.8963 47.4543 18.9761 47.5543 19.056 47.6544H19.0558ZM18.3477 46.7597L10.0794 54.659C10.0036 54.7311 9.88113 54.7307 9.80576 54.6583C9.73038 54.5859 9.73076 54.4688 9.80652 54.3967L18.1139 46.4601C18.1916 46.56 18.2697 46.6598 18.3479 46.7597H18.3477ZM17.6897 45.911L8.90432 53.49C8.82474 53.5584 8.70224 53.5524 8.63068 53.4763C8.55912 53.4003 8.56542 53.2832 8.64499 53.2148L17.4598 45.6103C17.5361 45.7106 17.6127 45.8107 17.6896 45.911H17.6897ZM17.023 45.0317L7.75252 52.2174C7.6697 52.2818 7.54776 52.2697 7.4804 52.1906C7.41304 52.1114 7.42564 51.9949 7.50845 51.9305L16.798 44.7302C16.8728 44.8307 16.9478 44.9312 17.0232 45.0319L17.023 45.0317ZM16.3771 44.1594L6.68162 50.9021C6.59499 50.9621 6.47382 50.9437 6.41104 50.8609C6.34826 50.7781 6.36753 50.6622 6.45416 50.6022L16.1554 43.8554C16.2288 43.9568 16.3029 44.0582 16.3769 44.1594H16.3771ZM15.7396 43.2768L5.67962 49.5266C5.58993 49.5822 5.4701 49.5578 5.4119 49.4722C5.35369 49.3865 5.37927 49.272 5.46876 49.2163L15.5222 42.9704C15.5943 43.0725 15.6667 43.1745 15.7394 43.2766L15.7396 43.2768ZM15.1144 42.3876L4.757 48.1064C4.66445 48.1577 4.54595 48.1274 4.49233 48.0391C4.4387 47.9506 4.47038 47.8374 4.56274 47.7861L14.9007 42.078C14.9715 42.1813 15.0427 42.2843 15.1142 42.3876H15.1144ZM14.5147 41.5099L3.93436 46.6817C3.83933 46.728 3.72293 46.6921 3.67427 46.6012C3.6258 46.5104 3.6634 46.3991 3.75843 46.3526L14.3053 41.1972C14.3748 41.3016 14.4444 41.4055 14.5147 41.5099ZM13.9016 40.5838L3.16344 45.1637C3.06593 45.2053 2.95144 45.1634 2.90793 45.0702C2.86443 44.977 2.90831 44.8675 3.00582 44.8259L13.6773 40.2743L13.7199 40.3033C13.7802 40.3967 13.8407 40.4902 13.9016 40.5836V40.5838ZM12.9568 39.7741L2.48393 43.6252C2.38432 43.6617 2.2725 43.6139 2.23452 43.5187C2.19636 43.4234 2.24635 43.3166 2.34596 43.2803L12.6147 39.5044C12.7228 39.5968 12.8375 39.6862 12.9568 39.7741ZM12.055 38.8959L1.89257 42.0607C1.79086 42.0923 1.68152 42.039 1.64851 41.9418C1.6155 41.8446 1.67122 41.7401 1.77293 41.7085L11.8235 38.5783C11.8414 38.5787 11.8598 38.5789 11.8781 38.5789C11.9285 38.6907 11.988 38.7959 12.0552 38.8959H12.055ZM10.4958 38.1267L1.38651 40.4678C1.28309 40.4943 1.1768 40.4355 1.14913 40.3367C1.12146 40.2378 1.1829 40.1362 1.28633 40.1097L10.2181 37.8142C10.2979 37.9302 10.3902 38.0347 10.4956 38.1267H10.4958ZM9.50884 37.0843L0.961551 38.8204C0.85698 38.8415 0.753937 38.7777 0.731801 38.6775C0.709666 38.5776 0.776454 38.4791 0.881215 38.4579L8.71941 36.8659C8.95908 36.9801 9.22413 37.0538 9.50884 37.0843ZM7.85155 36.113L0.63868 37.2107C0.533156 37.2267 0.433929 37.1579 0.417327 37.0571C0.400535 36.9562 0.472475 36.8614 0.577999 36.8455L7.29435 35.8233V36.1361L7.80766 36.0444C7.82197 36.0675 7.83648 36.0905 7.85155 36.113ZM7.29454 34.8518L0.397863 35.5475C0.291576 35.5579 0.196356 35.4839 0.185479 35.3823C0.174602 35.2807 0.252076 35.1896 0.358363 35.1793L7.29454 34.4796V34.8517V34.8518ZM7.29454 33.5707L0.25322 33.9369C0.146551 33.942 0.0555291 33.8636 0.0499953 33.7614C0.0446523 33.6595 0.126706 33.5725 0.233566 33.5672L7.29454 33.1998V33.5705V33.5707ZM7.29454 32.2077H0.194066C0.0868239 32.2077 0 32.1248 0 32.0222C0 31.9197 0.0868239 31.8367 0.194066 31.8367H7.29454V32.2077ZM7.87979 30.8748L0.233566 30.4769C0.126896 30.4718 0.0446523 30.3848 0.0499953 30.2827C0.0553383 30.1807 0.14636 30.1021 0.25322 30.1072L8.18912 30.52C8.07462 30.6252 7.9712 30.7434 7.87979 30.8744V30.8748ZM9.938 29.8314L0.358363 28.8651C0.252076 28.8547 0.174602 28.7638 0.185479 28.662C0.196356 28.5604 0.291385 28.4864 0.397863 28.4968L10.0706 29.4725C10.0176 29.5844 9.97349 29.7043 9.938 29.8312V29.8314ZM10.7145 28.7416L0.57819 27.1988C0.472665 27.1828 0.400726 27.0881 0.417518 26.9872C0.43431 26.8864 0.533347 26.8176 0.638871 26.8336L11.4583 28.4802C11.1717 28.5234 10.9244 28.6121 10.7145 28.7414V28.7416ZM12.2393 27.8932L0.881406 25.5864C0.776835 25.5652 0.709857 25.4669 0.731992 25.3668C0.754128 25.2668 0.856981 25.2028 0.961742 25.224L12.553 27.5782C12.4401 27.6785 12.3347 27.7827 12.2391 27.893L12.2393 27.8932ZM13.289 27.0193L1.28671 23.9346C1.18329 23.9081 1.12184 23.8065 1.14951 23.7076C1.17718 23.6088 1.28347 23.5501 1.38689 23.5765L13.6979 26.7406L13.5312 26.8541C13.4497 26.9095 13.3688 26.9644 13.2892 27.0192L13.289 27.0193ZM14.0821 26.1693L1.77273 22.3358C1.67103 22.3043 1.61531 22.1997 1.64832 22.1025C1.68133 22.0053 1.79067 21.952 1.89238 21.9836L14.2956 25.8465C14.2239 25.9541 14.1527 26.0619 14.0819 26.1695L14.0821 26.1693ZM14.6666 25.2945L2.34596 20.7642C2.24635 20.7278 2.19636 20.6211 2.23452 20.5258C2.27269 20.4306 2.38432 20.3828 2.48393 20.4193L14.8822 24.9783C14.8099 25.0837 14.7379 25.1891 14.6664 25.2945H14.6666ZM15.2531 24.4418L3.00582 19.2182C2.90831 19.1766 2.86443 19.0672 2.90793 18.974C2.95144 18.8808 3.06593 18.8388 3.16344 18.8804L15.4716 24.1301C15.3984 24.2341 15.3257 24.338 15.2531 24.4418ZM15.8476 23.6009L3.75843 17.6917C3.6634 17.6453 3.6258 17.5339 3.67427 17.4431C3.72274 17.3522 3.83933 17.3163 3.93436 17.3626L16.0683 23.2938C15.9943 23.3961 15.9208 23.4984 15.8476 23.6008V23.6009ZM16.4229 22.8066L4.56274 16.258C4.47019 16.2067 4.4387 16.0935 4.49233 16.005C4.54595 15.9165 4.66445 15.8865 4.757 15.9377L16.6467 22.5027C16.5719 22.6041 16.4973 22.7054 16.4231 22.8066H16.4229ZM17.0184 22.0031L5.46876 14.8276C5.37907 14.772 5.35369 14.6574 5.4119 14.5717C5.4701 14.486 5.58993 14.4617 5.67962 14.5173L17.2448 21.7023C17.169 21.8026 17.0936 21.9028 17.0184 22.0029V22.0031ZM17.6209 21.2078L6.45435 13.4421C6.36772 13.3821 6.34826 13.2663 6.41123 13.1834C6.47401 13.1006 6.59518 13.082 6.68181 13.1422L17.8504 20.9094C17.7737 21.009 17.6972 21.1086 17.6211 21.2082L17.6209 21.2078ZM18.2279 20.4224L7.50845 12.1137C7.42564 12.0493 7.41304 11.9327 7.4804 11.8536C7.54776 11.7744 7.6697 11.7624 7.75252 11.8267L18.4599 20.126C18.3822 20.2249 18.305 20.3236 18.2279 20.4224ZM18.8498 19.6328L8.64518 10.8295C8.56561 10.7611 8.55912 10.644 8.63087 10.568C8.70243 10.4919 8.82493 10.4857 8.90451 10.5543L19.0856 19.3373C19.0068 19.4358 18.9282 19.5343 18.8498 19.633V19.6328ZM18.5172 17.9693L9.80652 9.6474C9.73076 9.57536 9.73038 9.45825 9.80576 9.38584C9.88113 9.31343 10.0036 9.31306 10.0794 9.38511L17.8292 16.7892L18.5172 17.9695V17.9693ZM16.0691 13.7686L11.0871 8.47219C11.0156 8.39613 11.0219 8.27903 11.1014 8.21063C11.181 8.14223 11.3035 8.14824 11.3751 8.22431L15.2201 12.3119L16.0691 13.7686ZM15.3705 10.8675L12.4179 7.37431C12.3509 7.29479 12.3641 7.17805 12.4475 7.11421C12.5307 7.05019 12.6528 7.06277 12.7196 7.14248L15.8684 10.8677H15.3705V10.8675ZM17.1902 10.8675L13.7733 6.36965C13.7105 6.28684 13.7298 6.17101 13.8164 6.111C13.9031 6.05099 14.0243 6.06941 14.087 6.15222L17.6689 10.8675H17.19H17.1902ZM18.9064 10.8675L15.2062 5.41751C15.148 5.33178 15.1736 5.21723 15.2631 5.1616C15.3528 5.10597 15.4726 5.13041 15.5308 5.21596L19.3678 10.8673H18.9064V10.8675ZM20.5139 10.8675L16.6935 4.53523C16.6402 4.44677 16.6723 4.33386 16.7648 4.28297C16.8574 4.23208 16.9755 4.26273 17.0287 4.35119L20.9602 10.8675H20.5141H20.5139ZM22.0038 10.8675L18.2042 3.74087C18.1557 3.64967 18.1937 3.53804 18.2891 3.49153C18.3845 3.4452 18.5013 3.4815 18.55 3.5727L22.4393 10.8675H22.0038ZM23.4508 10.8675L19.7945 3.00525C19.7514 2.91204 19.7955 2.80297 19.893 2.76174C19.9905 2.72052 20.1046 2.76265 20.1477 2.85586L23.8735 10.8675H23.4507H23.4508ZM24.7009 10.5884L21.4022 2.35918C21.364 2.2636 21.4144 2.15635 21.5144 2.12005C21.6144 2.08357 21.7266 2.13173 21.7646 2.22731L24.9391 10.1468C24.8542 10.2902 24.7748 10.4372 24.7007 10.5884H24.7009ZM25.5665 9.27056L23.0282 1.79976C22.9952 1.70254 23.0509 1.59802 23.1526 1.56646C23.2543 1.53491 23.3636 1.58817 23.3967 1.68539L25.8634 8.9457C25.7604 9.05113 25.6615 9.15948 25.5665 9.27074V9.27056ZM26.6328 8.26589L24.6837 1.32059C24.6561 1.22173 24.7175 1.12013 24.8209 1.09368C24.9244 1.06723 25.0307 1.12597 25.0583 1.22483L26.9665 8.02421L26.9517 8.03443C26.8425 8.10958 26.7364 8.18673 26.633 8.26589H26.6328ZM27.8562 7.48959L26.3971 0.91748C26.375 0.817524 26.4418 0.719027 26.5466 0.697869C26.6511 0.67671 26.7542 0.740551 26.7763 0.840689L28.2126 7.31084C28.0914 7.36866 27.9726 7.42831 27.8562 7.48959ZM29.141 6.91758L28.0945 0.607215C28.0777 0.506347 28.1496 0.411498 28.2552 0.395629C28.3607 0.379578 28.4599 0.448343 28.4765 0.549211L29.5108 6.78516C29.3856 6.82784 29.2623 6.87198 29.141 6.9174V6.91758ZM30.495 6.48748L29.8228 0.379213C29.8119 0.277615 29.8894 0.186597 29.9957 0.1762C30.1019 0.165803 30.1972 0.239858 30.208 0.341456L30.874 6.39099C30.7462 6.422 30.6198 6.4541 30.4952 6.48748H30.495ZM31.8325 5.04432L31.5699 0.238399C31.5646 0.136436 31.6466 0.0494308 31.7535 0.0441412C31.8602 0.0390339 31.9512 0.117467 31.9567 0.219612L32.2059 4.78038C32.093 4.84659 31.9844 4.92138 31.881 5.00437C31.8648 5.0175 31.8485 5.03082 31.8325 5.04413V5.04432ZM33.3062 4.43163V0.185502C33.3062 0.0829927 33.393 0 33.5003 0C33.6075 0 33.6944 0.0829927 33.6944 0.185502V4.43163C33.6299 4.42652 33.5652 4.42397 33.5003 4.42397C33.4354 4.42397 33.3707 4.42652 33.3062 4.43163ZM34.7948 4.78038L35.044 0.219612C35.0494 0.117649 35.1404 0.0390339 35.2473 0.0441412C35.3539 0.0492484 35.4362 0.136254 35.4308 0.238399L35.1683 5.04432C35.1522 5.03082 35.1362 5.0175 35.1198 5.00455C35.0164 4.92156 34.9078 4.84659 34.7948 4.78056V4.78038ZM36.1268 6.39099L36.7927 0.341456C36.8036 0.239858 36.8986 0.165803 37.0051 0.1762C37.1114 0.186597 37.1889 0.277433 37.178 0.379213L36.5057 6.48748C36.3811 6.4541 36.2548 6.422 36.1269 6.39099H36.1268ZM37.4898 6.78534L38.524 0.549394C38.5408 0.448526 38.6399 0.37976 38.7454 0.395812C38.8509 0.411863 38.9229 0.506529 38.9061 0.607397L37.8596 6.91776C37.7382 6.87235 37.615 6.8282 37.4898 6.78552V6.78534ZM38.7878 7.31084L40.2241 0.840689C40.2462 0.740733 40.3491 0.67671 40.4538 0.697869C40.5584 0.719027 40.6254 0.817342 40.6032 0.91748L39.1442 7.48959C39.0278 7.42831 38.9089 7.36866 38.7878 7.31084ZM40.034 8.02439L41.9422 1.22501C41.9699 1.12615 42.0762 1.06741 42.1796 1.09386C42.283 1.12031 42.3445 1.22191 42.3168 1.32077L40.3678 8.26608C40.2643 8.18691 40.1581 8.10976 40.0489 8.03461L40.034 8.02439ZM41.1372 8.94552L43.6039 1.68521C43.6369 1.58799 43.7463 1.53473 43.848 1.56628C43.9497 1.59784 44.0054 1.70235 43.9724 1.79957L41.4341 9.27038C41.3392 9.15911 41.2402 9.05077 41.1372 8.94534V8.94552ZM42.0613 10.1468L45.2358 2.22731C45.274 2.13173 45.386 2.08357 45.486 2.12005C45.586 2.15653 45.6364 2.2636 45.5982 2.35918L42.2995 10.5886C42.2256 10.4374 42.1462 10.2902 42.0613 10.1468ZM43.1269 10.8675L46.8527 2.85586C46.8958 2.76265 47.0099 2.72052 47.1074 2.76174C47.2049 2.80297 47.249 2.91204 47.2059 3.00525L43.5495 10.8675H43.1267H43.1269ZM44.5613 10.8675L48.4506 3.5727C48.4991 3.4815 48.616 3.44502 48.7115 3.49153C48.8069 3.53786 48.845 3.64967 48.7964 3.74087L44.9967 10.8675H44.5613ZM46.0403 10.8675L49.9718 4.35119C50.0251 4.26273 50.1432 4.23226 50.2357 4.28297C50.3283 4.33386 50.3602 4.44677 50.3071 4.53523L46.4867 10.8675H46.0405H46.0403ZM47.6327 10.8675L51.4698 5.21614C51.528 5.13041 51.6478 5.10615 51.7375 5.16178C51.8272 5.21742 51.8526 5.33196 51.7944 5.41769L48.0941 10.8677H47.6327V10.8675ZM49.3312 10.8675L52.9132 6.15222C52.9759 6.06941 53.0971 6.05081 53.1837 6.111C53.2704 6.17101 53.2898 6.28684 53.2269 6.36965L49.81 10.8675H49.331H49.3312ZM51.132 10.8675L54.2808 7.1423C54.3478 7.06277 54.4697 7.05 54.5529 7.11403C54.6361 7.17805 54.6494 7.29461 54.5825 7.37413L51.6299 10.8673H51.132V10.8675ZM51.7802 12.3119L55.6251 8.22449C55.6967 8.14843 55.8192 8.14223 55.8988 8.21081C55.9783 8.27921 55.9848 8.39631 55.9131 8.47237L50.9311 13.7686L51.7801 12.3119H51.7802ZM49.171 16.789L56.9208 9.38511C56.9965 9.31306 57.1191 9.31343 57.1944 9.38584C57.2698 9.45825 57.2694 9.57536 57.1937 9.6474L48.483 17.9693L49.171 16.789ZM47.9148 19.3371L58.0959 10.5541C58.1754 10.4857 58.298 10.4917 58.3695 10.5678C58.4411 10.6439 58.4348 10.761 58.3552 10.8294L48.1506 19.6326C48.0724 19.5341 47.9938 19.4356 47.9148 19.3369V19.3371ZM48.5405 20.126L59.2479 11.8267C59.3307 11.7624 59.4526 11.7744 59.52 11.8536C59.5873 11.9327 59.5747 12.0493 59.4919 12.1137L48.7725 20.4224C48.6954 20.3237 48.6181 20.2249 48.5405 20.126ZM49.15 20.9091L60.3186 13.1419C60.4052 13.0818 60.5264 13.1003 60.5891 13.1831C60.6519 13.2659 60.6327 13.3817 60.546 13.4417L49.3795 21.2075C49.3034 21.1079 49.2269 21.0083 49.1501 20.9087L49.15 20.9091ZM49.7554 21.7023L61.3206 14.5173C61.4103 14.4617 61.5301 14.4862 61.5883 14.5717C61.6465 14.6574 61.6209 14.772 61.5314 14.8276L49.9818 22.0031C49.9066 21.9028 49.8312 21.8026 49.7554 21.7025V21.7023ZM50.3535 22.5025L62.2432 15.9375C62.3357 15.8863 62.4542 15.9165 62.5079 16.0048C62.5615 16.0933 62.5298 16.2066 62.4375 16.2578L50.5773 22.8064C50.5031 22.705 50.4285 22.6038 50.3537 22.5025H50.3535ZM50.9319 23.2938L63.0658 17.3626C63.1609 17.3163 63.2773 17.3522 63.3259 17.4431C63.3744 17.5339 63.3368 17.6452 63.2418 17.6917L51.1526 23.6009C51.0794 23.4986 51.0057 23.3963 50.9319 23.294V23.2938ZM51.5286 24.1301L63.8367 18.8804C63.9343 18.8388 64.0487 18.8808 64.0923 18.974C64.1358 19.0672 64.0919 19.1766 63.9944 19.2182L51.747 24.4418C51.6745 24.3378 51.6018 24.2339 51.5286 24.1301ZM52.118 24.9781L64.5163 20.4191C64.6159 20.3826 64.7277 20.4304 64.7657 20.5257C64.8038 20.6209 64.7538 20.7278 64.6542 20.7641L52.3336 25.2944C52.2621 25.1889 52.1901 25.0835 52.1178 24.9781H52.118ZM52.7044 25.8461L65.1076 21.9832C65.2093 21.9517 65.3187 22.0049 65.3517 22.1022C65.3847 22.1994 65.329 22.3039 65.2273 22.3354L52.9179 26.169C52.8471 26.0614 52.7758 25.9537 52.7042 25.8459L52.7044 25.8461ZM53.3026 26.7404L65.6137 23.5763C65.7171 23.5499 65.8234 23.6086 65.8511 23.7075C65.8787 23.8063 65.8173 23.9079 65.7139 23.9344L53.7116 27.0192C53.632 26.9644 53.5513 26.9093 53.4696 26.8541L53.3028 26.7406L53.3026 26.7404ZM54.4472 27.578L66.0384 25.2238C66.143 25.2026 66.2461 25.2665 66.2682 25.3666C66.2903 25.4665 66.2235 25.565 66.1188 25.5862L54.7609 27.893C54.6653 27.7827 54.5601 27.6784 54.447 27.5782L54.4472 27.578Z" fill="#E8A968"/>
</svg>
