<svg width="30" height="30" viewBox="0 0 30 30" fill="none" xmlns="http://www.w3.org/2000/svg">
<circle cx="15" cy="15" r="15" fill="white" fill-opacity="0.8"/>
<circle cx="24.2919" cy="10.0008" r="1.42857" fill="#171717"/>
<path d="M18.6351 8.57227H7.13672V22.858H10.3369V18.2103H16.4697L19.2673 22.858H22.851L19.7659 18.189C20.7243 18.0177 21.4144 17.6104 21.8354 16.9678C22.257 16.3253 22.4675 15.2976 22.4675 13.9265V12.8553C22.4675 12.0415 22.3912 11.399 22.257 10.9064C22.1228 10.4138 21.8926 9.98523 21.567 9.60001C21.2223 9.23612 20.8388 8.9788 20.379 8.80751C19.9192 8.65753 19.3443 8.57227 18.6351 8.57227ZM18.1181 15.0623H10.3369V11.721H18.1181C18.5588 11.721 18.8654 11.8063 19.0187 11.9562C19.1719 12.1062 19.2673 12.3848 19.2673 12.7914V13.9904C19.2673 14.419 19.1712 14.6977 19.018 14.8469C18.8647 14.9968 18.5582 15.0608 18.1174 15.0608L18.1181 15.0623Z" fill="#171717"/>
</svg>
