<svg width="19" height="15" viewBox="0 0 19 15" fill="none" xmlns="http://www.w3.org/2000/svg">
<circle cx="17.1551" cy="1.42857" r="1.42857" fill="#171717"/>
<path d="M11.4984 0H0V14.2857H3.20021V9.63801H9.33293L12.1306 14.2857H15.7143L12.6292 9.61669C13.5876 9.4454 14.2777 9.0381 14.6986 8.39557C15.1203 7.75304 15.3308 6.72529 15.3308 5.35419V4.28305C15.3308 3.46922 15.2545 2.82669 15.1203 2.33413C14.9861 1.84157 14.7559 1.41297 14.4302 1.02775C14.0856 0.66385 13.7021 0.406532 13.2423 0.23524C12.7825 0.0852651 12.2075 0 11.4984 0ZM10.9814 6.49005H3.20021V3.14872H10.9814C11.4221 3.14872 11.7287 3.23398 11.8819 3.38396C12.0352 3.53394 12.1306 3.81257 12.1306 4.2191V5.41814C12.1306 5.84675 12.0345 6.12539 11.8812 6.2746C11.728 6.42458 11.4214 6.48852 10.9807 6.48852L10.9814 6.49005Z" fill="#171717"/>
</svg>
