<svg width="30" height="30" viewBox="0 0 30 30" fill="none" xmlns="http://www.w3.org/2000/svg">
<circle cx="15" cy="15" r="15" fill="white" fill-opacity="0.8"/>
<path fill-rule="evenodd" clip-rule="evenodd" d="M8.57711 8H21.7865C22.654 8 23.3636 8.65046 23.3636 9.44568V21.5543C23.3636 22.3495 22.654 23 21.7865 23H8.57711C7.70959 23 7 22.3495 7 21.5543V9.44568C7 8.65046 7.70959 8 8.57711 8ZM12.2852 13.331C13.5918 13.331 14.6514 14.3023 14.6514 15.5C14.6514 16.6977 13.5918 17.669 12.2852 17.669C10.9786 17.669 9.919 16.6977 9.919 15.5C9.919 14.3023 10.9786 13.331 12.2852 13.331ZM18.0784 13.331C19.385 13.331 20.4446 14.3023 20.4446 15.5C20.4446 16.6977 19.385 17.669 18.0784 17.669C16.7718 17.669 15.7122 16.6977 15.7122 15.5C15.7122 14.3023 16.7718 13.331 18.0784 13.331Z" fill="#171717"/>
</svg>
