<svg width="30" height="30" viewBox="0 0 30 30" fill="none" xmlns="http://www.w3.org/2000/svg">
<circle cx="15" cy="15" r="15" fill="white" fill-opacity="0.8"/>
<path d="M22.3208 8.18164C22.9091 8.18164 23.3529 8.70888 23.1155 9.68954L20.236 23.5559C20.0347 24.5418 19.4515 24.7791 18.6465 24.3204L11.7778 19.1376C11.7512 19.1181 11.7295 19.0924 11.7145 19.0626C11.6996 19.0328 11.6917 18.9998 11.6917 18.9663C11.6917 18.9328 11.6996 18.8998 11.7145 18.87C11.7295 18.8402 11.7512 18.8145 11.7778 18.7949L19.7096 11.4769C20.0708 11.15 19.6322 10.9918 19.1574 11.2871L9.20272 17.7036C9.17253 17.7237 9.13825 17.7365 9.10249 17.7411C9.06672 17.7456 9.03041 17.7418 8.9963 17.7299L4.76982 16.3644C3.8306 16.0849 3.8306 15.4259 4.9814 14.9566L21.8925 8.29236C22.0268 8.22715 22.1723 8.18953 22.3208 8.18164Z" fill="#171717"/>
</svg>
