<svg width="30" height="30" viewBox="0 0 30 30" fill="none" xmlns="http://www.w3.org/2000/svg">
<circle cx="15" cy="15" r="15" fill="white" fill-opacity="0.8"/>
<path d="M16.1876 23.1154V19.1182C18.4949 19.5276 19.549 21.2944 20.6936 23.1154C20.6936 23.1154 23.7301 23.1058 24.4392 23.1154C25.1482 23.125 22.1055 18.5281 20.3522 16.8126C21.6973 14.6575 25.1615 9.57023 23.8235 9.55271C22.4856 9.53519 20.4194 9.55271 20.4194 9.55271C19.549 11.8113 18.3811 14.6635 16.1876 16.4815V9.55271H12.4265V11.2503V17.3002C10.5123 17.0414 9.08722 12.9492 7.81699 9.55271C7.81699 9.55271 5.46907 9.56605 4.26285 9.55271C3.05663 9.53937 8.27742 24.2832 16.1876 23.1154Z" fill="#171717"/>
</svg>
