<svg xmlns="http://www.w3.org/2000/svg"><symbol id="icon-arrow-next"><path stroke="currentColor" d="M0 8.571h17.142m0 0-3.434 3.435m3.434-3.435L14 5.43"></path></symbol><symbol id="icon-bible" viewBox="0 0 17 20"><rect width="15.771" height="19.3" x=".35" y=".35" stroke="currentColor" stroke-opacity=".9" stroke-width=".7" rx=".65"></rect><mask id="a" fill="currentColor"><path d="M4.316 13.138c0-.172.143-.311.32-.311h7.025c.176 0 .319.14.319.311a.315.315 0 0 1-.32.311H4.637a.315.315 0 0 1-.32-.31M4.316 14.694c0-.172.143-.311.32-.311h7.025c.176 0 .319.139.319.31a.315.315 0 0 1-.32.312H4.637a.315.315 0 0 1-.32-.311M4.316 16.25c0-.172.143-.312.32-.312h7.025c.176 0 .319.14.319.311a.315.315 0 0 1-.32.312H4.637a.315.315 0 0 1-.32-.312M7.833 3.456c0-.17.141-.307.315-.307s.315.138.315.307v4.606c0 .17-.14.307-.315.307a.31.31 0 0 1-.315-.307z"></path><path d="M6.888 4.992a.31.31 0 0 1-.315-.307c0-.17.14-.307.315-.307h2.52c.175 0 .316.137.316.307s-.141.307-.315.307z"></path></mask><path fill="currentColor" d="M4.316 13.138c0-.172.143-.311.32-.311h7.025c.176 0 .319.14.319.311a.315.315 0 0 1-.32.311H4.637a.315.315 0 0 1-.32-.31M4.316 14.694c0-.172.143-.311.32-.311h7.025c.176 0 .319.139.319.31a.315.315 0 0 1-.32.312H4.637a.315.315 0 0 1-.32-.311M4.316 16.25c0-.172.143-.312.32-.312h7.025c.176 0 .319.14.319.311a.315.315 0 0 1-.32.312H4.637a.315.315 0 0 1-.32-.312M7.833 3.456c0-.17.141-.307.315-.307s.315.138.315.307v4.606c0 .17-.14.307-.315.307a.31.31 0 0 1-.315-.307z"></path><path fill="currentColor" d="M6.888 4.992a.31.31 0 0 1-.315-.307c0-.17.14-.307.315-.307h2.52c.175 0 .316.137.316.307s-.141.307-.315.307z"></path><path fill="currentColor" d="M9.409 4.992v-.7zm0-.614v-.7zm-2.521 0v.7zm0 .614v.7zm-1.872 8.146a.385.385 0 0 1-.38.389v-1.4c-.546 0-1.02.436-1.02 1.011zm-.38.389h7.025v-1.4H4.636zm7.025 0a.385.385 0 0 1-.381-.389h1.4c0-.575-.474-1.011-1.02-1.011zm-.381-.389c0-.232.188-.389.38-.389v1.4c.546 0 1.02-.435 1.02-1.01zm.38-.389H4.637v1.4h7.025zm-7.024 0c.193 0 .38.157.38.39h-1.4c0 .575.474 1.01 1.02 1.01zm.38 1.945a.385.385 0 0 1-.38.389v-1.4c-.546 0-1.02.435-1.02 1.01zm-.38.389h7.025v-1.4H4.636zm7.025 0a.385.385 0 0 1-.381-.39h1.4c0-.575-.474-1.01-1.02-1.01zm-.381-.39c0-.231.188-.388.38-.388v1.4c.546 0 1.02-.436 1.02-1.011zm.38-.388H4.637v1.4h7.025zm-7.024 0c.193 0 .38.157.38.389h-1.4c0 .575.474 1.01 1.02 1.01zm.38 1.944a.385.385 0 0 1-.38.39v-1.4c-.546 0-1.02.435-1.02 1.01zm-.38.39h7.025v-1.4H4.636zm7.025 0a.385.385 0 0 1-.381-.39h1.4c0-.575-.474-1.01-1.02-1.01zm-.381-.39c0-.232.188-.388.38-.388v1.4c.546 0 1.02-.436 1.02-1.012zm.38-.388H4.637v1.4h7.025zm-7.024 0c.193 0 .38.156.38.388h-1.4c0 .576.474 1.012 1.02 1.012zM7.763 3.456v4.606h1.4V3.456zm.77 4.606V3.456h-1.4v4.606zm-.385-.393c.196 0 .385.159.385.393h-1.4c0 .573.472 1.007 1.015 1.007zm-.385.393c0-.234.19-.393.385-.393v1.4c.544 0 1.015-.434 1.015-1.007zm.385-4.213a.39.39 0 0 1-.385-.393h1.4c0-.573-.471-1.007-1.015-1.007zm0-1.4c-.543 0-1.015.434-1.015 1.007h1.4c0 .235-.19.393-.385.393zm-1.26 2.629h2.52v-1.4h-2.52zm2.52-.786h-2.52v1.4h2.52zm-.384.393c0-.234.19-.393.385-.393v1.4c.543 0 1.015-.434 1.015-1.007zm.385.393a.39.39 0 0 1-.385-.393h1.4c0-.574-.472-1.007-1.015-1.007zm-2.136-.393c0 .234-.19.393-.385.393v-1.4c-.544 0-1.015.433-1.015 1.007zm-1.4 0c0 .573.471 1.007 1.015 1.007v-1.4c.195 0 .385.159.385.393z" mask="url(#a)"></path><rect width="7.184" height=".479" x="4.556" y="10.094" fill="currentColor" stroke="currentColor" stroke-width=".479" rx=".239"></rect></symbol><symbol id="icon-calendar" viewBox="0 0 16 22"><path stroke="currentColor" stroke-width=".6" d="M3.163 14.285h1.808c.084 0 .152.068.152.152v1.807a.153.153 0 0 1-.152.152H3.163a.153.153 0 0 1-.152-.152v-1.807c0-.084.068-.152.152-.152Zm3.615 0h1.809c.084 0 .151.068.151.152v1.807a.15.15 0 0 1-.151.152H6.778a.15.15 0 0 1-.151-.152v-1.807c0-.084.068-.152.151-.152Zm3.617 0h1.807c.084 0 .152.068.152.152v1.807a.153.153 0 0 1-.152.152h-1.807a.15.15 0 0 1-.152-.152v-1.807c0-.084.068-.152.152-.152ZM3.163 10.67h1.808c.083 0 .152.068.152.151v1.809a.15.15 0 0 1-.152.151H3.163a.15.15 0 0 1-.152-.151V10.82c0-.083.068-.151.152-.151Zm3.615 0h1.809c.084 0 .151.068.151.151v1.809a.15.15 0 0 1-.151.151H6.778a.15.15 0 0 1-.151-.151V10.82c0-.083.068-.15.151-.151Zm3.617 0h1.807c.084 0 .152.068.152.151v1.809a.15.15 0 0 1-.152.151h-1.807a.15.15 0 0 1-.152-.151V10.82c0-.083.068-.151.152-.151ZM3.163 7.053h1.808c.084 0 .152.068.152.152v1.808a.153.153 0 0 1-.152.152H3.163a.153.153 0 0 1-.152-.152V7.205c0-.084.068-.152.152-.152Zm3.615 0h1.809c.084 0 .151.068.151.152v1.808a.15.15 0 0 1-.151.152H6.778a.15.15 0 0 1-.151-.152V7.205c0-.084.068-.152.151-.152Zm3.617 0h1.807c.084 0 .152.068.152.152v1.808a.153.153 0 0 1-.152.152h-1.807a.15.15 0 0 1-.152-.152V7.205c0-.084.068-.152.152-.152Z"></path><rect width="15.3" height="19.3" x=".35" y="1.85" stroke="currentColor" stroke-width=".7" rx=".65"></rect><path fill="currentColor" d="M4 .271a.271.271 0 0 1 .542 0v3.074a.271.271 0 0 1-.542 0zM7.842.271a.271.271 0 0 1 .542 0v3.074a.271.271 0 1 1-.542 0zM11.684.271a.271.271 0 1 1 .542 0v3.074a.271.271 0 1 1-.542 0z"></path></symbol><symbol id="icon-close"><rect width="1" height="21.901" x="16.117" y=".608" fill="currentColor" rx=".5" transform="rotate(44.582 16.117 .608)"></rect><rect width="1" height="22.23" x=".215" y="1.299" fill="currentColor" rx=".5" transform="rotate(-45.418 .215 1.299)"></rect></symbol><symbol id="icon-down"><path stroke="currentColor" stroke-width=".7" d="m.236.259 5.5 5 5.5-5"></path></symbol><symbol id="icon-like" viewBox="0 0 20 20"><path stroke="currentColor" stroke-width=".7" d="M13.29 15.294c-.076-.382-.62-.446-1.03-.446-1.267 0-2.17-.117-2.85-.303-2.042-.558-.999-.303-2.533-.618-1.116-.23-1.431-.172-2.558 0-1.717.26-3.8 2.484-3.8 2.484a.53.53 0 0 0-.104.631l1.01 1.907a1.01 1.01 0 0 0 1.5.329c.2-.152.39-.293.517-.383 1.17-.828 1.647-.798 2.338-.828 1.5-.063 2.302.46 3.8.552 1.14.072 1.81.237 2.924 0 1.395-.296 2.038-.888 3.215-1.656.94-.614 2.051-1.621 2.767-2.306.408-.39.399-1.102-.136-1.283-.538-.18-1.754.276-2.339.552-.584.276-.968.54-2.722 1.368Zm0 0c0 .588 0 .588-.494.84-.698.358-1.637.553-2.436.553-1.598 0-3.167-.324-3.167-.324"></path><path fill="currentColor" stroke="#F6F5F4" stroke-width="1.3" d="M7.125 16.666c.14 0 .256-.098.283-.234l.006-.06c0-.147-.023-.258-.202-.283l-.087-.006m0 .583v-.583m0 .583-.059-.006a.29.29 0 0 1-.224-.228l-.006-.06c0-.168.13-.289.289-.289m0 .583v-.583"></path><path stroke="currentColor" stroke-width=".7" d="M3.706 1.378C5.502.067 7.024.222 8.101.68a5.1 5.1 0 0 1 1.731 1.232q.014.016.02.024l.004.004.248.301.272-.277.001-.002.006-.005a3 3 0 0 1 .135-.126 6 6 0 0 1 .422-.344 6.3 6.3 0 0 1 1.493-.836c.61-.232 1.305-.366 2.034-.261.724.104 1.509.447 2.3 1.204.29.278.591.638.778 1.195.188.561.27 1.352.068 2.505-.142.82-.67 1.724-1.428 2.638-.753.907-1.705 1.791-2.646 2.57a36 36 0 0 1-3.373 2.467l-.12.075-.103-.07a38.25 38.25 0 0 1-3.219-2.468c-.907-.78-1.837-1.665-2.596-2.575-.76-.913-1.327-1.823-1.547-2.657-.15-.869-.142-1.563.031-2.172.173-.605.517-1.156 1.094-1.725Z"></path></symbol><symbol id="icon-next" viewBox="0 0 8 13"><path fill="none" stroke="currentColor" stroke-width="1.3" d="m.46.46 6 6-6 6"></path></symbol><symbol id="icon-pause" viewBox="0 0 32 32"><path fill="currentColor" d="M25 4h-5a2 2 0 0 0-2 2v20a2 2 0 0 0 2 2h5a2 2 0 0 0 2-2V6a2 2 0 0 0-2-2m0 22h-5 6L25 6zM12 4H7a2 2 0 0 0-2 2v20a2 2 0 0 0 2 2h5a2 2 0 0 0 2-2V6a2 2 0 0 0-2-2m0 22H7l6 .5L12 6z"></path></symbol><symbol id="icon-play" viewBox="0 0 25 25"><path fill="currentColor" d="M23.5 11.634a1 1 0 0 1 0 1.732L7.75 22.459a1 1 0 0 1-1.5-.866V3.407a1 1 0 0 1 1.5-.866z"></path></symbol><symbol id="icon-prev" viewBox="0 0 8 13"><path fill="none" stroke="currentColor" stroke-width="1.3" d="m6.918.46-6 6 6 6"></path></symbol><symbol id="icon-rutube" viewBox="0 0 16 14"><path fill="currentColor" d="M11.163 0H0v13.868h3.107V9.356H9.06l2.716 4.512h3.48L12.26 9.336q1.395-.25 2.01-1.186c.409-.623.613-1.621.613-2.952v-1.04c0-.79-.074-1.414-.204-1.892a3.3 3.3 0 0 0-.67-1.268 3 3 0 0 0-1.154-.77C12.41.083 11.851 0 11.162 0m-.502 6.3H3.107V3.057h7.554c.428 0 .725.083.874.228s.241.416.241.81V5.26c0 .416-.093.686-.242.831-.149.146-.446.208-.874.208z"></path></symbol><symbol id="icon-ter" viewBox="0 0 16 15"><path fill="currentColor" fill-rule="evenodd" d="M1.531 0h12.824c.842 0 1.53.631 1.53 1.403v11.755c0 .772-.688 1.404-1.53 1.404H1.53C.689 14.562 0 13.93 0 13.158V1.403C0 .631.689 0 1.531 0m3.6 5.175c1.268 0 2.297.943 2.297 2.106S6.399 9.387 5.13 9.387 2.834 8.444 2.834 7.28 3.862 5.175 5.13 5.175m5.624 0c1.268 0 2.297.943 2.297 2.106s-1.029 2.106-2.297 2.106-2.297-.943-2.297-2.106 1.028-2.106 2.297-2.106" clip-rule="evenodd"></path></symbol><symbol id="icon-tg" viewBox="0 0 19 16"><path fill="currentColor" d="M17.698 0c.572 0 1.002.512.772 1.464l-2.795 13.461c-.196.957-.762 1.188-1.544.742l-6.668-5.031a.2.2 0 0 1-.083-.166.21.21 0 0 1 .083-.167l7.7-7.104c.351-.317-.075-.47-.536-.184L4.964 9.244a.23.23 0 0 1-.2.025L.66 7.944c-.912-.272-.912-.911.206-1.367L17.283.107c.13-.063.271-.1.415-.107"></path></symbol><symbol id="icon-vk" viewBox="0 0 20 14"><path fill="currentColor" d="M11.744 13.174v-3.88c2.24.397 3.264 2.112 4.375 3.88 0 0 2.948-.01 3.636 0s-2.266-4.453-3.968-6.119c1.306-2.092 4.67-7.03 3.37-7.047s-3.304 0-3.304 0c-.845 2.192-1.98 4.961-4.109 6.726V.008h-3.65v7.521C6.233 7.277 4.85 3.305 3.617.008c0 0-2.28.013-3.45 0s3.897 14.3 11.576 13.166"></path></symbol></svg>